<?xml version="1.0" encoding="UTF-8" standalone="no"?>
<!DOCTYPE svg PUBLIC "-//W3C//DTD SVG 1.1//EN"
 "http://www.w3.org/Graphics/SVG/1.1/DTD/svg11.dtd">
<!-- Generated by graphviz version 2.40.1 (20161225.0304)
 -->
<!-- Title: dependencies Pages: 1 -->
<svg width="504pt" height="284pt"
 viewBox="0.00 0.00 504.00 284.00" xmlns="http://www.w3.org/2000/svg" xmlns:xlink="http://www.w3.org/1999/xlink">
<g id="graph0" class="graph" transform="scale(1 1) rotate(0) translate(4 280)">
<title>dependencies</title>
<polygon fill="#ffffff" stroke="transparent" points="-4,4 -4,-280 500,-280 500,4 -4,4"/>
<text text-anchor="start" x="227.0091" y="-42.4" font-family="sans-serif" font-weight="bold" font-size="14.00" fill="#000000">Legend</text>
<polygon fill="#ffffb3" stroke="transparent" points="14,-10 14,-30 34,-30 34,-10 14,-10"/>
<text text-anchor="start" x="37.629" y="-15.4" font-family="sans-serif" font-size="14.00" fill="#000000"> &#160;Declarations</text>
<polygon fill="#8dd3c7" stroke="transparent" points="127,-10 127,-30 147,-30 147,-10 127,-10"/>
<text text-anchor="start" x="150.7251" y="-15.4" font-family="sans-serif" font-size="14.00" fill="#000000"> &#160;Module</text>
<polygon fill="#80b1d3" stroke="transparent" points="213,-10 213,-30 233,-30 233,-10 213,-10"/>
<text text-anchor="start" x="236.7812" y="-15.4" font-family="sans-serif" font-size="14.00" fill="#000000"> &#160;Bootstrap</text>
<polygon fill="#fdb462" stroke="transparent" points="310,-10 310,-30 330,-30 330,-10 310,-10"/>
<text text-anchor="start" x="333.6732" y="-15.4" font-family="sans-serif" font-size="14.00" fill="#000000"> &#160;Providers</text>
<polygon fill="#fb8072" stroke="transparent" points="406,-10 406,-30 426,-30 426,-10 406,-10"/>
<text text-anchor="start" x="429.7258" y="-15.4" font-family="sans-serif" font-size="14.00" fill="#000000"> &#160;Exports</text>
<g id="clust1" class="cluster">
<title>cluster_SharedModule</title>
<polygon fill="none" stroke="#000000" stroke-dasharray="1,5" points="97,-70 97,-268 399,-268 399,-70 97,-70"/>
</g>
<g id="clust2" class="cluster">
<title>cluster_SharedModule_declarations</title>
<polygon fill="none" stroke="#000000" points="108,-78 108,-130 388,-130 388,-78 108,-78"/>
</g>
<g id="clust6" class="cluster">
<title>cluster_SharedModule_exports</title>
<polygon fill="none" stroke="#000000" points="105,-208 105,-260 391,-260 391,-208 105,-208"/>
</g>
<!-- DropdownComponent -->
<g id="node1" class="node">
<title>DropdownComponent</title>
<polygon fill="#ffffb3" stroke="#000000" points="379.7064,-122 238.2936,-122 238.2936,-86 379.7064,-86 379.7064,-122"/>
<text text-anchor="middle" x="309" y="-99.8" font-family="Times,serif" font-size="14.00" fill="#000000">DropdownComponent</text>
</g>
<!-- SharedModule -->
<g id="node3" class="node">
<title>SharedModule</title>
<polygon fill="#8dd3c7" stroke="#000000" points="218.4231,-187 215.4231,-191 194.4231,-191 191.4231,-187 119.5769,-187 119.5769,-151 218.4231,-151 218.4231,-187"/>
<text text-anchor="middle" x="169" y="-164.8" font-family="Times,serif" font-size="14.00" fill="#000000">SharedModule</text>
</g>
<!-- DropdownComponent&#45;&gt;SharedModule -->
<g id="edge1" class="edge">
<title>DropdownComponent&#45;&gt;SharedModule</title>
<path fill="none" stroke="#000000" d="M332.6177,-122.0225C332.6177,-139.3734 332.6177,-163 332.6177,-163 332.6177,-163 228.5347,-163 228.5347,-163"/>
<polygon fill="#000000" stroke="#000000" points="228.5348,-159.5001 218.5347,-163 228.5347,-166.5001 228.5348,-159.5001"/>
</g>
<!-- StarComponent -->
<g id="node2" class="node">
<title>StarComponent</title>
<polygon fill="#ffffb3" stroke="#000000" points="219.8809,-122 116.1191,-122 116.1191,-86 219.8809,-86 219.8809,-122"/>
<text text-anchor="middle" x="168" y="-99.8" font-family="Times,serif" font-size="14.00" fill="#000000">StarComponent</text>
</g>
<!-- StarComponent&#45;&gt;SharedModule -->
<g id="edge2" class="edge">
<title>StarComponent&#45;&gt;SharedModule</title>
<path fill="none" stroke="#000000" d="M169,-122.1061C169,-122.1061 169,-140.991 169,-140.991"/>
<polygon fill="#000000" stroke="#000000" points="165.5001,-140.9909 169,-150.991 172.5001,-140.991 165.5001,-140.9909"/>
</g>
<!-- DropdownComponent  -->
<g id="node4" class="node">
<title>DropdownComponent </title>
<polygon fill="#fb8072" stroke="#000000" points="383.2065,-252 238.7935,-252 238.7935,-216 383.2065,-216 383.2065,-252"/>
<text text-anchor="middle" x="311" y="-229.8" font-family="Times,serif" font-size="14.00" fill="#000000">DropdownComponent </text>
</g>
<!-- SharedModule&#45;&gt;DropdownComponent  -->
<g id="edge3" class="edge">
<title>SharedModule&#45;&gt;DropdownComponent </title>
<path fill="none" stroke="#000000" stroke-dasharray="5,2" d="M218.4626,-175C250.2507,-175 285.6323,-175 285.6323,-175 285.6323,-175 285.6323,-205.9775 285.6323,-205.9775"/>
<polygon fill="#000000" stroke="#000000" points="282.1324,-205.9774 285.6323,-215.9775 289.1324,-205.9775 282.1324,-205.9774"/>
</g>
<!-- StarComponent  -->
<g id="node5" class="node">
<title>StarComponent </title>
<polygon fill="#fb8072" stroke="#000000" points="220.8815,-252 113.1185,-252 113.1185,-216 220.8815,-216 220.8815,-252"/>
<text text-anchor="middle" x="167" y="-229.8" font-family="Times,serif" font-size="14.00" fill="#000000">StarComponent </text>
</g>
<!-- SharedModule&#45;&gt;StarComponent  -->
<g id="edge4" class="edge">
<title>SharedModule&#45;&gt;StarComponent </title>
<path fill="none" stroke="#000000" stroke-dasharray="5,2" d="M169,-187.1061C169,-187.1061 169,-205.991 169,-205.991"/>
<polygon fill="#000000" stroke="#000000" points="165.5001,-205.9909 169,-215.991 172.5001,-205.991 165.5001,-205.9909"/>
</g>
</g>
</svg>
