<?xml version="1.0" encoding="UTF-8" standalone="no"?>
<!DOCTYPE svg PUBLIC "-//W3C//DTD SVG 1.1//EN"
 "http://www.w3.org/Graphics/SVG/1.1/DTD/svg11.dtd">
<!-- Generated by graphviz version 2.40.1 (20161225.0304)
 -->
<!-- Title: dependencies Pages: 1 -->
<svg width="1074pt" height="284pt"
 viewBox="0.00 0.00 1074.00 284.00" xmlns="http://www.w3.org/2000/svg" xmlns:xlink="http://www.w3.org/1999/xlink">
<g id="graph0" class="graph" transform="scale(1 1) rotate(0) translate(4 280)">
<title>dependencies</title>
<polygon fill="#ffffff" stroke="transparent" points="-4,4 -4,-280 1070,-280 1070,4 -4,4"/>
<text text-anchor="start" x="512.0091" y="-42.4" font-family="sans-serif" font-weight="bold" font-size="14.00" fill="#000000">Legend</text>
<polygon fill="#ffffb3" stroke="transparent" points="299,-10 299,-30 319,-30 319,-10 299,-10"/>
<text text-anchor="start" x="322.629" y="-15.4" font-family="sans-serif" font-size="14.00" fill="#000000"> &#160;Declarations</text>
<polygon fill="#8dd3c7" stroke="transparent" points="412,-10 412,-30 432,-30 432,-10 412,-10"/>
<text text-anchor="start" x="435.7251" y="-15.4" font-family="sans-serif" font-size="14.00" fill="#000000"> &#160;Module</text>
<polygon fill="#80b1d3" stroke="transparent" points="498,-10 498,-30 518,-30 518,-10 498,-10"/>
<text text-anchor="start" x="521.7812" y="-15.4" font-family="sans-serif" font-size="14.00" fill="#000000"> &#160;Bootstrap</text>
<polygon fill="#fdb462" stroke="transparent" points="595,-10 595,-30 615,-30 615,-10 595,-10"/>
<text text-anchor="start" x="618.6732" y="-15.4" font-family="sans-serif" font-size="14.00" fill="#000000"> &#160;Providers</text>
<polygon fill="#fb8072" stroke="transparent" points="691,-10 691,-30 711,-30 711,-10 691,-10"/>
<text text-anchor="start" x="714.7258" y="-15.4" font-family="sans-serif" font-size="14.00" fill="#000000"> &#160;Exports</text>
<g id="clust1" class="cluster">
<title>cluster_SharedModule</title>
<polygon fill="none" stroke="#000000" stroke-dasharray="1,5" points="8,-70 8,-268 1058,-268 1058,-70 8,-70"/>
</g>
<g id="clust2" class="cluster">
<title>cluster_SharedModule_declarations</title>
<polygon fill="none" stroke="#000000" points="169,-78 169,-130 1031,-130 1031,-78 169,-78"/>
</g>
<g id="clust9" class="cluster">
<title>cluster_SharedModule_imports</title>
<polygon fill="none" stroke="#000000" points="17,-78 17,-130 161,-130 161,-78 17,-78"/>
</g>
<g id="clust10" class="cluster">
<title>cluster_SharedModule_exports</title>
<polygon fill="none" stroke="#000000" points="16,-208 16,-260 1050,-260 1050,-208 16,-208"/>
</g>
<!-- CommentsComponent -->
<g id="node1" class="node">
<title>CommentsComponent</title>
<polygon fill="#ffffb3" stroke="#000000" points="1023,-122 881,-122 881,-86 1023,-86 1023,-122"/>
<text text-anchor="middle" x="952" y="-99.8" font-family="Times,serif" font-size="14.00" fill="#000000">CommentsComponent</text>
</g>
<!-- SharedModule -->
<g id="node7" class="node">
<title>SharedModule</title>
<polygon fill="#8dd3c7" stroke="#000000" points="555.4231,-187 552.4231,-191 531.4231,-191 528.4231,-187 456.5769,-187 456.5769,-151 555.4231,-151 555.4231,-187"/>
<text text-anchor="middle" x="506" y="-164.8" font-family="Times,serif" font-size="14.00" fill="#000000">SharedModule</text>
</g>
<!-- CommentsComponent&#45;&gt;SharedModule -->
<g id="edge1" class="edge">
<title>CommentsComponent&#45;&gt;SharedModule</title>
<path fill="none" stroke="#000000" d="M886.375,-122.2222C886.375,-140.8285 886.375,-167 886.375,-167 886.375,-167 565.3374,-167 565.3374,-167"/>
<polygon fill="#000000" stroke="#000000" points="565.3375,-163.5001 555.3374,-167 565.3374,-170.5001 565.3375,-163.5001"/>
</g>
<!-- DropdownComponent -->
<g id="node2" class="node">
<title>DropdownComponent</title>
<polygon fill="#ffffb3" stroke="#000000" points="862.7064,-122 721.2936,-122 721.2936,-86 862.7064,-86 862.7064,-122"/>
<text text-anchor="middle" x="792" y="-99.8" font-family="Times,serif" font-size="14.00" fill="#000000">DropdownComponent</text>
</g>
<!-- DropdownComponent&#45;&gt;SharedModule -->
<g id="edge2" class="edge">
<title>DropdownComponent&#45;&gt;SharedModule</title>
<path fill="none" stroke="#000000" d="M737.3016,-122.0336C737.3016,-139.0597 737.3016,-162 737.3016,-162 737.3016,-162 565.3363,-162 565.3363,-162"/>
<polygon fill="#000000" stroke="#000000" points="565.3363,-158.5001 555.3363,-162 565.3362,-165.5001 565.3363,-158.5001"/>
</g>
<!-- LikesComponent -->
<g id="node3" class="node">
<title>LikesComponent</title>
<polygon fill="#ffffb3" stroke="#000000" points="703.4356,-122 590.5644,-122 590.5644,-86 703.4356,-86 703.4356,-122"/>
<text text-anchor="middle" x="647" y="-99.8" font-family="Times,serif" font-size="14.00" fill="#000000">LikesComponent</text>
</g>
<!-- LikesComponent&#45;&gt;SharedModule -->
<g id="edge3" class="edge">
<title>LikesComponent&#45;&gt;SharedModule</title>
<path fill="none" stroke="#000000" d="M647,-122.2396C647,-137.5706 647,-157 647,-157 647,-157 565.315,-157 565.315,-157"/>
<polygon fill="#000000" stroke="#000000" points="565.315,-153.5001 555.315,-157 565.3149,-160.5001 565.315,-153.5001"/>
</g>
<!-- ListLikesComponent -->
<g id="node4" class="node">
<title>ListLikesComponent</title>
<polygon fill="#ffffb3" stroke="#000000" points="573.2134,-122 438.7866,-122 438.7866,-86 573.2134,-86 573.2134,-122"/>
<text text-anchor="middle" x="506" y="-99.8" font-family="Times,serif" font-size="14.00" fill="#000000">ListLikesComponent</text>
</g>
<!-- ListLikesComponent&#45;&gt;SharedModule -->
<g id="edge4" class="edge">
<title>ListLikesComponent&#45;&gt;SharedModule</title>
<path fill="none" stroke="#000000" d="M506,-122.1061C506,-122.1061 506,-140.991 506,-140.991"/>
<polygon fill="#000000" stroke="#000000" points="502.5001,-140.9909 506,-150.991 509.5001,-140.991 502.5001,-140.9909"/>
</g>
<!-- NavbarComponent -->
<g id="node5" class="node">
<title>NavbarComponent</title>
<polygon fill="#ffffb3" stroke="#000000" points="421.0297,-122 298.9703,-122 298.9703,-86 421.0297,-86 421.0297,-122"/>
<text text-anchor="middle" x="360" y="-99.8" font-family="Times,serif" font-size="14.00" fill="#000000">NavbarComponent</text>
</g>
<!-- NavbarComponent&#45;&gt;SharedModule -->
<g id="edge5" class="edge">
<title>NavbarComponent&#45;&gt;SharedModule</title>
<path fill="none" stroke="#000000" d="M360,-122.1871C360,-137.1824 360,-156 360,-156 360,-156 446.5711,-156 446.5711,-156"/>
<polygon fill="#000000" stroke="#000000" points="446.5711,-159.5001 456.5711,-156 446.571,-152.5001 446.5711,-159.5001"/>
</g>
<!-- StarComponent -->
<g id="node6" class="node">
<title>StarComponent</title>
<polygon fill="#ffffb3" stroke="#000000" points="280.8809,-122 177.1191,-122 177.1191,-86 280.8809,-86 280.8809,-122"/>
<text text-anchor="middle" x="229" y="-99.8" font-family="Times,serif" font-size="14.00" fill="#000000">StarComponent</text>
</g>
<!-- StarComponent&#45;&gt;SharedModule -->
<g id="edge6" class="edge">
<title>StarComponent&#45;&gt;SharedModule</title>
<path fill="none" stroke="#000000" d="M251.2757,-122.027C251.2757,-138.3976 251.2757,-160 251.2757,-160 251.2757,-160 446.5846,-160 446.5846,-160"/>
<polygon fill="#000000" stroke="#000000" points="446.5846,-163.5001 456.5846,-160 446.5845,-156.5001 446.5846,-163.5001"/>
</g>
<!-- AppRoutingModule  -->
<g id="node9" class="node">
<title>AppRoutingModule </title>
<polygon fill="#fb8072" stroke="#000000" points="1042.2745,-252 909.7255,-252 909.7255,-216 1042.2745,-216 1042.2745,-252"/>
<text text-anchor="middle" x="976" y="-229.8" font-family="Times,serif" font-size="14.00" fill="#000000">AppRoutingModule </text>
</g>
<!-- SharedModule&#45;&gt;AppRoutingModule  -->
<g id="edge8" class="edge">
<title>SharedModule&#45;&gt;AppRoutingModule </title>
<path fill="none" stroke="#000000" stroke-dasharray="5,2" d="M555.2742,-172C674.053,-172 966.4315,-172 966.4315,-172 966.4315,-172 966.4315,-205.7333 966.4315,-205.7333"/>
<polygon fill="#000000" stroke="#000000" points="962.9315,-205.7333 966.4315,-215.7333 969.9315,-205.7333 962.9315,-205.7333"/>
</g>
<!-- CommentsComponent  -->
<g id="node10" class="node">
<title>CommentsComponent </title>
<polygon fill="#fb8072" stroke="#000000" points="892.0009,-252 745.9991,-252 745.9991,-216 892.0009,-216 892.0009,-252"/>
<text text-anchor="middle" x="819" y="-229.8" font-family="Times,serif" font-size="14.00" fill="#000000">CommentsComponent </text>
</g>
<!-- SharedModule&#45;&gt;CommentsComponent  -->
<g id="edge9" class="edge">
<title>SharedModule&#45;&gt;CommentsComponent </title>
<path fill="none" stroke="#000000" stroke-dasharray="5,2" d="M555.2791,-177C640.0406,-177 804.4266,-177 804.4266,-177 804.4266,-177 804.4266,-205.9648 804.4266,-205.9648"/>
<polygon fill="#000000" stroke="#000000" points="800.9266,-205.9648 804.4266,-215.9648 807.9266,-205.9649 800.9266,-205.9648"/>
</g>
<!-- DropdownComponent  -->
<g id="node11" class="node">
<title>DropdownComponent </title>
<polygon fill="#fb8072" stroke="#000000" points="728.2065,-252 583.7935,-252 583.7935,-216 728.2065,-216 728.2065,-252"/>
<text text-anchor="middle" x="656" y="-229.8" font-family="Times,serif" font-size="14.00" fill="#000000">DropdownComponent </text>
</g>
<!-- SharedModule&#45;&gt;DropdownComponent  -->
<g id="edge10" class="edge">
<title>SharedModule&#45;&gt;DropdownComponent </title>
<path fill="none" stroke="#000000" stroke-dasharray="5,2" d="M555.5825,-182C572.4914,-182 587.2148,-182 587.2148,-182 587.2148,-182 587.2148,-205.8129 587.2148,-205.8129"/>
<polygon fill="#000000" stroke="#000000" points="583.7148,-205.8129 587.2148,-215.8129 590.7148,-205.813 583.7148,-205.8129"/>
</g>
<!-- LikesComponent  -->
<g id="node12" class="node">
<title>LikesComponent </title>
<polygon fill="#fb8072" stroke="#000000" points="565.9348,-252 450.0652,-252 450.0652,-216 565.9348,-216 565.9348,-252"/>
<text text-anchor="middle" x="508" y="-229.8" font-family="Times,serif" font-size="14.00" fill="#000000">LikesComponent </text>
</g>
<!-- SharedModule&#45;&gt;LikesComponent  -->
<g id="edge11" class="edge">
<title>SharedModule&#45;&gt;LikesComponent </title>
<path fill="none" stroke="#000000" stroke-dasharray="5,2" d="M506,-187.1061C506,-187.1061 506,-205.991 506,-205.991"/>
<polygon fill="#000000" stroke="#000000" points="502.5001,-205.9909 506,-215.991 509.5001,-205.991 502.5001,-205.9909"/>
</g>
<!-- ListLikesComponent  -->
<g id="node13" class="node">
<title>ListLikesComponent </title>
<polygon fill="#fb8072" stroke="#000000" points="431.7135,-252 294.2865,-252 294.2865,-216 431.7135,-216 431.7135,-252"/>
<text text-anchor="middle" x="363" y="-229.8" font-family="Times,serif" font-size="14.00" fill="#000000">ListLikesComponent </text>
</g>
<!-- SharedModule&#45;&gt;ListLikesComponent  -->
<g id="edge12" class="edge">
<title>SharedModule&#45;&gt;ListLikesComponent </title>
<path fill="none" stroke="#000000" stroke-dasharray="5,2" d="M456.5932,-183C440.4384,-183 426.5605,-183 426.5605,-183 426.5605,-183 426.5605,-205.8757 426.5605,-205.8757"/>
<polygon fill="#000000" stroke="#000000" points="423.0606,-205.8757 426.5605,-215.8757 430.0606,-205.8757 423.0606,-205.8757"/>
</g>
<!-- NavbarComponent  -->
<g id="node14" class="node">
<title>NavbarComponent </title>
<polygon fill="#fb8072" stroke="#000000" points="276.0288,-252 149.9712,-252 149.9712,-216 276.0288,-216 276.0288,-252"/>
<text text-anchor="middle" x="213" y="-229.8" font-family="Times,serif" font-size="14.00" fill="#000000">NavbarComponent </text>
</g>
<!-- SharedModule&#45;&gt;NavbarComponent  -->
<g id="edge13" class="edge">
<title>SharedModule&#45;&gt;NavbarComponent </title>
<path fill="none" stroke="#000000" stroke-dasharray="5,2" d="M456.6809,-178C376.4526,-178 226.537,-178 226.537,-178 226.537,-178 226.537,-205.973 226.537,-205.973"/>
<polygon fill="#000000" stroke="#000000" points="223.0371,-205.973 226.537,-215.973 230.0371,-205.973 223.0371,-205.973"/>
</g>
<!-- SharedModule&#45;&gt;NavbarComponent  -->
<g id="edge14" class="edge">
<title>SharedModule&#45;&gt;NavbarComponent </title>
<path fill="none" stroke="#000000" stroke-dasharray="5,2" d="M456.7866,-174C370.691,-174 201.7983,-174 201.7983,-174 201.7983,-174 201.7983,-205.998 201.7983,-205.998"/>
<polygon fill="#000000" stroke="#000000" points="198.2984,-205.998 201.7983,-215.998 205.2984,-205.9981 198.2984,-205.998"/>
</g>
<!-- StarComponent  -->
<g id="node15" class="node">
<title>StarComponent </title>
<polygon fill="#fb8072" stroke="#000000" points="131.8815,-252 24.1185,-252 24.1185,-216 131.8815,-216 131.8815,-252"/>
<text text-anchor="middle" x="78" y="-229.8" font-family="Times,serif" font-size="14.00" fill="#000000">StarComponent </text>
</g>
<!-- SharedModule&#45;&gt;StarComponent  -->
<g id="edge15" class="edge">
<title>SharedModule&#45;&gt;StarComponent </title>
<path fill="none" stroke="#000000" stroke-dasharray="5,2" d="M456.5024,-169C343.8795,-169 78.1517,-169 78.1517,-169 78.1517,-169 78.1517,-205.8939 78.1517,-205.8939"/>
<polygon fill="#000000" stroke="#000000" points="74.6517,-205.8938 78.1517,-215.8939 81.6517,-205.8939 74.6517,-205.8938"/>
</g>
<!-- AppRoutingModule -->
<g id="node8" class="node">
<title>AppRoutingModule</title>
<polygon fill="#8dd3c7" stroke="#000000" points="153.2744,-122 150.2744,-126 129.2744,-126 126.2744,-122 24.7256,-122 24.7256,-86 153.2744,-86 153.2744,-122"/>
<text text-anchor="middle" x="89" y="-99.8" font-family="Times,serif" font-size="14.00" fill="#000000">AppRoutingModule</text>
</g>
<!-- AppRoutingModule&#45;&gt;SharedModule -->
<g id="edge7" class="edge">
<title>AppRoutingModule&#45;&gt;SharedModule</title>
<path fill="none" stroke="#000000" d="M140.838,-122.302C140.838,-140.2699 140.838,-165 140.838,-165 140.838,-165 446.7526,-165 446.7526,-165"/>
<polygon fill="#000000" stroke="#000000" points="446.7527,-168.5001 456.7526,-165 446.7526,-161.5001 446.7527,-168.5001"/>
</g>
</g>
</svg>
