<?xml version="1.0" encoding="UTF-8" standalone="no"?>
<!DOCTYPE svg PUBLIC "-//W3C//DTD SVG 1.1//EN"
 "http://www.w3.org/Graphics/SVG/1.1/DTD/svg11.dtd">
<!-- Generated by graphviz version 2.40.1 (20161225.0304)
 -->
<!-- Title: dependencies Pages: 1 -->
<svg width="902pt" height="284pt"
 viewBox="0.00 0.00 902.00 284.00" xmlns="http://www.w3.org/2000/svg" xmlns:xlink="http://www.w3.org/1999/xlink">
<g id="graph0" class="graph" transform="scale(1 1) rotate(0) translate(4 280)">
<title>dependencies</title>
<polygon fill="#ffffff" stroke="transparent" points="-4,4 -4,-280 898,-280 898,4 -4,4"/>
<text text-anchor="start" x="426.0091" y="-42.4" font-family="sans-serif" font-weight="bold" font-size="14.00" fill="#000000">Legend</text>
<polygon fill="#ffffb3" stroke="transparent" points="213,-10 213,-30 233,-30 233,-10 213,-10"/>
<text text-anchor="start" x="236.629" y="-15.4" font-family="sans-serif" font-size="14.00" fill="#000000"> &#160;Declarations</text>
<polygon fill="#8dd3c7" stroke="transparent" points="326,-10 326,-30 346,-30 346,-10 326,-10"/>
<text text-anchor="start" x="349.7251" y="-15.4" font-family="sans-serif" font-size="14.00" fill="#000000"> &#160;Module</text>
<polygon fill="#80b1d3" stroke="transparent" points="412,-10 412,-30 432,-30 432,-10 412,-10"/>
<text text-anchor="start" x="435.7812" y="-15.4" font-family="sans-serif" font-size="14.00" fill="#000000"> &#160;Bootstrap</text>
<polygon fill="#fdb462" stroke="transparent" points="509,-10 509,-30 529,-30 529,-10 509,-10"/>
<text text-anchor="start" x="532.6732" y="-15.4" font-family="sans-serif" font-size="14.00" fill="#000000"> &#160;Providers</text>
<polygon fill="#fb8072" stroke="transparent" points="605,-10 605,-30 625,-30 625,-10 605,-10"/>
<text text-anchor="start" x="628.7258" y="-15.4" font-family="sans-serif" font-size="14.00" fill="#000000"> &#160;Exports</text>
<g id="clust1" class="cluster">
<title>cluster_SharedModule</title>
<polygon fill="none" stroke="#000000" stroke-dasharray="1,5" points="8,-70 8,-268 886,-268 886,-70 8,-70"/>
</g>
<g id="clust2" class="cluster">
<title>cluster_SharedModule_declarations</title>
<polygon fill="none" stroke="#000000" points="168,-78 168,-130 878,-130 878,-78 168,-78"/>
</g>
<g id="clust8" class="cluster">
<title>cluster_SharedModule_imports</title>
<polygon fill="none" stroke="#000000" points="16,-78 16,-130 160,-130 160,-78 16,-78"/>
</g>
<g id="clust9" class="cluster">
<title>cluster_SharedModule_exports</title>
<polygon fill="none" stroke="#000000" points="86,-208 86,-260 814,-260 814,-208 86,-208"/>
</g>
<!-- CommentsComponent -->
<g id="node1" class="node">
<title>CommentsComponent</title>
<polygon fill="#ffffb3" stroke="#000000" points="870,-122 728,-122 728,-86 870,-86 870,-122"/>
<text text-anchor="middle" x="799" y="-99.8" font-family="Times,serif" font-size="14.00" fill="#000000">CommentsComponent</text>
</g>
<!-- SharedModule -->
<g id="node6" class="node">
<title>SharedModule</title>
<polygon fill="#8dd3c7" stroke="#000000" points="471.4231,-187 468.4231,-191 447.4231,-191 444.4231,-187 372.5769,-187 372.5769,-151 471.4231,-151 471.4231,-187"/>
<text text-anchor="middle" x="422" y="-164.8" font-family="Times,serif" font-size="14.00" fill="#000000">SharedModule</text>
</g>
<!-- CommentsComponent&#45;&gt;SharedModule -->
<g id="edge1" class="edge">
<title>CommentsComponent&#45;&gt;SharedModule</title>
<path fill="none" stroke="#000000" d="M766.875,-122.2667C766.875,-140.5552 766.875,-166 766.875,-166 766.875,-166 481.4122,-166 481.4122,-166"/>
<polygon fill="#000000" stroke="#000000" points="481.4122,-162.5001 471.4122,-166 481.4121,-169.5001 481.4122,-162.5001"/>
</g>
<!-- DropdownComponent -->
<g id="node2" class="node">
<title>DropdownComponent</title>
<polygon fill="#ffffb3" stroke="#000000" points="709.7064,-122 568.2936,-122 568.2936,-86 709.7064,-86 709.7064,-122"/>
<text text-anchor="middle" x="639" y="-99.8" font-family="Times,serif" font-size="14.00" fill="#000000">DropdownComponent</text>
</g>
<!-- DropdownComponent&#45;&gt;SharedModule -->
<g id="edge2" class="edge">
<title>DropdownComponent&#45;&gt;SharedModule</title>
<path fill="none" stroke="#000000" d="M605.375,-122.0091C605.375,-138.0494 605.375,-159 605.375,-159 605.375,-159 481.6239,-159 481.6239,-159"/>
<polygon fill="#000000" stroke="#000000" points="481.624,-155.5001 471.6239,-159 481.6239,-162.5001 481.624,-155.5001"/>
</g>
<!-- LikesComponent -->
<g id="node3" class="node">
<title>LikesComponent</title>
<polygon fill="#ffffb3" stroke="#000000" points="550.4356,-122 437.5644,-122 437.5644,-86 550.4356,-86 550.4356,-122"/>
<text text-anchor="middle" x="494" y="-99.8" font-family="Times,serif" font-size="14.00" fill="#000000">LikesComponent</text>
</g>
<!-- LikesComponent&#45;&gt;SharedModule -->
<g id="edge3" class="edge">
<title>LikesComponent&#45;&gt;SharedModule</title>
<path fill="none" stroke="#000000" d="M454.4969,-122.1061C454.4969,-122.1061 454.4969,-140.991 454.4969,-140.991"/>
<polygon fill="#000000" stroke="#000000" points="450.9969,-140.9909 454.4969,-150.991 457.9969,-140.991 450.9969,-140.9909"/>
</g>
<!-- NavbarComponent -->
<g id="node4" class="node">
<title>NavbarComponent</title>
<polygon fill="#ffffb3" stroke="#000000" points="420.0297,-122 297.9703,-122 297.9703,-86 420.0297,-86 420.0297,-122"/>
<text text-anchor="middle" x="359" y="-99.8" font-family="Times,serif" font-size="14.00" fill="#000000">NavbarComponent</text>
</g>
<!-- NavbarComponent&#45;&gt;SharedModule -->
<g id="edge4" class="edge">
<title>NavbarComponent&#45;&gt;SharedModule</title>
<path fill="none" stroke="#000000" d="M396.5267,-122.1061C396.5267,-122.1061 396.5267,-140.991 396.5267,-140.991"/>
<polygon fill="#000000" stroke="#000000" points="393.0267,-140.9909 396.5267,-150.991 400.0267,-140.991 393.0267,-140.9909"/>
</g>
<!-- StarComponent -->
<g id="node5" class="node">
<title>StarComponent</title>
<polygon fill="#ffffb3" stroke="#000000" points="279.8809,-122 176.1191,-122 176.1191,-86 279.8809,-86 279.8809,-122"/>
<text text-anchor="middle" x="228" y="-99.8" font-family="Times,serif" font-size="14.00" fill="#000000">StarComponent</text>
</g>
<!-- StarComponent&#45;&gt;SharedModule -->
<g id="edge5" class="edge">
<title>StarComponent&#45;&gt;SharedModule</title>
<path fill="none" stroke="#000000" d="M249.963,-122.0091C249.963,-138.0494 249.963,-159 249.963,-159 249.963,-159 362.7011,-159 362.7011,-159"/>
<polygon fill="#000000" stroke="#000000" points="362.7011,-162.5001 372.7011,-159 362.7011,-155.5001 362.7011,-162.5001"/>
</g>
<!-- CommentsComponent  -->
<g id="node8" class="node">
<title>CommentsComponent </title>
<polygon fill="#fb8072" stroke="#000000" points="806.0009,-252 659.9991,-252 659.9991,-216 806.0009,-216 806.0009,-252"/>
<text text-anchor="middle" x="733" y="-229.8" font-family="Times,serif" font-size="14.00" fill="#000000">CommentsComponent </text>
</g>
<!-- SharedModule&#45;&gt;CommentsComponent  -->
<g id="edge7" class="edge">
<title>SharedModule&#45;&gt;CommentsComponent </title>
<path fill="none" stroke="#000000" stroke-dasharray="5,2" d="M471.4545,-173C547.6179,-173 684.9266,-173 684.9266,-173 684.9266,-173 684.9266,-205.698 684.9266,-205.698"/>
<polygon fill="#000000" stroke="#000000" points="681.4266,-205.698 684.9266,-215.698 688.4266,-205.698 681.4266,-205.698"/>
</g>
<!-- DropdownComponent  -->
<g id="node9" class="node">
<title>DropdownComponent </title>
<polygon fill="#fb8072" stroke="#000000" points="642.2065,-252 497.7935,-252 497.7935,-216 642.2065,-216 642.2065,-252"/>
<text text-anchor="middle" x="570" y="-229.8" font-family="Times,serif" font-size="14.00" fill="#000000">DropdownComponent </text>
</g>
<!-- SharedModule&#45;&gt;DropdownComponent  -->
<g id="edge8" class="edge">
<title>SharedModule&#45;&gt;DropdownComponent </title>
<path fill="none" stroke="#000000" stroke-dasharray="5,2" d="M471.4731,-180C497.444,-180 523.9322,-180 523.9322,-180 523.9322,-180 523.9322,-205.7181 523.9322,-205.7181"/>
<polygon fill="#000000" stroke="#000000" points="520.4322,-205.718 523.9322,-215.7181 527.4322,-205.7181 520.4322,-205.718"/>
</g>
<!-- LikesComponent  -->
<g id="node10" class="node">
<title>LikesComponent </title>
<polygon fill="#fb8072" stroke="#000000" points="479.9348,-252 364.0652,-252 364.0652,-216 479.9348,-216 479.9348,-252"/>
<text text-anchor="middle" x="422" y="-229.8" font-family="Times,serif" font-size="14.00" fill="#000000">LikesComponent </text>
</g>
<!-- SharedModule&#45;&gt;LikesComponent  -->
<g id="edge9" class="edge">
<title>SharedModule&#45;&gt;LikesComponent </title>
<path fill="none" stroke="#000000" stroke-dasharray="5,2" d="M422,-187.1061C422,-187.1061 422,-205.991 422,-205.991"/>
<polygon fill="#000000" stroke="#000000" points="418.5001,-205.9909 422,-215.991 425.5001,-205.991 418.5001,-205.9909"/>
</g>
<!-- NavbarComponent  -->
<g id="node11" class="node">
<title>NavbarComponent </title>
<polygon fill="#fb8072" stroke="#000000" points="346.0288,-252 219.9712,-252 219.9712,-216 346.0288,-216 346.0288,-252"/>
<text text-anchor="middle" x="283" y="-229.8" font-family="Times,serif" font-size="14.00" fill="#000000">NavbarComponent </text>
</g>
<!-- SharedModule&#45;&gt;NavbarComponent  -->
<g id="edge10" class="edge">
<title>SharedModule&#45;&gt;NavbarComponent </title>
<path fill="none" stroke="#000000" stroke-dasharray="5,2" d="M372.5242,-180C347.2989,-180 321.875,-180 321.875,-180 321.875,-180 321.875,-205.7181 321.875,-205.7181"/>
<polygon fill="#000000" stroke="#000000" points="318.3751,-205.718 321.875,-215.7181 325.3751,-205.7181 318.3751,-205.718"/>
</g>
<!-- StarComponent  -->
<g id="node12" class="node">
<title>StarComponent </title>
<polygon fill="#fb8072" stroke="#000000" points="201.8815,-252 94.1185,-252 94.1185,-216 201.8815,-216 201.8815,-252"/>
<text text-anchor="middle" x="148" y="-229.8" font-family="Times,serif" font-size="14.00" fill="#000000">StarComponent </text>
</g>
<!-- SharedModule&#45;&gt;StarComponent  -->
<g id="edge11" class="edge">
<title>SharedModule&#45;&gt;StarComponent </title>
<path fill="none" stroke="#000000" stroke-dasharray="5,2" d="M372.5602,-173C304.1284,-173 188.875,-173 188.875,-173 188.875,-173 188.875,-205.698 188.875,-205.698"/>
<polygon fill="#000000" stroke="#000000" points="185.3751,-205.698 188.875,-215.698 192.3751,-205.698 185.3751,-205.698"/>
</g>
<!-- AppRoutingModule -->
<g id="node7" class="node">
<title>AppRoutingModule</title>
<polygon fill="#8dd3c7" stroke="#000000" points="152.2744,-122 149.2744,-126 128.2744,-126 125.2744,-122 23.7256,-122 23.7256,-86 152.2744,-86 152.2744,-122"/>
<text text-anchor="middle" x="88" y="-99.8" font-family="Times,serif" font-size="14.00" fill="#000000">AppRoutingModule</text>
</g>
<!-- AppRoutingModule&#45;&gt;SharedModule -->
<g id="edge6" class="edge">
<title>AppRoutingModule&#45;&gt;SharedModule</title>
<path fill="none" stroke="#000000" d="M123.3483,-122.2667C123.3483,-140.5552 123.3483,-166 123.3483,-166 123.3483,-166 362.6838,-166 362.6838,-166"/>
<polygon fill="#000000" stroke="#000000" points="362.6838,-169.5001 372.6838,-166 362.6837,-162.5001 362.6838,-169.5001"/>
</g>
</g>
</svg>
