<?xml version="1.0" encoding="UTF-8" standalone="no"?>
<!DOCTYPE svg PUBLIC "-//W3C//DTD SVG 1.1//EN"
 "http://www.w3.org/Graphics/SVG/1.1/DTD/svg11.dtd">
<!-- Generated by graphviz version 2.40.1 (20161225.0304)
 -->
<!-- Title: dependencies Pages: 1 -->
<svg width="504pt" height="284pt"
 viewBox="0.00 0.00 504.00 284.00" xmlns="http://www.w3.org/2000/svg" xmlns:xlink="http://www.w3.org/1999/xlink">
<g id="graph0" class="graph" transform="scale(1 1) rotate(0) translate(4 280)">
<title>dependencies</title>
<polygon fill="#ffffff" stroke="transparent" points="-4,4 -4,-280 500,-280 500,4 -4,4"/>
<text text-anchor="start" x="227.0091" y="-42.4" font-family="sans-serif" font-weight="bold" font-size="14.00" fill="#000000">Legend</text>
<polygon fill="#ffffb3" stroke="transparent" points="14,-10 14,-30 34,-30 34,-10 14,-10"/>
<text text-anchor="start" x="37.629" y="-15.4" font-family="sans-serif" font-size="14.00" fill="#000000"> &#160;Declarations</text>
<polygon fill="#8dd3c7" stroke="transparent" points="127,-10 127,-30 147,-30 147,-10 127,-10"/>
<text text-anchor="start" x="150.7251" y="-15.4" font-family="sans-serif" font-size="14.00" fill="#000000"> &#160;Module</text>
<polygon fill="#80b1d3" stroke="transparent" points="213,-10 213,-30 233,-30 233,-10 213,-10"/>
<text text-anchor="start" x="236.7812" y="-15.4" font-family="sans-serif" font-size="14.00" fill="#000000"> &#160;Bootstrap</text>
<polygon fill="#fdb462" stroke="transparent" points="310,-10 310,-30 330,-30 330,-10 310,-10"/>
<text text-anchor="start" x="333.6732" y="-15.4" font-family="sans-serif" font-size="14.00" fill="#000000"> &#160;Providers</text>
<polygon fill="#fb8072" stroke="transparent" points="406,-10 406,-30 426,-30 426,-10 406,-10"/>
<text text-anchor="start" x="429.7258" y="-15.4" font-family="sans-serif" font-size="14.00" fill="#000000"> &#160;Exports</text>
<g id="clust1" class="cluster">
<title>cluster_SharedModule</title>
<polygon fill="none" stroke="#000000" stroke-dasharray="1,5" points="94,-70 94,-268 402,-268 402,-70 94,-70"/>
</g>
<g id="clust2" class="cluster">
<title>cluster_SharedModule_declarations</title>
<polygon fill="none" stroke="#000000" points="254,-78 254,-130 392,-130 392,-78 254,-78"/>
</g>
<g id="clust4" class="cluster">
<title>cluster_SharedModule_imports</title>
<polygon fill="none" stroke="#000000" points="102,-78 102,-130 246,-130 246,-78 102,-78"/>
</g>
<g id="clust5" class="cluster">
<title>cluster_SharedModule_exports</title>
<polygon fill="none" stroke="#000000" points="102,-208 102,-260 394,-260 394,-208 102,-208"/>
</g>
<!-- NavbarComponent -->
<g id="node1" class="node">
<title>NavbarComponent</title>
<polygon fill="#ffffb3" stroke="#000000" points="384.0297,-122 261.9703,-122 261.9703,-86 384.0297,-86 384.0297,-122"/>
<text text-anchor="middle" x="323" y="-99.8" font-family="Times,serif" font-size="14.00" fill="#000000">NavbarComponent</text>
</g>
<!-- SharedModule -->
<g id="node2" class="node">
<title>SharedModule</title>
<polygon fill="#8dd3c7" stroke="#000000" points="223.4231,-187 220.4231,-191 199.4231,-191 196.4231,-187 124.5769,-187 124.5769,-151 223.4231,-151 223.4231,-187"/>
<text text-anchor="middle" x="174" y="-164.8" font-family="Times,serif" font-size="14.00" fill="#000000">SharedModule</text>
</g>
<!-- NavbarComponent&#45;&gt;SharedModule -->
<g id="edge1" class="edge">
<title>NavbarComponent&#45;&gt;SharedModule</title>
<path fill="none" stroke="#000000" d="M323,-122.0225C323,-139.3734 323,-163 323,-163 323,-163 233.6148,-163 233.6148,-163"/>
<polygon fill="#000000" stroke="#000000" points="233.6149,-159.5001 223.6148,-163 233.6148,-166.5001 233.6149,-159.5001"/>
</g>
<!-- AppRoutingModule  -->
<g id="node4" class="node">
<title>AppRoutingModule </title>
<polygon fill="#fb8072" stroke="#000000" points="386.2745,-252 253.7255,-252 253.7255,-216 386.2745,-216 386.2745,-252"/>
<text text-anchor="middle" x="320" y="-229.8" font-family="Times,serif" font-size="14.00" fill="#000000">AppRoutingModule </text>
</g>
<!-- SharedModule&#45;&gt;AppRoutingModule  -->
<g id="edge3" class="edge">
<title>SharedModule&#45;&gt;AppRoutingModule </title>
<path fill="none" stroke="#000000" stroke-dasharray="5,2" d="M223.2311,-175C241.4718,-175 257.7993,-175 257.7993,-175 257.7993,-175 257.7993,-205.9775 257.7993,-205.9775"/>
<polygon fill="#000000" stroke="#000000" points="254.2993,-205.9774 257.7993,-215.9775 261.2993,-205.9775 254.2993,-205.9774"/>
</g>
<!-- NavbarComponent  -->
<g id="node5" class="node">
<title>NavbarComponent </title>
<polygon fill="#fb8072" stroke="#000000" points="236.0288,-252 109.9712,-252 109.9712,-216 236.0288,-216 236.0288,-252"/>
<text text-anchor="middle" x="173" y="-229.8" font-family="Times,serif" font-size="14.00" fill="#000000">NavbarComponent </text>
</g>
<!-- SharedModule&#45;&gt;NavbarComponent  -->
<g id="edge4" class="edge">
<title>SharedModule&#45;&gt;NavbarComponent </title>
<path fill="none" stroke="#000000" stroke-dasharray="5,2" d="M157.5963,-187.1061C157.5963,-187.1061 157.5963,-205.991 157.5963,-205.991"/>
<polygon fill="#000000" stroke="#000000" points="154.0964,-205.9909 157.5963,-215.991 161.0964,-205.991 154.0964,-205.9909"/>
</g>
<!-- SharedModule&#45;&gt;NavbarComponent  -->
<g id="edge5" class="edge">
<title>SharedModule&#45;&gt;NavbarComponent </title>
<path fill="none" stroke="#000000" stroke-dasharray="5,2" d="M190.4037,-187.1061C190.4037,-187.1061 190.4037,-205.991 190.4037,-205.991"/>
<polygon fill="#000000" stroke="#000000" points="186.9038,-205.9909 190.4037,-215.991 193.9038,-205.991 186.9038,-205.9909"/>
</g>
<!-- AppRoutingModule -->
<g id="node3" class="node">
<title>AppRoutingModule</title>
<polygon fill="#8dd3c7" stroke="#000000" points="238.2744,-122 235.2744,-126 214.2744,-126 211.2744,-122 109.7256,-122 109.7256,-86 238.2744,-86 238.2744,-122"/>
<text text-anchor="middle" x="174" y="-99.8" font-family="Times,serif" font-size="14.00" fill="#000000">AppRoutingModule</text>
</g>
<!-- AppRoutingModule&#45;&gt;SharedModule -->
<g id="edge2" class="edge">
<title>AppRoutingModule&#45;&gt;SharedModule</title>
<path fill="none" stroke="#000000" d="M174,-122.1061C174,-122.1061 174,-140.991 174,-140.991"/>
<polygon fill="#000000" stroke="#000000" points="170.5001,-140.9909 174,-150.991 177.5001,-140.991 170.5001,-140.9909"/>
</g>
</g>
</svg>
