<?xml version="1.0" encoding="UTF-8" standalone="no"?>
<!DOCTYPE svg PUBLIC "-//W3C//DTD SVG 1.1//EN"
 "http://www.w3.org/Graphics/SVG/1.1/DTD/svg11.dtd">
<!-- Generated by graphviz version 2.40.1 (20161225.0304)
 -->
<!-- Title: dependencies Pages: 1 -->
<svg width="504pt" height="284pt"
 viewBox="0.00 0.00 504.00 284.00" xmlns="http://www.w3.org/2000/svg" xmlns:xlink="http://www.w3.org/1999/xlink">
<g id="graph0" class="graph" transform="scale(1 1) rotate(0) translate(4 280)">
<title>dependencies</title>
<polygon fill="#ffffff" stroke="transparent" points="-4,4 -4,-280 500,-280 500,4 -4,4"/>
<text text-anchor="start" x="227.0091" y="-42.4" font-family="sans-serif" font-weight="bold" font-size="14.00" fill="#000000">Legend</text>
<polygon fill="#ffffb3" stroke="transparent" points="14,-10 14,-30 34,-30 34,-10 14,-10"/>
<text text-anchor="start" x="37.629" y="-15.4" font-family="sans-serif" font-size="14.00" fill="#000000"> &#160;Declarations</text>
<polygon fill="#8dd3c7" stroke="transparent" points="127,-10 127,-30 147,-30 147,-10 127,-10"/>
<text text-anchor="start" x="150.7251" y="-15.4" font-family="sans-serif" font-size="14.00" fill="#000000"> &#160;Module</text>
<polygon fill="#80b1d3" stroke="transparent" points="213,-10 213,-30 233,-30 233,-10 213,-10"/>
<text text-anchor="start" x="236.7812" y="-15.4" font-family="sans-serif" font-size="14.00" fill="#000000"> &#160;Bootstrap</text>
<polygon fill="#fdb462" stroke="transparent" points="310,-10 310,-30 330,-30 330,-10 310,-10"/>
<text text-anchor="start" x="333.6732" y="-15.4" font-family="sans-serif" font-size="14.00" fill="#000000"> &#160;Providers</text>
<polygon fill="#fb8072" stroke="transparent" points="406,-10 406,-30 426,-30 426,-10 406,-10"/>
<text text-anchor="start" x="429.7258" y="-15.4" font-family="sans-serif" font-size="14.00" fill="#000000"> &#160;Exports</text>
<g id="clust1" class="cluster">
<title>cluster_SharedModule</title>
<polygon fill="none" stroke="#000000" stroke-dasharray="1,5" points="25,-70 25,-268 471,-268 471,-70 25,-70"/>
</g>
<g id="clust2" class="cluster">
<title>cluster_SharedModule_declarations</title>
<polygon fill="none" stroke="#000000" points="39,-78 39,-130 459,-130 459,-78 39,-78"/>
</g>
<g id="clust7" class="cluster">
<title>cluster_SharedModule_exports</title>
<polygon fill="none" stroke="#000000" points="33,-208 33,-260 463,-260 463,-208 33,-208"/>
</g>
<!-- DropdownComponent -->
<g id="node1" class="node">
<title>DropdownComponent</title>
<polygon fill="#ffffb3" stroke="#000000" points="450.7064,-122 309.2936,-122 309.2936,-86 450.7064,-86 450.7064,-122"/>
<text text-anchor="middle" x="380" y="-99.8" font-family="Times,serif" font-size="14.00" fill="#000000">DropdownComponent</text>
</g>
<!-- SharedModule -->
<g id="node4" class="node">
<title>SharedModule</title>
<polygon fill="#8dd3c7" stroke="#000000" points="279.4231,-187 276.4231,-191 255.4231,-191 252.4231,-187 180.5769,-187 180.5769,-151 279.4231,-151 279.4231,-187"/>
<text text-anchor="middle" x="230" y="-164.8" font-family="Times,serif" font-size="14.00" fill="#000000">SharedModule</text>
</g>
<!-- DropdownComponent&#45;&gt;SharedModule -->
<g id="edge1" class="edge">
<title>DropdownComponent&#45;&gt;SharedModule</title>
<path fill="none" stroke="#000000" d="M403.951,-122.0225C403.951,-139.3734 403.951,-163 403.951,-163 403.951,-163 289.3821,-163 289.3821,-163"/>
<polygon fill="#000000" stroke="#000000" points="289.3821,-159.5001 279.3821,-163 289.3821,-166.5001 289.3821,-159.5001"/>
</g>
<!-- NavbarComponent -->
<g id="node2" class="node">
<title>NavbarComponent</title>
<polygon fill="#ffffb3" stroke="#000000" points="291.0297,-122 168.9703,-122 168.9703,-86 291.0297,-86 291.0297,-122"/>
<text text-anchor="middle" x="230" y="-99.8" font-family="Times,serif" font-size="14.00" fill="#000000">NavbarComponent</text>
</g>
<!-- NavbarComponent&#45;&gt;SharedModule -->
<g id="edge2" class="edge">
<title>NavbarComponent&#45;&gt;SharedModule</title>
<path fill="none" stroke="#000000" d="M230,-122.1061C230,-122.1061 230,-140.991 230,-140.991"/>
<polygon fill="#000000" stroke="#000000" points="226.5001,-140.9909 230,-150.991 233.5001,-140.991 226.5001,-140.9909"/>
</g>
<!-- StarComponent -->
<g id="node3" class="node">
<title>StarComponent</title>
<polygon fill="#ffffb3" stroke="#000000" points="150.8809,-122 47.1191,-122 47.1191,-86 150.8809,-86 150.8809,-122"/>
<text text-anchor="middle" x="99" y="-99.8" font-family="Times,serif" font-size="14.00" fill="#000000">StarComponent</text>
</g>
<!-- StarComponent&#45;&gt;SharedModule -->
<g id="edge3" class="edge">
<title>StarComponent&#45;&gt;SharedModule</title>
<path fill="none" stroke="#000000" d="M114.8135,-122.0225C114.8135,-139.3734 114.8135,-163 114.8135,-163 114.8135,-163 170.4821,-163 170.4821,-163"/>
<polygon fill="#000000" stroke="#000000" points="170.4821,-166.5001 180.4821,-163 170.482,-159.5001 170.4821,-166.5001"/>
</g>
<!-- DropdownComponent  -->
<g id="node5" class="node">
<title>DropdownComponent </title>
<polygon fill="#fb8072" stroke="#000000" points="455.2065,-252 310.7935,-252 310.7935,-216 455.2065,-216 455.2065,-252"/>
<text text-anchor="middle" x="383" y="-229.8" font-family="Times,serif" font-size="14.00" fill="#000000">DropdownComponent </text>
</g>
<!-- SharedModule&#45;&gt;DropdownComponent  -->
<g id="edge4" class="edge">
<title>SharedModule&#45;&gt;DropdownComponent </title>
<path fill="none" stroke="#000000" stroke-dasharray="5,2" d="M279.2171,-175C315.039,-175 357.299,-175 357.299,-175 357.299,-175 357.299,-205.9775 357.299,-205.9775"/>
<polygon fill="#000000" stroke="#000000" points="353.7991,-205.9774 357.299,-215.9775 360.7991,-205.9775 353.7991,-205.9774"/>
</g>
<!-- NavbarComponent  -->
<g id="node6" class="node">
<title>NavbarComponent </title>
<polygon fill="#fb8072" stroke="#000000" points="293.0288,-252 166.9712,-252 166.9712,-216 293.0288,-216 293.0288,-252"/>
<text text-anchor="middle" x="230" y="-229.8" font-family="Times,serif" font-size="14.00" fill="#000000">NavbarComponent </text>
</g>
<!-- SharedModule&#45;&gt;NavbarComponent  -->
<g id="edge5" class="edge">
<title>SharedModule&#45;&gt;NavbarComponent </title>
<path fill="none" stroke="#000000" stroke-dasharray="5,2" d="M230,-187.1061C230,-187.1061 230,-205.991 230,-205.991"/>
<polygon fill="#000000" stroke="#000000" points="226.5001,-205.9909 230,-215.991 233.5001,-205.991 226.5001,-205.9909"/>
</g>
<!-- StarComponent  -->
<g id="node7" class="node">
<title>StarComponent </title>
<polygon fill="#fb8072" stroke="#000000" points="148.8815,-252 41.1185,-252 41.1185,-216 148.8815,-216 148.8815,-252"/>
<text text-anchor="middle" x="95" y="-229.8" font-family="Times,serif" font-size="14.00" fill="#000000">StarComponent </text>
</g>
<!-- SharedModule&#45;&gt;StarComponent  -->
<g id="edge6" class="edge">
<title>SharedModule&#45;&gt;StarComponent </title>
<path fill="none" stroke="#000000" stroke-dasharray="5,2" d="M180.7779,-175C137.359,-175 80.9365,-175 80.9365,-175 80.9365,-175 80.9365,-205.9775 80.9365,-205.9775"/>
<polygon fill="#000000" stroke="#000000" points="77.4366,-205.9774 80.9365,-215.9775 84.4366,-205.9775 77.4366,-205.9774"/>
</g>
</g>
</svg>
