<?xml version="1.0" encoding="UTF-8" standalone="no"?>
<!DOCTYPE svg PUBLIC "-//W3C//DTD SVG 1.1//EN"
 "http://www.w3.org/Graphics/SVG/1.1/DTD/svg11.dtd">
<!-- Generated by graphviz version 2.40.1 (20161225.0304)
 -->
<!-- Title: dependencies Pages: 1 -->
<svg width="3380pt" height="284pt"
 viewBox="0.00 0.00 3380.00 284.00" xmlns="http://www.w3.org/2000/svg" xmlns:xlink="http://www.w3.org/1999/xlink">
<g id="graph0" class="graph" transform="scale(1 1) rotate(0) translate(4 280)">
<title>dependencies</title>
<polygon fill="#ffffff" stroke="transparent" points="-4,4 -4,-280 3376,-280 3376,4 -4,4"/>
<text text-anchor="start" x="1665.0091" y="-42.4" font-family="sans-serif" font-weight="bold" font-size="14.00" fill="#000000">Legend</text>
<polygon fill="#ffffb3" stroke="transparent" points="1452,-10 1452,-30 1472,-30 1472,-10 1452,-10"/>
<text text-anchor="start" x="1475.629" y="-15.4" font-family="sans-serif" font-size="14.00" fill="#000000"> &#160;Declarations</text>
<polygon fill="#8dd3c7" stroke="transparent" points="1565,-10 1565,-30 1585,-30 1585,-10 1565,-10"/>
<text text-anchor="start" x="1588.7251" y="-15.4" font-family="sans-serif" font-size="14.00" fill="#000000"> &#160;Module</text>
<polygon fill="#80b1d3" stroke="transparent" points="1651,-10 1651,-30 1671,-30 1671,-10 1651,-10"/>
<text text-anchor="start" x="1674.7812" y="-15.4" font-family="sans-serif" font-size="14.00" fill="#000000"> &#160;Bootstrap</text>
<polygon fill="#fdb462" stroke="transparent" points="1748,-10 1748,-30 1768,-30 1768,-10 1748,-10"/>
<text text-anchor="start" x="1771.6732" y="-15.4" font-family="sans-serif" font-size="14.00" fill="#000000"> &#160;Providers</text>
<polygon fill="#fb8072" stroke="transparent" points="1844,-10 1844,-30 1864,-30 1864,-10 1844,-10"/>
<text text-anchor="start" x="1867.7258" y="-15.4" font-family="sans-serif" font-size="14.00" fill="#000000"> &#160;Exports</text>
<g id="clust1" class="cluster">
<title>cluster_AppModule</title>
<polygon fill="none" stroke="#000000" stroke-dasharray="1,5" points="8,-70 8,-268 3364,-268 3364,-70 8,-70"/>
</g>
<g id="clust2" class="cluster">
<title>cluster_AppModule_declarations</title>
<polygon fill="none" stroke="#000000" points="919,-78 919,-130 3356,-130 3356,-78 919,-78"/>
</g>
<g id="clust19" class="cluster">
<title>cluster_AppModule_imports</title>
<polygon fill="none" stroke="#000000" points="650,-78 650,-130 911,-130 911,-78 650,-78"/>
</g>
<g id="clust21" class="cluster">
<title>cluster_AppModule_bootstrap</title>
<polygon fill="none" stroke="#000000" points="1745,-208 1745,-260 1869,-260 1869,-208 1745,-208"/>
</g>
<g id="clust22" class="cluster">
<title>cluster_AppModule_providers</title>
<polygon fill="none" stroke="#000000" points="16,-78 16,-130 642,-130 642,-78 16,-78"/>
</g>
<!-- AboutusComponent -->
<g id="node1" class="node">
<title>AboutusComponent</title>
<polygon fill="#ffffb3" stroke="#000000" points="3348.2744,-122 3219.7256,-122 3219.7256,-86 3348.2744,-86 3348.2744,-122"/>
<text text-anchor="middle" x="3284" y="-99.8" font-family="Times,serif" font-size="14.00" fill="#000000">AboutusComponent</text>
</g>
<!-- AppModule -->
<g id="node17" class="node">
<title>AppModule</title>
<polygon fill="#8dd3c7" stroke="#000000" points="1848.6571,-187 1845.6571,-191 1824.6571,-191 1821.6571,-187 1765.3429,-187 1765.3429,-151 1848.6571,-151 1848.6571,-187"/>
<text text-anchor="middle" x="1807" y="-164.8" font-family="Times,serif" font-size="14.00" fill="#000000">AppModule</text>
</g>
<!-- AboutusComponent&#45;&gt;AppModule -->
<g id="edge1" class="edge">
<title>AboutusComponent&#45;&gt;AppModule</title>
<path fill="none" stroke="#000000" d="M3284,-122.1532C3284,-145.7566 3284,-184 3284,-184 3284,-184 1858.8245,-184 1858.8245,-184"/>
<polygon fill="#000000" stroke="#000000" points="1858.8246,-180.5001 1848.8245,-184 1858.8245,-187.5001 1858.8246,-180.5001"/>
</g>
<!-- AccountSettingsComponent -->
<g id="node2" class="node">
<title>AccountSettingsComponent</title>
<polygon fill="#ffffb3" stroke="#000000" points="3201.8724,-122 3028.1276,-122 3028.1276,-86 3201.8724,-86 3201.8724,-122"/>
<text text-anchor="middle" x="3115" y="-99.8" font-family="Times,serif" font-size="14.00" fill="#000000">AccountSettingsComponent</text>
</g>
<!-- AccountSettingsComponent&#45;&gt;AppModule -->
<g id="edge2" class="edge">
<title>AccountSettingsComponent&#45;&gt;AppModule</title>
<path fill="none" stroke="#000000" d="M3115,-122.2479C3115,-145.0179 3115,-181 3115,-181 3115,-181 1858.6714,-181 1858.6714,-181"/>
<polygon fill="#000000" stroke="#000000" points="1858.6714,-177.5001 1848.6714,-181 1858.6713,-184.5001 1858.6714,-177.5001"/>
</g>
<!-- AppComponent -->
<g id="node3" class="node">
<title>AppComponent</title>
<polygon fill="#ffffb3" stroke="#000000" points="3009.9399,-122 2904.0601,-122 2904.0601,-86 3009.9399,-86 3009.9399,-122"/>
<text text-anchor="middle" x="2957" y="-99.8" font-family="Times,serif" font-size="14.00" fill="#000000">AppComponent</text>
</g>
<!-- AppComponent&#45;&gt;AppModule -->
<g id="edge3" class="edge">
<title>AppComponent&#45;&gt;AppModule</title>
<path fill="none" stroke="#000000" d="M2957,-122.2921C2957,-144.2057 2957,-178 2957,-178 2957,-178 1858.9501,-178 1858.9501,-178"/>
<polygon fill="#000000" stroke="#000000" points="1858.9501,-174.5001 1848.9501,-178 1858.9501,-181.5001 1858.9501,-174.5001"/>
</g>
<!-- BookInfoComponent -->
<g id="node4" class="node">
<title>BookInfoComponent</title>
<polygon fill="#ffffb3" stroke="#000000" points="2886.4902,-122 2751.5098,-122 2751.5098,-86 2886.4902,-86 2886.4902,-122"/>
<text text-anchor="middle" x="2819" y="-99.8" font-family="Times,serif" font-size="14.00" fill="#000000">BookInfoComponent</text>
</g>
<!-- BookInfoComponent&#45;&gt;AppModule -->
<g id="edge4" class="edge">
<title>BookInfoComponent&#45;&gt;AppModule</title>
<path fill="none" stroke="#000000" d="M2819,-122.2843C2819,-143.3211 2819,-175 2819,-175 2819,-175 1858.8766,-175 1858.8766,-175"/>
<polygon fill="#000000" stroke="#000000" points="1858.8766,-171.5001 1848.8766,-175 1858.8765,-178.5001 1858.8766,-171.5001"/>
</g>
<!-- FilterPipe -->
<g id="node5" class="node">
<title>FilterPipe</title>
<polygon fill="#ffffb3" stroke="#000000" points="2733.7177,-122 2662.2823,-122 2662.2823,-86 2733.7177,-86 2733.7177,-122"/>
<text text-anchor="middle" x="2698" y="-99.8" font-family="Times,serif" font-size="14.00" fill="#000000">FilterPipe</text>
</g>
<!-- FilterPipe&#45;&gt;AppModule -->
<g id="edge5" class="edge">
<title>FilterPipe&#45;&gt;AppModule</title>
<path fill="none" stroke="#000000" d="M2698,-122.2228C2698,-142.3652 2698,-172 2698,-172 2698,-172 1858.7797,-172 1858.7797,-172"/>
<polygon fill="#000000" stroke="#000000" points="1858.7797,-168.5001 1848.7797,-172 1858.7797,-175.5001 1858.7797,-168.5001"/>
</g>
<!-- FollowersComponent -->
<g id="node6" class="node">
<title>FollowersComponent</title>
<polygon fill="#ffffb3" stroke="#000000" points="2644.823,-122 2507.177,-122 2507.177,-86 2644.823,-86 2644.823,-122"/>
<text text-anchor="middle" x="2576" y="-99.8" font-family="Times,serif" font-size="14.00" fill="#000000">FollowersComponent</text>
</g>
<!-- FollowersComponent&#45;&gt;AppModule -->
<g id="edge6" class="edge">
<title>FollowersComponent&#45;&gt;AppModule</title>
<path fill="none" stroke="#000000" d="M2576,-122.1061C2576,-141.3391 2576,-169 2576,-169 2576,-169 1858.8909,-169 1858.8909,-169"/>
<polygon fill="#000000" stroke="#000000" points="1858.8909,-165.5001 1848.8909,-169 1858.8909,-172.5001 1858.8909,-165.5001"/>
</g>
<!-- FollowingComponent -->
<g id="node7" class="node">
<title>FollowingComponent</title>
<polygon fill="#ffffb3" stroke="#000000" points="2489.3934,-122 2350.6066,-122 2350.6066,-86 2489.3934,-86 2489.3934,-122"/>
<text text-anchor="middle" x="2420" y="-99.8" font-family="Times,serif" font-size="14.00" fill="#000000">FollowingComponent</text>
</g>
<!-- FollowingComponent&#45;&gt;AppModule -->
<g id="edge7" class="edge">
<title>FollowingComponent&#45;&gt;AppModule</title>
<path fill="none" stroke="#000000" d="M2420,-122.2667C2420,-140.5552 2420,-166 2420,-166 2420,-166 1859.134,-166 1859.134,-166"/>
<polygon fill="#000000" stroke="#000000" points="1859.134,-162.5001 1849.134,-166 1859.1339,-169.5001 1859.134,-162.5001"/>
</g>
<!-- ForgetPasswordComponent -->
<g id="node8" class="node">
<title>ForgetPasswordComponent</title>
<polygon fill="#ffffb3" stroke="#000000" points="2332.535,-122 2161.465,-122 2161.465,-86 2332.535,-86 2332.535,-122"/>
<text text-anchor="middle" x="2247" y="-99.8" font-family="Times,serif" font-size="14.00" fill="#000000">ForgetPasswordComponent</text>
</g>
<!-- ForgetPasswordComponent&#45;&gt;AppModule -->
<g id="edge8" class="edge">
<title>ForgetPasswordComponent&#45;&gt;AppModule</title>
<path fill="none" stroke="#000000" d="M2275.5891,-122.0225C2275.5891,-139.3734 2275.5891,-163 2275.5891,-163 2275.5891,-163 1858.9965,-163 1858.9965,-163"/>
<polygon fill="#000000" stroke="#000000" points="1858.9966,-159.5001 1848.9965,-163 1858.9965,-166.5001 1858.9966,-159.5001"/>
</g>
<!-- ForgetPasswordComponent&#45;&gt;AppModule -->
<g id="edge9" class="edge">
<title>ForgetPasswordComponent&#45;&gt;AppModule</title>
<path fill="none" stroke="#000000" d="M2218.4109,-122.027C2218.4109,-138.3976 2218.4109,-160 2218.4109,-160 2218.4109,-160 1858.7123,-160 1858.7123,-160"/>
<polygon fill="#000000" stroke="#000000" points="1858.7124,-156.5001 1848.7123,-160 1858.7123,-163.5001 1858.7124,-156.5001"/>
</g>
<!-- HomeComponent -->
<g id="node9" class="node">
<title>HomeComponent</title>
<polygon fill="#ffffb3" stroke="#000000" points="2142.5451,-122 2027.4549,-122 2027.4549,-86 2142.5451,-86 2142.5451,-122"/>
<text text-anchor="middle" x="2085" y="-99.8" font-family="Times,serif" font-size="14.00" fill="#000000">HomeComponent</text>
</g>
<!-- HomeComponent&#45;&gt;AppModule -->
<g id="edge10" class="edge">
<title>HomeComponent&#45;&gt;AppModule</title>
<path fill="none" stroke="#000000" d="M2085,-122.2396C2085,-137.5706 2085,-157 2085,-157 2085,-157 1858.9204,-157 1858.9204,-157"/>
<polygon fill="#000000" stroke="#000000" points="1858.9204,-153.5001 1848.9204,-157 1858.9204,-160.5001 1858.9204,-153.5001"/>
</g>
<!-- LogInComponent -->
<g id="node10" class="node">
<title>LogInComponent</title>
<polygon fill="#ffffb3" stroke="#000000" points="2008.5465,-122 1893.4535,-122 1893.4535,-86 2008.5465,-86 2008.5465,-122"/>
<text text-anchor="middle" x="1951" y="-99.8" font-family="Times,serif" font-size="14.00" fill="#000000">LogInComponent</text>
</g>
<!-- LogInComponent&#45;&gt;AppModule -->
<g id="edge11" class="edge">
<title>LogInComponent&#45;&gt;AppModule</title>
<path fill="none" stroke="#000000" d="M1951,-122.0511C1951,-136.373 1951,-154 1951,-154 1951,-154 1859.0379,-154 1859.0379,-154"/>
<polygon fill="#000000" stroke="#000000" points="1859.0379,-150.5001 1849.0379,-154 1859.0378,-157.5001 1859.0379,-150.5001"/>
</g>
<!-- MyBooksComponent -->
<g id="node11" class="node">
<title>MyBooksComponent</title>
<polygon fill="#ffffb3" stroke="#000000" points="1875.0589,-122 1738.9411,-122 1738.9411,-86 1875.0589,-86 1875.0589,-122"/>
<text text-anchor="middle" x="1807" y="-99.8" font-family="Times,serif" font-size="14.00" fill="#000000">MyBooksComponent</text>
</g>
<!-- MyBooksComponent&#45;&gt;AppModule -->
<g id="edge12" class="edge">
<title>MyBooksComponent&#45;&gt;AppModule</title>
<path fill="none" stroke="#000000" d="M1807,-122.1061C1807,-122.1061 1807,-140.991 1807,-140.991"/>
<polygon fill="#000000" stroke="#000000" points="1803.5001,-140.9909 1807,-150.991 1810.5001,-140.991 1803.5001,-140.9909"/>
</g>
<!-- PageNotFoundComponent -->
<g id="node12" class="node">
<title>PageNotFoundComponent</title>
<polygon fill="#ffffb3" stroke="#000000" points="1720.8243,-122 1555.1757,-122 1555.1757,-86 1720.8243,-86 1720.8243,-122"/>
<text text-anchor="middle" x="1638" y="-99.8" font-family="Times,serif" font-size="14.00" fill="#000000">PageNotFoundComponent</text>
</g>
<!-- PageNotFoundComponent&#45;&gt;AppModule -->
<g id="edge13" class="edge">
<title>PageNotFoundComponent&#45;&gt;AppModule</title>
<path fill="none" stroke="#000000" d="M1638,-122.0511C1638,-136.373 1638,-154 1638,-154 1638,-154 1755.2247,-154 1755.2247,-154"/>
<polygon fill="#000000" stroke="#000000" points="1755.2247,-157.5001 1765.2247,-154 1755.2247,-150.5001 1755.2247,-157.5001"/>
</g>
<!-- ProfileComponent -->
<g id="node13" class="node">
<title>ProfileComponent</title>
<polygon fill="#ffffb3" stroke="#000000" points="1537.9328,-122 1418.0672,-122 1418.0672,-86 1537.9328,-86 1537.9328,-122"/>
<text text-anchor="middle" x="1478" y="-99.8" font-family="Times,serif" font-size="14.00" fill="#000000">ProfileComponent</text>
</g>
<!-- ProfileComponent&#45;&gt;AppModule -->
<g id="edge14" class="edge">
<title>ProfileComponent&#45;&gt;AppModule</title>
<path fill="none" stroke="#000000" d="M1478,-122.2396C1478,-137.5706 1478,-157 1478,-157 1478,-157 1755.3319,-157 1755.3319,-157"/>
<polygon fill="#000000" stroke="#000000" points="1755.332,-160.5001 1765.3319,-157 1755.3319,-153.5001 1755.332,-160.5001"/>
</g>
<!-- ReviewComponent -->
<g id="node14" class="node">
<title>ReviewComponent</title>
<polygon fill="#ffffb3" stroke="#000000" points="1400.0954,-122 1275.9046,-122 1275.9046,-86 1400.0954,-86 1400.0954,-122"/>
<text text-anchor="middle" x="1338" y="-99.8" font-family="Times,serif" font-size="14.00" fill="#000000">ReviewComponent</text>
</g>
<!-- ReviewComponent&#45;&gt;AppModule -->
<g id="edge15" class="edge">
<title>ReviewComponent&#45;&gt;AppModule</title>
<path fill="none" stroke="#000000" d="M1338,-122.027C1338,-138.3976 1338,-160 1338,-160 1338,-160 1754.9666,-160 1754.9666,-160"/>
<polygon fill="#000000" stroke="#000000" points="1754.9667,-163.5001 1764.9666,-160 1754.9666,-156.5001 1754.9667,-163.5001"/>
</g>
<!-- SearchBooksComponent -->
<g id="node15" class="node">
<title>SearchBooksComponent</title>
<polygon fill="#ffffb3" stroke="#000000" points="1257.7007,-122 1102.2993,-122 1102.2993,-86 1257.7007,-86 1257.7007,-122"/>
<text text-anchor="middle" x="1180" y="-99.8" font-family="Times,serif" font-size="14.00" fill="#000000">SearchBooksComponent</text>
</g>
<!-- SearchBooksComponent&#45;&gt;AppModule -->
<g id="edge16" class="edge">
<title>SearchBooksComponent&#45;&gt;AppModule</title>
<path fill="none" stroke="#000000" d="M1180,-122.0225C1180,-139.3734 1180,-163 1180,-163 1180,-163 1754.8872,-163 1754.8872,-163"/>
<polygon fill="#000000" stroke="#000000" points="1754.8872,-166.5001 1764.8872,-163 1754.8871,-159.5001 1754.8872,-166.5001"/>
</g>
<!-- SearchPeopleComponent -->
<g id="node16" class="node">
<title>SearchPeopleComponent</title>
<polygon fill="#ffffb3" stroke="#000000" points="1084.5225,-122 927.4775,-122 927.4775,-86 1084.5225,-86 1084.5225,-122"/>
<text text-anchor="middle" x="1006" y="-99.8" font-family="Times,serif" font-size="14.00" fill="#000000">SearchPeopleComponent</text>
</g>
<!-- SearchPeopleComponent&#45;&gt;AppModule -->
<g id="edge17" class="edge">
<title>SearchPeopleComponent&#45;&gt;AppModule</title>
<path fill="none" stroke="#000000" d="M1006,-122.2667C1006,-140.5552 1006,-166 1006,-166 1006,-166 1755.3424,-166 1755.3424,-166"/>
<polygon fill="#000000" stroke="#000000" points="1755.3425,-169.5001 1765.3424,-166 1755.3424,-162.5001 1755.3425,-169.5001"/>
</g>
<!-- AppComponent  -->
<g id="node20" class="node">
<title>AppComponent </title>
<polygon fill="#80b1d3" stroke="#000000" points="1861.439,-252 1752.561,-252 1752.561,-216 1861.439,-216 1861.439,-252"/>
<text text-anchor="middle" x="1807" y="-229.8" font-family="Times,serif" font-size="14.00" fill="#000000">AppComponent </text>
</g>
<!-- AppModule&#45;&gt;AppComponent  -->
<g id="edge20" class="edge">
<title>AppModule&#45;&gt;AppComponent </title>
<path fill="none" stroke="#000000" stroke-dasharray="1,5" d="M1807,-187.1061C1807,-187.1061 1807,-205.991 1807,-205.991"/>
<polygon fill="#000000" stroke="#000000" points="1803.5001,-205.9909 1807,-215.991 1810.5001,-205.991 1803.5001,-205.9909"/>
</g>
<!-- AppRoutingModule -->
<g id="node18" class="node">
<title>AppRoutingModule</title>
<polygon fill="#8dd3c7" stroke="#000000" points="903.2744,-122 900.2744,-126 879.2744,-126 876.2744,-122 774.7256,-122 774.7256,-86 903.2744,-86 903.2744,-122"/>
<text text-anchor="middle" x="839" y="-99.8" font-family="Times,serif" font-size="14.00" fill="#000000">AppRoutingModule</text>
</g>
<!-- AppRoutingModule&#45;&gt;AppModule -->
<g id="edge18" class="edge">
<title>AppRoutingModule&#45;&gt;AppModule</title>
<path fill="none" stroke="#000000" d="M839,-122.1061C839,-141.3391 839,-169 839,-169 839,-169 1755.0956,-169 1755.0956,-169"/>
<polygon fill="#000000" stroke="#000000" points="1755.0956,-172.5001 1765.0956,-169 1755.0955,-165.5001 1755.0956,-172.5001"/>
</g>
<!-- SharedModule -->
<g id="node19" class="node">
<title>SharedModule</title>
<polygon fill="#8dd3c7" stroke="#000000" points="756.4231,-122 753.4231,-126 732.4231,-126 729.4231,-122 657.5769,-122 657.5769,-86 756.4231,-86 756.4231,-122"/>
<text text-anchor="middle" x="707" y="-99.8" font-family="Times,serif" font-size="14.00" fill="#000000">SharedModule</text>
</g>
<!-- SharedModule&#45;&gt;AppModule -->
<g id="edge19" class="edge">
<title>SharedModule&#45;&gt;AppModule</title>
<path fill="none" stroke="#000000" d="M707,-122.2228C707,-142.3652 707,-172 707,-172 707,-172 1755.2219,-172 1755.2219,-172"/>
<polygon fill="#000000" stroke="#000000" points="1755.2219,-175.5001 1765.2219,-172 1755.2219,-168.5001 1755.2219,-175.5001"/>
</g>
<!-- AuthInterceptor -->
<g id="node21" class="node">
<title>AuthInterceptor</title>
<ellipse fill="#fdb462" stroke="#000000" cx="561" cy="-104" rx="72.9121" ry="18"/>
<text text-anchor="middle" x="561" y="-99.8" font-family="Times,serif" font-size="14.00" fill="#000000">AuthInterceptor</text>
</g>
<!-- AuthInterceptor&#45;&gt;AppModule -->
<g id="edge21" class="edge">
<title>AuthInterceptor&#45;&gt;AppModule</title>
<path fill="none" stroke="#000000" d="M561,-122.2843C561,-143.3211 561,-175 561,-175 561,-175 1755.1871,-175 1755.1871,-175"/>
<polygon fill="#000000" stroke="#000000" points="1755.1871,-178.5001 1765.1871,-175 1755.187,-171.5001 1755.1871,-178.5001"/>
</g>
<!-- HttpService -->
<g id="node22" class="node">
<title>HttpService</title>
<ellipse fill="#fdb462" stroke="#000000" cx="413" cy="-104" rx="57.3185" ry="18"/>
<text text-anchor="middle" x="413" y="-99.8" font-family="Times,serif" font-size="14.00" fill="#000000">HttpService</text>
</g>
<!-- HttpService&#45;&gt;AppModule -->
<g id="edge22" class="edge">
<title>HttpService&#45;&gt;AppModule</title>
<path fill="none" stroke="#000000" d="M413,-122.2921C413,-144.2057 413,-178 413,-178 413,-178 1755.2803,-178 1755.2803,-178"/>
<polygon fill="#000000" stroke="#000000" points="1755.2804,-181.5001 1765.2803,-178 1755.2803,-174.5001 1755.2804,-181.5001"/>
</g>
<!-- LogInHttpService -->
<g id="node23" class="node">
<title>LogInHttpService</title>
<ellipse fill="#fdb462" stroke="#000000" cx="257" cy="-104" rx="80.5181" ry="18"/>
<text text-anchor="middle" x="257" y="-99.8" font-family="Times,serif" font-size="14.00" fill="#000000">LogInHttpService</text>
</g>
<!-- LogInHttpService&#45;&gt;AppModule -->
<g id="edge23" class="edge">
<title>LogInHttpService&#45;&gt;AppModule</title>
<path fill="none" stroke="#000000" d="M257,-122.2479C257,-145.0179 257,-181 257,-181 257,-181 1755.1402,-181 1755.1402,-181"/>
<polygon fill="#000000" stroke="#000000" points="1755.1402,-184.5001 1765.1402,-181 1755.1402,-177.5001 1755.1402,-184.5001"/>
</g>
<!-- SharedService -->
<g id="node24" class="node">
<title>SharedService</title>
<ellipse fill="#fdb462" stroke="#000000" cx="91" cy="-104" rx="66.6113" ry="18"/>
<text text-anchor="middle" x="91" y="-99.8" font-family="Times,serif" font-size="14.00" fill="#000000">SharedService</text>
</g>
<!-- SharedService&#45;&gt;AppModule -->
<g id="edge24" class="edge">
<title>SharedService&#45;&gt;AppModule</title>
<path fill="none" stroke="#000000" d="M91,-122.1532C91,-145.7566 91,-184 91,-184 91,-184 1755.0079,-184 1755.0079,-184"/>
<polygon fill="#000000" stroke="#000000" points="1755.008,-187.5001 1765.0079,-184 1755.0079,-180.5001 1755.008,-187.5001"/>
</g>
</g>
</svg>
