<?xml version="1.0" encoding="UTF-8" standalone="no"?>
<!DOCTYPE svg PUBLIC "-//W3C//DTD SVG 1.1//EN"
 "http://www.w3.org/Graphics/SVG/1.1/DTD/svg11.dtd">
<!-- Generated by graphviz version 2.40.1 (20161225.0304)
 -->
<!-- Title: dependencies Pages: 1 -->
<svg width="2421pt" height="284pt"
 viewBox="0.00 0.00 2421.00 284.00" xmlns="http://www.w3.org/2000/svg" xmlns:xlink="http://www.w3.org/1999/xlink">
<g id="graph0" class="graph" transform="scale(1 1) rotate(0) translate(4 280)">
<title>dependencies</title>
<polygon fill="#ffffff" stroke="transparent" points="-4,4 -4,-280 2417,-280 2417,4 -4,4"/>
<text text-anchor="start" x="1185.5091" y="-42.4" font-family="sans-serif" font-weight="bold" font-size="14.00" fill="#000000">Legend</text>
<polygon fill="#ffffb3" stroke="transparent" points="972.5,-10 972.5,-30 992.5,-30 992.5,-10 972.5,-10"/>
<text text-anchor="start" x="996.129" y="-15.4" font-family="sans-serif" font-size="14.00" fill="#000000"> &#160;Declarations</text>
<polygon fill="#8dd3c7" stroke="transparent" points="1085.5,-10 1085.5,-30 1105.5,-30 1105.5,-10 1085.5,-10"/>
<text text-anchor="start" x="1109.2251" y="-15.4" font-family="sans-serif" font-size="14.00" fill="#000000"> &#160;Module</text>
<polygon fill="#80b1d3" stroke="transparent" points="1171.5,-10 1171.5,-30 1191.5,-30 1191.5,-10 1171.5,-10"/>
<text text-anchor="start" x="1195.2812" y="-15.4" font-family="sans-serif" font-size="14.00" fill="#000000"> &#160;Bootstrap</text>
<polygon fill="#fdb462" stroke="transparent" points="1268.5,-10 1268.5,-30 1288.5,-30 1288.5,-10 1268.5,-10"/>
<text text-anchor="start" x="1292.1732" y="-15.4" font-family="sans-serif" font-size="14.00" fill="#000000"> &#160;Providers</text>
<polygon fill="#fb8072" stroke="transparent" points="1364.5,-10 1364.5,-30 1384.5,-30 1384.5,-10 1364.5,-10"/>
<text text-anchor="start" x="1388.2258" y="-15.4" font-family="sans-serif" font-size="14.00" fill="#000000"> &#160;Exports</text>
<g id="clust1" class="cluster">
<title>cluster_AppModule</title>
<polygon fill="none" stroke="#000000" stroke-dasharray="1,5" points="8,-70 8,-268 2405,-268 2405,-70 8,-70"/>
</g>
<g id="clust2" class="cluster">
<title>cluster_AppModule_declarations</title>
<polygon fill="none" stroke="#000000" points="979,-78 979,-130 2397,-130 2397,-78 979,-78"/>
</g>
<g id="clust13" class="cluster">
<title>cluster_AppModule_imports</title>
<polygon fill="none" stroke="#000000" points="710,-78 710,-130 971,-130 971,-78 710,-78"/>
</g>
<g id="clust14" class="cluster">
<title>cluster_AppModule_exports</title>
<polygon fill="none" stroke="#000000" points="1189,-208 1189,-260 1279,-260 1279,-208 1189,-208"/>
</g>
<g id="clust15" class="cluster">
<title>cluster_AppModule_bootstrap</title>
<polygon fill="none" stroke="#000000" points="1287,-208 1287,-260 1411,-260 1411,-208 1287,-208"/>
</g>
<g id="clust16" class="cluster">
<title>cluster_AppModule_providers</title>
<polygon fill="none" stroke="#000000" points="16,-78 16,-130 702,-130 702,-78 16,-78"/>
</g>
<!-- AppComponent -->
<g id="node1" class="node">
<title>AppComponent</title>
<polygon fill="#ffffb3" stroke="#000000" points="2388.9399,-122 2283.0601,-122 2283.0601,-86 2388.9399,-86 2388.9399,-122"/>
<text text-anchor="middle" x="2336" y="-99.8" font-family="Times,serif" font-size="14.00" fill="#000000">AppComponent</text>
</g>
<!-- AppModule -->
<g id="node11" class="node">
<title>AppModule</title>
<polygon fill="#8dd3c7" stroke="#000000" points="1332.6571,-187 1329.6571,-191 1308.6571,-191 1305.6571,-187 1249.3429,-187 1249.3429,-151 1332.6571,-151 1332.6571,-187"/>
<text text-anchor="middle" x="1291" y="-164.8" font-family="Times,serif" font-size="14.00" fill="#000000">AppModule</text>
</g>
<!-- AppComponent&#45;&gt;AppModule -->
<g id="edge1" class="edge">
<title>AppComponent&#45;&gt;AppModule</title>
<path fill="none" stroke="#000000" d="M2336,-122.3228C2336,-145.6602 2336,-183 2336,-183 2336,-183 1342.9342,-183 1342.9342,-183"/>
<polygon fill="#000000" stroke="#000000" points="1342.9343,-179.5001 1332.9342,-183 1342.9342,-186.5001 1342.9343,-179.5001"/>
</g>
<!-- BookInfoComponent -->
<g id="node2" class="node">
<title>BookInfoComponent</title>
<polygon fill="#ffffb3" stroke="#000000" points="2265.4902,-122 2130.5098,-122 2130.5098,-86 2265.4902,-86 2265.4902,-122"/>
<text text-anchor="middle" x="2198" y="-99.8" font-family="Times,serif" font-size="14.00" fill="#000000">BookInfoComponent</text>
</g>
<!-- BookInfoComponent&#45;&gt;AppModule -->
<g id="edge2" class="edge">
<title>BookInfoComponent&#45;&gt;AppModule</title>
<path fill="none" stroke="#000000" d="M2198,-122.2921C2198,-144.2057 2198,-178 2198,-178 2198,-178 1342.9274,-178 1342.9274,-178"/>
<polygon fill="#000000" stroke="#000000" points="1342.9275,-174.5001 1332.9274,-178 1342.9274,-181.5001 1342.9275,-174.5001"/>
</g>
<!-- FilterPipe -->
<g id="node3" class="node">
<title>FilterPipe</title>
<polygon fill="#ffffb3" stroke="#000000" points="2112.7177,-122 2041.2823,-122 2041.2823,-86 2112.7177,-86 2112.7177,-122"/>
<text text-anchor="middle" x="2077" y="-99.8" font-family="Times,serif" font-size="14.00" fill="#000000">FilterPipe</text>
</g>
<!-- FilterPipe&#45;&gt;AppModule -->
<g id="edge3" class="edge">
<title>FilterPipe&#45;&gt;AppModule</title>
<path fill="none" stroke="#000000" d="M2077,-122.0267C2077,-142.7672 2077,-174 2077,-174 2077,-174 1342.7038,-174 1342.7038,-174"/>
<polygon fill="#000000" stroke="#000000" points="1342.7039,-170.5001 1332.7038,-174 1342.7038,-177.5001 1342.7039,-170.5001"/>
</g>
<!-- FollowersComponent -->
<g id="node4" class="node">
<title>FollowersComponent</title>
<polygon fill="#ffffb3" stroke="#000000" points="2023.823,-122 1886.177,-122 1886.177,-86 2023.823,-86 2023.823,-122"/>
<text text-anchor="middle" x="1955" y="-99.8" font-family="Times,serif" font-size="14.00" fill="#000000">FollowersComponent</text>
</g>
<!-- FollowersComponent&#45;&gt;AppModule -->
<g id="edge4" class="edge">
<title>FollowersComponent&#45;&gt;AppModule</title>
<path fill="none" stroke="#000000" d="M1955,-122.1061C1955,-141.3391 1955,-169 1955,-169 1955,-169 1342.7877,-169 1342.7877,-169"/>
<polygon fill="#000000" stroke="#000000" points="1342.7877,-165.5001 1332.7877,-169 1342.7877,-172.5001 1342.7877,-165.5001"/>
</g>
<!-- FollowingComponent -->
<g id="node5" class="node">
<title>FollowingComponent</title>
<polygon fill="#ffffb3" stroke="#000000" points="1868.3934,-122 1729.6066,-122 1729.6066,-86 1868.3934,-86 1868.3934,-122"/>
<text text-anchor="middle" x="1799" y="-99.8" font-family="Times,serif" font-size="14.00" fill="#000000">FollowingComponent</text>
</g>
<!-- FollowingComponent&#45;&gt;AppModule -->
<g id="edge5" class="edge">
<title>FollowingComponent&#45;&gt;AppModule</title>
<path fill="none" stroke="#000000" d="M1799,-122.302C1799,-140.2699 1799,-165 1799,-165 1799,-165 1343.004,-165 1343.004,-165"/>
<polygon fill="#000000" stroke="#000000" points="1343.004,-161.5001 1333.004,-165 1343.0039,-168.5001 1343.004,-161.5001"/>
</g>
<!-- HomeComponent -->
<g id="node6" class="node">
<title>HomeComponent</title>
<polygon fill="#ffffb3" stroke="#000000" points="1711.5451,-122 1596.4549,-122 1596.4549,-86 1711.5451,-86 1711.5451,-122"/>
<text text-anchor="middle" x="1654" y="-99.8" font-family="Times,serif" font-size="14.00" fill="#000000">HomeComponent</text>
</g>
<!-- HomeComponent&#45;&gt;AppModule -->
<g id="edge6" class="edge">
<title>HomeComponent&#45;&gt;AppModule</title>
<path fill="none" stroke="#000000" d="M1654,-122.027C1654,-138.3976 1654,-160 1654,-160 1654,-160 1342.9953,-160 1342.9953,-160"/>
<polygon fill="#000000" stroke="#000000" points="1342.9954,-156.5001 1332.9953,-160 1342.9953,-163.5001 1342.9954,-156.5001"/>
</g>
<!-- LogInComponent -->
<g id="node7" class="node">
<title>LogInComponent</title>
<polygon fill="#ffffb3" stroke="#000000" points="1577.5465,-122 1462.4535,-122 1462.4535,-86 1577.5465,-86 1577.5465,-122"/>
<text text-anchor="middle" x="1520" y="-99.8" font-family="Times,serif" font-size="14.00" fill="#000000">LogInComponent</text>
</g>
<!-- LogInComponent&#45;&gt;AppModule -->
<g id="edge7" class="edge">
<title>LogInComponent&#45;&gt;AppModule</title>
<path fill="none" stroke="#000000" d="M1520,-122.1871C1520,-137.1824 1520,-156 1520,-156 1520,-156 1342.7359,-156 1342.7359,-156"/>
<polygon fill="#000000" stroke="#000000" points="1342.7359,-152.5001 1332.7359,-156 1342.7358,-159.5001 1342.7359,-152.5001"/>
</g>
<!-- MyBooksComponent -->
<g id="node8" class="node">
<title>MyBooksComponent</title>
<polygon fill="#ffffb3" stroke="#000000" points="1444.0589,-122 1307.9411,-122 1307.9411,-86 1444.0589,-86 1444.0589,-122"/>
<text text-anchor="middle" x="1376" y="-99.8" font-family="Times,serif" font-size="14.00" fill="#000000">MyBooksComponent</text>
</g>
<!-- MyBooksComponent&#45;&gt;AppModule -->
<g id="edge8" class="edge">
<title>MyBooksComponent&#45;&gt;AppModule</title>
<path fill="none" stroke="#000000" d="M1320.2746,-122.1061C1320.2746,-122.1061 1320.2746,-140.991 1320.2746,-140.991"/>
<polygon fill="#000000" stroke="#000000" points="1316.7746,-140.9909 1320.2746,-150.991 1323.7746,-140.991 1316.7746,-140.9909"/>
</g>
<!-- PageNotFoundComponent -->
<g id="node9" class="node">
<title>PageNotFoundComponent</title>
<polygon fill="#ffffb3" stroke="#000000" points="1289.8243,-122 1124.1757,-122 1124.1757,-86 1289.8243,-86 1289.8243,-122"/>
<text text-anchor="middle" x="1207" y="-99.8" font-family="Times,serif" font-size="14.00" fill="#000000">PageNotFoundComponent</text>
</g>
<!-- PageNotFoundComponent&#45;&gt;AppModule -->
<g id="edge9" class="edge">
<title>PageNotFoundComponent&#45;&gt;AppModule</title>
<path fill="none" stroke="#000000" d="M1269.4169,-122.1061C1269.4169,-122.1061 1269.4169,-140.991 1269.4169,-140.991"/>
<polygon fill="#000000" stroke="#000000" points="1265.917,-140.9909 1269.4169,-150.991 1272.917,-140.991 1265.917,-140.9909"/>
</g>
<!-- ProfileComponent -->
<g id="node10" class="node">
<title>ProfileComponent</title>
<polygon fill="#ffffb3" stroke="#000000" points="1106.9328,-122 987.0672,-122 987.0672,-86 1106.9328,-86 1106.9328,-122"/>
<text text-anchor="middle" x="1047" y="-99.8" font-family="Times,serif" font-size="14.00" fill="#000000">ProfileComponent</text>
</g>
<!-- ProfileComponent&#45;&gt;AppModule -->
<g id="edge10" class="edge">
<title>ProfileComponent&#45;&gt;AppModule</title>
<path fill="none" stroke="#000000" d="M1047,-122.1871C1047,-137.1824 1047,-156 1047,-156 1047,-156 1239.3321,-156 1239.3321,-156"/>
<polygon fill="#000000" stroke="#000000" points="1239.3322,-159.5001 1249.3321,-156 1239.3321,-152.5001 1239.3322,-159.5001"/>
</g>
<!-- FilterPipe  -->
<g id="node14" class="node">
<title>FilterPipe </title>
<polygon fill="#fb8072" stroke="#000000" points="1271.2179,-252 1196.7821,-252 1196.7821,-216 1271.2179,-216 1271.2179,-252"/>
<text text-anchor="middle" x="1234" y="-229.8" font-family="Times,serif" font-size="14.00" fill="#000000">FilterPipe </text>
</g>
<!-- AppModule&#45;&gt;FilterPipe  -->
<g id="edge13" class="edge">
<title>AppModule&#45;&gt;FilterPipe </title>
<path fill="none" stroke="#000000" stroke-dasharray="5,2" d="M1260.2653,-187.1061C1260.2653,-187.1061 1260.2653,-205.991 1260.2653,-205.991"/>
<polygon fill="#000000" stroke="#000000" points="1256.7653,-205.9909 1260.2653,-215.991 1263.7653,-205.991 1256.7653,-205.9909"/>
</g>
<!-- AppComponent  -->
<g id="node15" class="node">
<title>AppComponent </title>
<polygon fill="#80b1d3" stroke="#000000" points="1403.439,-252 1294.561,-252 1294.561,-216 1403.439,-216 1403.439,-252"/>
<text text-anchor="middle" x="1349" y="-229.8" font-family="Times,serif" font-size="14.00" fill="#000000">AppComponent </text>
</g>
<!-- AppModule&#45;&gt;AppComponent  -->
<g id="edge14" class="edge">
<title>AppModule&#45;&gt;AppComponent </title>
<path fill="none" stroke="#000000" stroke-dasharray="1,5" d="M1313.6793,-187.1061C1313.6793,-187.1061 1313.6793,-205.991 1313.6793,-205.991"/>
<polygon fill="#000000" stroke="#000000" points="1310.1794,-205.9909 1313.6793,-215.991 1317.1794,-205.991 1310.1794,-205.9909"/>
</g>
<!-- AppRoutingModule -->
<g id="node12" class="node">
<title>AppRoutingModule</title>
<polygon fill="#8dd3c7" stroke="#000000" points="963.2744,-122 960.2744,-126 939.2744,-126 936.2744,-122 834.7256,-122 834.7256,-86 963.2744,-86 963.2744,-122"/>
<text text-anchor="middle" x="899" y="-99.8" font-family="Times,serif" font-size="14.00" fill="#000000">AppRoutingModule</text>
</g>
<!-- AppRoutingModule&#45;&gt;AppModule -->
<g id="edge11" class="edge">
<title>AppRoutingModule&#45;&gt;AppModule</title>
<path fill="none" stroke="#000000" d="M899,-122.027C899,-138.3976 899,-160 899,-160 899,-160 1239.0491,-160 1239.0491,-160"/>
<polygon fill="#000000" stroke="#000000" points="1239.0492,-163.5001 1249.0491,-160 1239.0491,-156.5001 1239.0492,-163.5001"/>
</g>
<!-- SharedModule -->
<g id="node13" class="node">
<title>SharedModule</title>
<polygon fill="#8dd3c7" stroke="#000000" points="816.4231,-122 813.4231,-126 792.4231,-126 789.4231,-122 717.5769,-122 717.5769,-86 816.4231,-86 816.4231,-122"/>
<text text-anchor="middle" x="767" y="-99.8" font-family="Times,serif" font-size="14.00" fill="#000000">SharedModule</text>
</g>
<!-- SharedModule&#45;&gt;AppModule -->
<g id="edge12" class="edge">
<title>SharedModule&#45;&gt;AppModule</title>
<path fill="none" stroke="#000000" d="M767,-122.302C767,-140.2699 767,-165 767,-165 767,-165 1239.0047,-165 1239.0047,-165"/>
<polygon fill="#000000" stroke="#000000" points="1239.0047,-168.5001 1249.0047,-165 1239.0046,-161.5001 1239.0047,-168.5001"/>
</g>
<!-- AuthInterceptor -->
<g id="node16" class="node">
<title>AuthInterceptor</title>
<ellipse fill="#fdb462" stroke="#000000" cx="621" cy="-104" rx="72.9121" ry="18"/>
<text text-anchor="middle" x="621" y="-99.8" font-family="Times,serif" font-size="14.00" fill="#000000">AuthInterceptor</text>
</g>
<!-- AuthInterceptor&#45;&gt;AppModule -->
<g id="edge15" class="edge">
<title>AuthInterceptor&#45;&gt;AppModule</title>
<path fill="none" stroke="#000000" d="M621,-122.1061C621,-141.3391 621,-169 621,-169 621,-169 1239.3416,-169 1239.3416,-169"/>
<polygon fill="#000000" stroke="#000000" points="1239.3417,-172.5001 1249.3416,-169 1239.3416,-165.5001 1239.3417,-172.5001"/>
</g>
<!-- HttpFollowingService -->
<g id="node17" class="node">
<title>HttpFollowingService</title>
<ellipse fill="#fdb462" stroke="#000000" cx="433" cy="-104" rx="96.7273" ry="18"/>
<text text-anchor="middle" x="433" y="-99.8" font-family="Times,serif" font-size="14.00" fill="#000000">HttpFollowingService</text>
</g>
<!-- HttpFollowingService&#45;&gt;AppModule -->
<g id="edge16" class="edge">
<title>HttpFollowingService&#45;&gt;AppModule</title>
<path fill="none" stroke="#000000" d="M433,-122.0267C433,-142.7672 433,-174 433,-174 433,-174 1239.3269,-174 1239.3269,-174"/>
<polygon fill="#000000" stroke="#000000" points="1239.327,-177.5001 1249.3269,-174 1239.3269,-170.5001 1239.327,-177.5001"/>
</g>
<!-- HttpService -->
<g id="node18" class="node">
<title>HttpService</title>
<ellipse fill="#fdb462" stroke="#000000" cx="261" cy="-104" rx="57.3185" ry="18"/>
<text text-anchor="middle" x="261" y="-99.8" font-family="Times,serif" font-size="14.00" fill="#000000">HttpService</text>
</g>
<!-- HttpService&#45;&gt;AppModule -->
<g id="edge17" class="edge">
<title>HttpService&#45;&gt;AppModule</title>
<path fill="none" stroke="#000000" d="M261,-122.2921C261,-144.2057 261,-178 261,-178 261,-178 1239.0254,-178 1239.0254,-178"/>
<polygon fill="#000000" stroke="#000000" points="1239.0254,-181.5001 1249.0254,-178 1239.0253,-174.5001 1239.0254,-181.5001"/>
</g>
<!-- LogInHttpService -->
<g id="node19" class="node">
<title>LogInHttpService</title>
<ellipse fill="#fdb462" stroke="#000000" cx="105" cy="-104" rx="80.5181" ry="18"/>
<text text-anchor="middle" x="105" y="-99.8" font-family="Times,serif" font-size="14.00" fill="#000000">LogInHttpService</text>
</g>
<!-- LogInHttpService&#45;&gt;AppModule -->
<g id="edge18" class="edge">
<title>LogInHttpService&#45;&gt;AppModule</title>
<path fill="none" stroke="#000000" d="M105,-122.3228C105,-145.6602 105,-183 105,-183 105,-183 1239.138,-183 1239.138,-183"/>
<polygon fill="#000000" stroke="#000000" points="1239.138,-186.5001 1249.138,-183 1239.138,-179.5001 1239.138,-186.5001"/>
</g>
</g>
</svg>
