<?xml version="1.0" encoding="UTF-8" standalone="no"?>
<!DOCTYPE svg PUBLIC "-//W3C//DTD SVG 1.1//EN"
 "http://www.w3.org/Graphics/SVG/1.1/DTD/svg11.dtd">
<!-- Generated by graphviz version 2.40.1 (20161225.0304)
 -->
<!-- Title: dependencies Pages: 1 -->
<svg width="2029pt" height="284pt"
 viewBox="0.00 0.00 2029.00 284.00" xmlns="http://www.w3.org/2000/svg" xmlns:xlink="http://www.w3.org/1999/xlink">
<g id="graph0" class="graph" transform="scale(1 1) rotate(0) translate(4 280)">
<title>dependencies</title>
<polygon fill="#ffffff" stroke="transparent" points="-4,4 -4,-280 2025,-280 2025,4 -4,4"/>
<text text-anchor="start" x="989.5091" y="-42.4" font-family="sans-serif" font-weight="bold" font-size="14.00" fill="#000000">Legend</text>
<polygon fill="#ffffb3" stroke="transparent" points="776.5,-10 776.5,-30 796.5,-30 796.5,-10 776.5,-10"/>
<text text-anchor="start" x="800.129" y="-15.4" font-family="sans-serif" font-size="14.00" fill="#000000"> &#160;Declarations</text>
<polygon fill="#8dd3c7" stroke="transparent" points="889.5,-10 889.5,-30 909.5,-30 909.5,-10 889.5,-10"/>
<text text-anchor="start" x="913.2251" y="-15.4" font-family="sans-serif" font-size="14.00" fill="#000000"> &#160;Module</text>
<polygon fill="#80b1d3" stroke="transparent" points="975.5,-10 975.5,-30 995.5,-30 995.5,-10 975.5,-10"/>
<text text-anchor="start" x="999.2812" y="-15.4" font-family="sans-serif" font-size="14.00" fill="#000000"> &#160;Bootstrap</text>
<polygon fill="#fdb462" stroke="transparent" points="1072.5,-10 1072.5,-30 1092.5,-30 1092.5,-10 1072.5,-10"/>
<text text-anchor="start" x="1096.1732" y="-15.4" font-family="sans-serif" font-size="14.00" fill="#000000"> &#160;Providers</text>
<polygon fill="#fb8072" stroke="transparent" points="1168.5,-10 1168.5,-30 1188.5,-30 1188.5,-10 1168.5,-10"/>
<text text-anchor="start" x="1192.2258" y="-15.4" font-family="sans-serif" font-size="14.00" fill="#000000"> &#160;Exports</text>
<g id="clust1" class="cluster">
<title>cluster_AppModule</title>
<polygon fill="none" stroke="#000000" stroke-dasharray="1,5" points="8,-70 8,-268 2013,-268 2013,-70 8,-70"/>
</g>
<g id="clust2" class="cluster">
<title>cluster_AppModule_declarations</title>
<polygon fill="none" stroke="#000000" points="587,-78 587,-130 2005,-130 2005,-78 587,-78"/>
</g>
<g id="clust13" class="cluster">
<title>cluster_AppModule_imports</title>
<polygon fill="none" stroke="#000000" points="318,-78 318,-130 579,-130 579,-78 318,-78"/>
</g>
<g id="clust15" class="cluster">
<title>cluster_AppModule_bootstrap</title>
<polygon fill="none" stroke="#000000" points="994,-208 994,-260 1118,-260 1118,-208 994,-208"/>
</g>
<g id="clust16" class="cluster">
<title>cluster_AppModule_providers</title>
<polygon fill="none" stroke="#000000" points="16,-78 16,-130 310,-130 310,-78 16,-78"/>
</g>
<!-- AppComponent -->
<g id="node1" class="node">
<title>AppComponent</title>
<polygon fill="#ffffb3" stroke="#000000" points="1996.9399,-122 1891.0601,-122 1891.0601,-86 1996.9399,-86 1996.9399,-122"/>
<text text-anchor="middle" x="1944" y="-99.8" font-family="Times,serif" font-size="14.00" fill="#000000">AppComponent</text>
</g>
<!-- AppModule -->
<g id="node11" class="node">
<title>AppModule</title>
<polygon fill="#8dd3c7" stroke="#000000" points="1097.6571,-187 1094.6571,-191 1073.6571,-191 1070.6571,-187 1014.3429,-187 1014.3429,-151 1097.6571,-151 1097.6571,-187"/>
<text text-anchor="middle" x="1056" y="-164.8" font-family="Times,serif" font-size="14.00" fill="#000000">AppModule</text>
</g>
<!-- AppComponent&#45;&gt;AppModule -->
<g id="edge1" class="edge">
<title>AppComponent&#45;&gt;AppModule</title>
<path fill="none" stroke="#000000" d="M1944,-122.0908C1944,-145.1328 1944,-182 1944,-182 1944,-182 1107.9354,-182 1107.9354,-182"/>
<polygon fill="#000000" stroke="#000000" points="1107.9354,-178.5001 1097.9354,-182 1107.9354,-185.5001 1107.9354,-178.5001"/>
</g>
<!-- BookInfoComponent -->
<g id="node2" class="node">
<title>BookInfoComponent</title>
<polygon fill="#ffffb3" stroke="#000000" points="1873.4902,-122 1738.5098,-122 1738.5098,-86 1873.4902,-86 1873.4902,-122"/>
<text text-anchor="middle" x="1806" y="-99.8" font-family="Times,serif" font-size="14.00" fill="#000000">BookInfoComponent</text>
</g>
<!-- BookInfoComponent&#45;&gt;AppModule -->
<g id="edge2" class="edge">
<title>BookInfoComponent&#45;&gt;AppModule</title>
<path fill="none" stroke="#000000" d="M1806,-122.0449C1806,-143.6623 1806,-177 1806,-177 1806,-177 1107.6606,-177 1107.6606,-177"/>
<polygon fill="#000000" stroke="#000000" points="1107.6606,-173.5001 1097.6606,-177 1107.6605,-180.5001 1107.6606,-173.5001"/>
</g>
<!-- FilterPipe -->
<g id="node3" class="node">
<title>FilterPipe</title>
<polygon fill="#ffffb3" stroke="#000000" points="1720.7177,-122 1649.2823,-122 1649.2823,-86 1720.7177,-86 1720.7177,-122"/>
<text text-anchor="middle" x="1685" y="-99.8" font-family="Times,serif" font-size="14.00" fill="#000000">FilterPipe</text>
</g>
<!-- FilterPipe&#45;&gt;AppModule -->
<g id="edge3" class="edge">
<title>FilterPipe&#45;&gt;AppModule</title>
<path fill="none" stroke="#000000" d="M1685,-122.2228C1685,-142.3652 1685,-172 1685,-172 1685,-172 1107.7576,-172 1107.7576,-172"/>
<polygon fill="#000000" stroke="#000000" points="1107.7576,-168.5001 1097.7576,-172 1107.7575,-175.5001 1107.7576,-168.5001"/>
</g>
<!-- FollowersComponent -->
<g id="node4" class="node">
<title>FollowersComponent</title>
<polygon fill="#ffffb3" stroke="#000000" points="1631.823,-122 1494.177,-122 1494.177,-86 1631.823,-86 1631.823,-122"/>
<text text-anchor="middle" x="1563" y="-99.8" font-family="Times,serif" font-size="14.00" fill="#000000">FollowersComponent</text>
</g>
<!-- FollowersComponent&#45;&gt;AppModule -->
<g id="edge4" class="edge">
<title>FollowersComponent&#45;&gt;AppModule</title>
<path fill="none" stroke="#000000" d="M1563,-122.2222C1563,-140.8285 1563,-167 1563,-167 1563,-167 1107.9213,-167 1107.9213,-167"/>
<polygon fill="#000000" stroke="#000000" points="1107.9213,-163.5001 1097.9213,-167 1107.9212,-170.5001 1107.9213,-163.5001"/>
</g>
<!-- FollowingComponent -->
<g id="node5" class="node">
<title>FollowingComponent</title>
<polygon fill="#ffffb3" stroke="#000000" points="1476.3934,-122 1337.6066,-122 1337.6066,-86 1476.3934,-86 1476.3934,-122"/>
<text text-anchor="middle" x="1407" y="-99.8" font-family="Times,serif" font-size="14.00" fill="#000000">FollowingComponent</text>
</g>
<!-- FollowingComponent&#45;&gt;AppModule -->
<g id="edge5" class="edge">
<title>FollowingComponent&#45;&gt;AppModule</title>
<path fill="none" stroke="#000000" d="M1407,-122.0336C1407,-139.0597 1407,-162 1407,-162 1407,-162 1107.9902,-162 1107.9902,-162"/>
<polygon fill="#000000" stroke="#000000" points="1107.9902,-158.5001 1097.9902,-162 1107.9901,-165.5001 1107.9902,-158.5001"/>
</g>
<!-- HomeComponent -->
<g id="node6" class="node">
<title>HomeComponent</title>
<polygon fill="#ffffb3" stroke="#000000" points="1319.5451,-122 1204.4549,-122 1204.4549,-86 1319.5451,-86 1319.5451,-122"/>
<text text-anchor="middle" x="1262" y="-99.8" font-family="Times,serif" font-size="14.00" fill="#000000">HomeComponent</text>
</g>
<!-- HomeComponent&#45;&gt;AppModule -->
<g id="edge6" class="edge">
<title>HomeComponent&#45;&gt;AppModule</title>
<path fill="none" stroke="#000000" d="M1262,-122.2396C1262,-137.5706 1262,-157 1262,-157 1262,-157 1107.6872,-157 1107.6872,-157"/>
<polygon fill="#000000" stroke="#000000" points="1107.6872,-153.5001 1097.6872,-157 1107.6871,-160.5001 1107.6872,-153.5001"/>
</g>
<!-- LogInComponent -->
<g id="node7" class="node">
<title>LogInComponent</title>
<polygon fill="#ffffb3" stroke="#000000" points="1185.5465,-122 1070.4535,-122 1070.4535,-86 1185.5465,-86 1185.5465,-122"/>
<text text-anchor="middle" x="1128" y="-99.8" font-family="Times,serif" font-size="14.00" fill="#000000">LogInComponent</text>
</g>
<!-- LogInComponent&#45;&gt;AppModule -->
<g id="edge7" class="edge">
<title>LogInComponent&#45;&gt;AppModule</title>
<path fill="none" stroke="#000000" d="M1084.0277,-122.1061C1084.0277,-122.1061 1084.0277,-140.991 1084.0277,-140.991"/>
<polygon fill="#000000" stroke="#000000" points="1080.5278,-140.9909 1084.0277,-150.991 1087.5278,-140.991 1080.5278,-140.9909"/>
</g>
<!-- MyBooksComponent -->
<g id="node8" class="node">
<title>MyBooksComponent</title>
<polygon fill="#ffffb3" stroke="#000000" points="1052.0589,-122 915.9411,-122 915.9411,-86 1052.0589,-86 1052.0589,-122"/>
<text text-anchor="middle" x="984" y="-99.8" font-family="Times,serif" font-size="14.00" fill="#000000">MyBooksComponent</text>
</g>
<!-- MyBooksComponent&#45;&gt;AppModule -->
<g id="edge8" class="edge">
<title>MyBooksComponent&#45;&gt;AppModule</title>
<path fill="none" stroke="#000000" d="M1033.2255,-122.1061C1033.2255,-122.1061 1033.2255,-140.991 1033.2255,-140.991"/>
<polygon fill="#000000" stroke="#000000" points="1029.7255,-140.9909 1033.2255,-150.991 1036.7255,-140.991 1029.7255,-140.9909"/>
</g>
<!-- PageNotFoundComponent -->
<g id="node9" class="node">
<title>PageNotFoundComponent</title>
<polygon fill="#ffffb3" stroke="#000000" points="897.8243,-122 732.1757,-122 732.1757,-86 897.8243,-86 897.8243,-122"/>
<text text-anchor="middle" x="815" y="-99.8" font-family="Times,serif" font-size="14.00" fill="#000000">PageNotFoundComponent</text>
</g>
<!-- PageNotFoundComponent&#45;&gt;AppModule -->
<g id="edge9" class="edge">
<title>PageNotFoundComponent&#45;&gt;AppModule</title>
<path fill="none" stroke="#000000" d="M815,-122.2396C815,-137.5706 815,-157 815,-157 815,-157 1004.2961,-157 1004.2961,-157"/>
<polygon fill="#000000" stroke="#000000" points="1004.2962,-160.5001 1014.2961,-157 1004.2961,-153.5001 1004.2962,-160.5001"/>
</g>
<!-- ProfileComponent -->
<g id="node10" class="node">
<title>ProfileComponent</title>
<polygon fill="#ffffb3" stroke="#000000" points="714.9328,-122 595.0672,-122 595.0672,-86 714.9328,-86 714.9328,-122"/>
<text text-anchor="middle" x="655" y="-99.8" font-family="Times,serif" font-size="14.00" fill="#000000">ProfileComponent</text>
</g>
<!-- ProfileComponent&#45;&gt;AppModule -->
<g id="edge10" class="edge">
<title>ProfileComponent&#45;&gt;AppModule</title>
<path fill="none" stroke="#000000" d="M655,-122.0336C655,-139.0597 655,-162 655,-162 655,-162 1004.2208,-162 1004.2208,-162"/>
<polygon fill="#000000" stroke="#000000" points="1004.2208,-165.5001 1014.2208,-162 1004.2207,-158.5001 1004.2208,-165.5001"/>
</g>
<!-- AppComponent  -->
<g id="node14" class="node">
<title>AppComponent </title>
<polygon fill="#80b1d3" stroke="#000000" points="1110.439,-252 1001.561,-252 1001.561,-216 1110.439,-216 1110.439,-252"/>
<text text-anchor="middle" x="1056" y="-229.8" font-family="Times,serif" font-size="14.00" fill="#000000">AppComponent </text>
</g>
<!-- AppModule&#45;&gt;AppComponent  -->
<g id="edge13" class="edge">
<title>AppModule&#45;&gt;AppComponent </title>
<path fill="none" stroke="#000000" stroke-dasharray="1,5" d="M1056,-187.1061C1056,-187.1061 1056,-205.991 1056,-205.991"/>
<polygon fill="#000000" stroke="#000000" points="1052.5001,-205.9909 1056,-215.991 1059.5001,-205.991 1052.5001,-205.9909"/>
</g>
<!-- AppRoutingModule -->
<g id="node12" class="node">
<title>AppRoutingModule</title>
<polygon fill="#8dd3c7" stroke="#000000" points="571.2744,-122 568.2744,-126 547.2744,-126 544.2744,-122 442.7256,-122 442.7256,-86 571.2744,-86 571.2744,-122"/>
<text text-anchor="middle" x="507" y="-99.8" font-family="Times,serif" font-size="14.00" fill="#000000">AppRoutingModule</text>
</g>
<!-- AppRoutingModule&#45;&gt;AppModule -->
<g id="edge11" class="edge">
<title>AppRoutingModule&#45;&gt;AppModule</title>
<path fill="none" stroke="#000000" d="M507,-122.2222C507,-140.8285 507,-167 507,-167 507,-167 1004.2852,-167 1004.2852,-167"/>
<polygon fill="#000000" stroke="#000000" points="1004.2852,-170.5001 1014.2852,-167 1004.2851,-163.5001 1004.2852,-170.5001"/>
</g>
<!-- SharedModule -->
<g id="node13" class="node">
<title>SharedModule</title>
<polygon fill="#8dd3c7" stroke="#000000" points="424.4231,-122 421.4231,-126 400.4231,-126 397.4231,-122 325.5769,-122 325.5769,-86 424.4231,-86 424.4231,-122"/>
<text text-anchor="middle" x="375" y="-99.8" font-family="Times,serif" font-size="14.00" fill="#000000">SharedModule</text>
</g>
<!-- SharedModule&#45;&gt;AppModule -->
<g id="edge12" class="edge">
<title>SharedModule&#45;&gt;AppModule</title>
<path fill="none" stroke="#000000" d="M375,-122.2228C375,-142.3652 375,-172 375,-172 375,-172 1004.1703,-172 1004.1703,-172"/>
<polygon fill="#000000" stroke="#000000" points="1004.1703,-175.5001 1014.1703,-172 1004.1702,-168.5001 1004.1703,-175.5001"/>
</g>
<!-- AuthInterceptor -->
<g id="node15" class="node">
<title>AuthInterceptor</title>
<ellipse fill="#fdb462" stroke="#000000" cx="229" cy="-104" rx="72.9121" ry="18"/>
<text text-anchor="middle" x="229" y="-99.8" font-family="Times,serif" font-size="14.00" fill="#000000">AuthInterceptor</text>
</g>
<!-- AuthInterceptor&#45;&gt;AppModule -->
<g id="edge14" class="edge">
<title>AuthInterceptor&#45;&gt;AppModule</title>
<path fill="none" stroke="#000000" d="M229,-122.0449C229,-143.6623 229,-177 229,-177 229,-177 1004.1375,-177 1004.1375,-177"/>
<polygon fill="#000000" stroke="#000000" points="1004.1376,-180.5001 1014.1375,-177 1004.1375,-173.5001 1004.1376,-180.5001"/>
</g>
<!-- HttpService -->
<g id="node16" class="node">
<title>HttpService</title>
<ellipse fill="#fdb462" stroke="#000000" cx="81" cy="-104" rx="57.3185" ry="18"/>
<text text-anchor="middle" x="81" y="-99.8" font-family="Times,serif" font-size="14.00" fill="#000000">HttpService</text>
</g>
<!-- HttpService&#45;&gt;AppModule -->
<g id="edge15" class="edge">
<title>HttpService&#45;&gt;AppModule</title>
<path fill="none" stroke="#000000" d="M81,-122.0908C81,-145.1328 81,-182 81,-182 81,-182 1004.1055,-182 1004.1055,-182"/>
<polygon fill="#000000" stroke="#000000" points="1004.1055,-185.5001 1014.1055,-182 1004.1054,-178.5001 1004.1055,-185.5001"/>
</g>
</g>
</svg>
