<?xml version="1.0" encoding="UTF-8" standalone="no"?>
<!DOCTYPE svg PUBLIC "-//W3C//DTD SVG 1.1//EN"
 "http://www.w3.org/Graphics/SVG/1.1/DTD/svg11.dtd">
<!-- Generated by graphviz version 2.40.1 (20161225.0304)
 -->
<!-- Title: dependencies Pages: 1 -->
<svg width="2355pt" height="284pt"
 viewBox="0.00 0.00 2355.00 284.00" xmlns="http://www.w3.org/2000/svg" xmlns:xlink="http://www.w3.org/1999/xlink">
<g id="graph0" class="graph" transform="scale(1 1) rotate(0) translate(4 280)">
<title>dependencies</title>
<polygon fill="#ffffff" stroke="transparent" points="-4,4 -4,-280 2351,-280 2351,4 -4,4"/>
<text text-anchor="start" x="1152.5091" y="-42.4" font-family="sans-serif" font-weight="bold" font-size="14.00" fill="#000000">Legend</text>
<polygon fill="#ffffb3" stroke="transparent" points="939.5,-10 939.5,-30 959.5,-30 959.5,-10 939.5,-10"/>
<text text-anchor="start" x="963.129" y="-15.4" font-family="sans-serif" font-size="14.00" fill="#000000"> &#160;Declarations</text>
<polygon fill="#8dd3c7" stroke="transparent" points="1052.5,-10 1052.5,-30 1072.5,-30 1072.5,-10 1052.5,-10"/>
<text text-anchor="start" x="1076.2251" y="-15.4" font-family="sans-serif" font-size="14.00" fill="#000000"> &#160;Module</text>
<polygon fill="#80b1d3" stroke="transparent" points="1138.5,-10 1138.5,-30 1158.5,-30 1158.5,-10 1138.5,-10"/>
<text text-anchor="start" x="1162.2812" y="-15.4" font-family="sans-serif" font-size="14.00" fill="#000000"> &#160;Bootstrap</text>
<polygon fill="#fdb462" stroke="transparent" points="1235.5,-10 1235.5,-30 1255.5,-30 1255.5,-10 1235.5,-10"/>
<text text-anchor="start" x="1259.1732" y="-15.4" font-family="sans-serif" font-size="14.00" fill="#000000"> &#160;Providers</text>
<polygon fill="#fb8072" stroke="transparent" points="1331.5,-10 1331.5,-30 1351.5,-30 1351.5,-10 1331.5,-10"/>
<text text-anchor="start" x="1355.2258" y="-15.4" font-family="sans-serif" font-size="14.00" fill="#000000"> &#160;Exports</text>
<g id="clust1" class="cluster">
<title>cluster_AppModule</title>
<polygon fill="none" stroke="#000000" stroke-dasharray="1,5" points="8,-70 8,-268 2339,-268 2339,-70 8,-70"/>
</g>
<g id="clust2" class="cluster">
<title>cluster_AppModule_declarations</title>
<polygon fill="none" stroke="#000000" points="767,-78 767,-130 2331,-130 2331,-78 767,-78"/>
</g>
<g id="clust14" class="cluster">
<title>cluster_AppModule_imports</title>
<polygon fill="none" stroke="#000000" points="498,-78 498,-130 759,-130 759,-78 498,-78"/>
</g>
<g id="clust16" class="cluster">
<title>cluster_AppModule_bootstrap</title>
<polygon fill="none" stroke="#000000" points="1174,-208 1174,-260 1298,-260 1298,-208 1174,-208"/>
</g>
<g id="clust17" class="cluster">
<title>cluster_AppModule_providers</title>
<polygon fill="none" stroke="#000000" points="16,-78 16,-130 490,-130 490,-78 16,-78"/>
</g>
<!-- AboutusComponent -->
<g id="node1" class="node">
<title>AboutusComponent</title>
<polygon fill="#ffffb3" stroke="#000000" points="2323.2744,-122 2194.7256,-122 2194.7256,-86 2323.2744,-86 2323.2744,-122"/>
<text text-anchor="middle" x="2259" y="-99.8" font-family="Times,serif" font-size="14.00" fill="#000000">AboutusComponent</text>
</g>
<!-- AppModule -->
<g id="node12" class="node">
<title>AppModule</title>
<polygon fill="#8dd3c7" stroke="#000000" points="1277.6571,-187 1274.6571,-191 1253.6571,-191 1250.6571,-187 1194.3429,-187 1194.3429,-151 1277.6571,-151 1277.6571,-187"/>
<text text-anchor="middle" x="1236" y="-164.8" font-family="Times,serif" font-size="14.00" fill="#000000">AppModule</text>
</g>
<!-- AboutusComponent&#45;&gt;AppModule -->
<g id="edge1" class="edge">
<title>AboutusComponent&#45;&gt;AppModule</title>
<path fill="none" stroke="#000000" d="M2259,-122.3228C2259,-145.6602 2259,-183 2259,-183 2259,-183 1287.6894,-183 1287.6894,-183"/>
<polygon fill="#000000" stroke="#000000" points="1287.6894,-179.5001 1277.6894,-183 1287.6893,-186.5001 1287.6894,-179.5001"/>
</g>
<!-- AppComponent -->
<g id="node2" class="node">
<title>AppComponent</title>
<polygon fill="#ffffb3" stroke="#000000" points="2176.9399,-122 2071.0601,-122 2071.0601,-86 2176.9399,-86 2176.9399,-122"/>
<text text-anchor="middle" x="2124" y="-99.8" font-family="Times,serif" font-size="14.00" fill="#000000">AppComponent</text>
</g>
<!-- AppComponent&#45;&gt;AppModule -->
<g id="edge2" class="edge">
<title>AppComponent&#45;&gt;AppModule</title>
<path fill="none" stroke="#000000" d="M2124,-122.2921C2124,-144.2057 2124,-178 2124,-178 2124,-178 1287.9354,-178 1287.9354,-178"/>
<polygon fill="#000000" stroke="#000000" points="1287.9354,-174.5001 1277.9354,-178 1287.9354,-181.5001 1287.9354,-174.5001"/>
</g>
<!-- BookInfoComponent -->
<g id="node3" class="node">
<title>BookInfoComponent</title>
<polygon fill="#ffffb3" stroke="#000000" points="2053.4902,-122 1918.5098,-122 1918.5098,-86 2053.4902,-86 2053.4902,-122"/>
<text text-anchor="middle" x="1986" y="-99.8" font-family="Times,serif" font-size="14.00" fill="#000000">BookInfoComponent</text>
</g>
<!-- BookInfoComponent&#45;&gt;AppModule -->
<g id="edge3" class="edge">
<title>BookInfoComponent&#45;&gt;AppModule</title>
<path fill="none" stroke="#000000" d="M1986,-122.0267C1986,-142.7672 1986,-174 1986,-174 1986,-174 1287.6606,-174 1287.6606,-174"/>
<polygon fill="#000000" stroke="#000000" points="1287.6606,-170.5001 1277.6606,-174 1287.6605,-177.5001 1287.6606,-170.5001"/>
</g>
<!-- FilterPipe -->
<g id="node4" class="node">
<title>FilterPipe</title>
<polygon fill="#ffffb3" stroke="#000000" points="1900.7177,-122 1829.2823,-122 1829.2823,-86 1900.7177,-86 1900.7177,-122"/>
<text text-anchor="middle" x="1865" y="-99.8" font-family="Times,serif" font-size="14.00" fill="#000000">FilterPipe</text>
</g>
<!-- FilterPipe&#45;&gt;AppModule -->
<g id="edge4" class="edge">
<title>FilterPipe&#45;&gt;AppModule</title>
<path fill="none" stroke="#000000" d="M1865,-122.1061C1865,-141.3391 1865,-169 1865,-169 1865,-169 1287.7576,-169 1287.7576,-169"/>
<polygon fill="#000000" stroke="#000000" points="1287.7576,-165.5001 1277.7576,-169 1287.7575,-172.5001 1287.7576,-165.5001"/>
</g>
<!-- FollowersComponent -->
<g id="node5" class="node">
<title>FollowersComponent</title>
<polygon fill="#ffffb3" stroke="#000000" points="1811.823,-122 1674.177,-122 1674.177,-86 1811.823,-86 1811.823,-122"/>
<text text-anchor="middle" x="1743" y="-99.8" font-family="Times,serif" font-size="14.00" fill="#000000">FollowersComponent</text>
</g>
<!-- FollowersComponent&#45;&gt;AppModule -->
<g id="edge5" class="edge">
<title>FollowersComponent&#45;&gt;AppModule</title>
<path fill="none" stroke="#000000" d="M1743,-122.302C1743,-140.2699 1743,-165 1743,-165 1743,-165 1287.9213,-165 1287.9213,-165"/>
<polygon fill="#000000" stroke="#000000" points="1287.9213,-161.5001 1277.9213,-165 1287.9212,-168.5001 1287.9213,-161.5001"/>
</g>
<!-- FollowingComponent -->
<g id="node6" class="node">
<title>FollowingComponent</title>
<polygon fill="#ffffb3" stroke="#000000" points="1656.3934,-122 1517.6066,-122 1517.6066,-86 1656.3934,-86 1656.3934,-122"/>
<text text-anchor="middle" x="1587" y="-99.8" font-family="Times,serif" font-size="14.00" fill="#000000">FollowingComponent</text>
</g>
<!-- FollowingComponent&#45;&gt;AppModule -->
<g id="edge6" class="edge">
<title>FollowingComponent&#45;&gt;AppModule</title>
<path fill="none" stroke="#000000" d="M1587,-122.027C1587,-138.3976 1587,-160 1587,-160 1587,-160 1287.9902,-160 1287.9902,-160"/>
<polygon fill="#000000" stroke="#000000" points="1287.9902,-156.5001 1277.9902,-160 1287.9901,-163.5001 1287.9902,-156.5001"/>
</g>
<!-- HomeComponent -->
<g id="node7" class="node">
<title>HomeComponent</title>
<polygon fill="#ffffb3" stroke="#000000" points="1499.5451,-122 1384.4549,-122 1384.4549,-86 1499.5451,-86 1499.5451,-122"/>
<text text-anchor="middle" x="1442" y="-99.8" font-family="Times,serif" font-size="14.00" fill="#000000">HomeComponent</text>
</g>
<!-- HomeComponent&#45;&gt;AppModule -->
<g id="edge7" class="edge">
<title>HomeComponent&#45;&gt;AppModule</title>
<path fill="none" stroke="#000000" d="M1442,-122.1871C1442,-137.1824 1442,-156 1442,-156 1442,-156 1287.6872,-156 1287.6872,-156"/>
<polygon fill="#000000" stroke="#000000" points="1287.6872,-152.5001 1277.6872,-156 1287.6871,-159.5001 1287.6872,-152.5001"/>
</g>
<!-- LogInComponent -->
<g id="node8" class="node">
<title>LogInComponent</title>
<polygon fill="#ffffb3" stroke="#000000" points="1365.5465,-122 1250.4535,-122 1250.4535,-86 1365.5465,-86 1365.5465,-122"/>
<text text-anchor="middle" x="1308" y="-99.8" font-family="Times,serif" font-size="14.00" fill="#000000">LogInComponent</text>
</g>
<!-- LogInComponent&#45;&gt;AppModule -->
<g id="edge8" class="edge">
<title>LogInComponent&#45;&gt;AppModule</title>
<path fill="none" stroke="#000000" d="M1264.0277,-122.1061C1264.0277,-122.1061 1264.0277,-140.991 1264.0277,-140.991"/>
<polygon fill="#000000" stroke="#000000" points="1260.5278,-140.9909 1264.0277,-150.991 1267.5278,-140.991 1260.5278,-140.9909"/>
</g>
<!-- MyBooksComponent -->
<g id="node9" class="node">
<title>MyBooksComponent</title>
<polygon fill="#ffffb3" stroke="#000000" points="1232.0589,-122 1095.9411,-122 1095.9411,-86 1232.0589,-86 1232.0589,-122"/>
<text text-anchor="middle" x="1164" y="-99.8" font-family="Times,serif" font-size="14.00" fill="#000000">MyBooksComponent</text>
</g>
<!-- MyBooksComponent&#45;&gt;AppModule -->
<g id="edge9" class="edge">
<title>MyBooksComponent&#45;&gt;AppModule</title>
<path fill="none" stroke="#000000" d="M1213.2255,-122.1061C1213.2255,-122.1061 1213.2255,-140.991 1213.2255,-140.991"/>
<polygon fill="#000000" stroke="#000000" points="1209.7255,-140.9909 1213.2255,-150.991 1216.7255,-140.991 1209.7255,-140.9909"/>
</g>
<!-- PageNotFoundComponent -->
<g id="node10" class="node">
<title>PageNotFoundComponent</title>
<polygon fill="#ffffb3" stroke="#000000" points="1077.8243,-122 912.1757,-122 912.1757,-86 1077.8243,-86 1077.8243,-122"/>
<text text-anchor="middle" x="995" y="-99.8" font-family="Times,serif" font-size="14.00" fill="#000000">PageNotFoundComponent</text>
</g>
<!-- PageNotFoundComponent&#45;&gt;AppModule -->
<g id="edge10" class="edge">
<title>PageNotFoundComponent&#45;&gt;AppModule</title>
<path fill="none" stroke="#000000" d="M995,-122.1871C995,-137.1824 995,-156 995,-156 995,-156 1184.2961,-156 1184.2961,-156"/>
<polygon fill="#000000" stroke="#000000" points="1184.2962,-159.5001 1194.2961,-156 1184.2961,-152.5001 1184.2962,-159.5001"/>
</g>
<!-- ProfileComponent -->
<g id="node11" class="node">
<title>ProfileComponent</title>
<polygon fill="#ffffb3" stroke="#000000" points="894.9328,-122 775.0672,-122 775.0672,-86 894.9328,-86 894.9328,-122"/>
<text text-anchor="middle" x="835" y="-99.8" font-family="Times,serif" font-size="14.00" fill="#000000">ProfileComponent</text>
</g>
<!-- ProfileComponent&#45;&gt;AppModule -->
<g id="edge11" class="edge">
<title>ProfileComponent&#45;&gt;AppModule</title>
<path fill="none" stroke="#000000" d="M835,-122.027C835,-138.3976 835,-160 835,-160 835,-160 1184.2208,-160 1184.2208,-160"/>
<polygon fill="#000000" stroke="#000000" points="1184.2208,-163.5001 1194.2208,-160 1184.2207,-156.5001 1184.2208,-163.5001"/>
</g>
<!-- AppComponent  -->
<g id="node15" class="node">
<title>AppComponent </title>
<polygon fill="#80b1d3" stroke="#000000" points="1290.439,-252 1181.561,-252 1181.561,-216 1290.439,-216 1290.439,-252"/>
<text text-anchor="middle" x="1236" y="-229.8" font-family="Times,serif" font-size="14.00" fill="#000000">AppComponent </text>
</g>
<!-- AppModule&#45;&gt;AppComponent  -->
<g id="edge14" class="edge">
<title>AppModule&#45;&gt;AppComponent </title>
<path fill="none" stroke="#000000" stroke-dasharray="1,5" d="M1236,-187.1061C1236,-187.1061 1236,-205.991 1236,-205.991"/>
<polygon fill="#000000" stroke="#000000" points="1232.5001,-205.9909 1236,-215.991 1239.5001,-205.991 1232.5001,-205.9909"/>
</g>
<!-- AppRoutingModule -->
<g id="node13" class="node">
<title>AppRoutingModule</title>
<polygon fill="#8dd3c7" stroke="#000000" points="751.2744,-122 748.2744,-126 727.2744,-126 724.2744,-122 622.7256,-122 622.7256,-86 751.2744,-86 751.2744,-122"/>
<text text-anchor="middle" x="687" y="-99.8" font-family="Times,serif" font-size="14.00" fill="#000000">AppRoutingModule</text>
</g>
<!-- AppRoutingModule&#45;&gt;AppModule -->
<g id="edge12" class="edge">
<title>AppRoutingModule&#45;&gt;AppModule</title>
<path fill="none" stroke="#000000" d="M687,-122.302C687,-140.2699 687,-165 687,-165 687,-165 1184.2852,-165 1184.2852,-165"/>
<polygon fill="#000000" stroke="#000000" points="1184.2852,-168.5001 1194.2852,-165 1184.2851,-161.5001 1184.2852,-168.5001"/>
</g>
<!-- SharedModule -->
<g id="node14" class="node">
<title>SharedModule</title>
<polygon fill="#8dd3c7" stroke="#000000" points="604.4231,-122 601.4231,-126 580.4231,-126 577.4231,-122 505.5769,-122 505.5769,-86 604.4231,-86 604.4231,-122"/>
<text text-anchor="middle" x="555" y="-99.8" font-family="Times,serif" font-size="14.00" fill="#000000">SharedModule</text>
</g>
<!-- SharedModule&#45;&gt;AppModule -->
<g id="edge13" class="edge">
<title>SharedModule&#45;&gt;AppModule</title>
<path fill="none" stroke="#000000" d="M555,-122.1061C555,-141.3391 555,-169 555,-169 555,-169 1184.1703,-169 1184.1703,-169"/>
<polygon fill="#000000" stroke="#000000" points="1184.1703,-172.5001 1194.1703,-169 1184.1702,-165.5001 1184.1703,-172.5001"/>
</g>
<!-- AuthInterceptor -->
<g id="node16" class="node">
<title>AuthInterceptor</title>
<ellipse fill="#fdb462" stroke="#000000" cx="409" cy="-104" rx="72.9121" ry="18"/>
<text text-anchor="middle" x="409" y="-99.8" font-family="Times,serif" font-size="14.00" fill="#000000">AuthInterceptor</text>
</g>
<!-- AuthInterceptor&#45;&gt;AppModule -->
<g id="edge15" class="edge">
<title>AuthInterceptor&#45;&gt;AppModule</title>
<path fill="none" stroke="#000000" d="M409,-122.0267C409,-142.7672 409,-174 409,-174 409,-174 1184.1375,-174 1184.1375,-174"/>
<polygon fill="#000000" stroke="#000000" points="1184.1376,-177.5001 1194.1375,-174 1184.1375,-170.5001 1184.1376,-177.5001"/>
</g>
<!-- HttpService -->
<g id="node17" class="node">
<title>HttpService</title>
<ellipse fill="#fdb462" stroke="#000000" cx="261" cy="-104" rx="57.3185" ry="18"/>
<text text-anchor="middle" x="261" y="-99.8" font-family="Times,serif" font-size="14.00" fill="#000000">HttpService</text>
</g>
<!-- HttpService&#45;&gt;AppModule -->
<g id="edge16" class="edge">
<title>HttpService&#45;&gt;AppModule</title>
<path fill="none" stroke="#000000" d="M261,-122.2921C261,-144.2057 261,-178 261,-178 261,-178 1184.1055,-178 1184.1055,-178"/>
<polygon fill="#000000" stroke="#000000" points="1184.1055,-181.5001 1194.1055,-178 1184.1054,-174.5001 1184.1055,-181.5001"/>
</g>
<!-- LogInHttpService -->
<g id="node18" class="node">
<title>LogInHttpService</title>
<ellipse fill="#fdb462" stroke="#000000" cx="105" cy="-104" rx="80.5181" ry="18"/>
<text text-anchor="middle" x="105" y="-99.8" font-family="Times,serif" font-size="14.00" fill="#000000">LogInHttpService</text>
</g>
<!-- LogInHttpService&#45;&gt;AppModule -->
<g id="edge17" class="edge">
<title>LogInHttpService&#45;&gt;AppModule</title>
<path fill="none" stroke="#000000" d="M105,-122.3228C105,-145.6602 105,-183 105,-183 105,-183 1184.0673,-183 1184.0673,-183"/>
<polygon fill="#000000" stroke="#000000" points="1184.0674,-186.5001 1194.0673,-183 1184.0673,-179.5001 1184.0674,-186.5001"/>
</g>
</g>
</svg>
