<?xml version="1.0" encoding="UTF-8" standalone="no"?>
<!DOCTYPE svg PUBLIC "-//W3C//DTD SVG 1.1//EN"
 "http://www.w3.org/Graphics/SVG/1.1/DTD/svg11.dtd">
<!-- Generated by graphviz version 2.40.1 (20161225.0304)
 -->
<!-- Title: dependencies Pages: 1 -->
<svg width="2209pt" height="284pt"
 viewBox="0.00 0.00 2209.00 284.00" xmlns="http://www.w3.org/2000/svg" xmlns:xlink="http://www.w3.org/1999/xlink">
<g id="graph0" class="graph" transform="scale(1 1) rotate(0) translate(4 280)">
<title>dependencies</title>
<polygon fill="#ffffff" stroke="transparent" points="-4,4 -4,-280 2205,-280 2205,4 -4,4"/>
<text text-anchor="start" x="1079.5091" y="-42.4" font-family="sans-serif" font-weight="bold" font-size="14.00" fill="#000000">Legend</text>
<polygon fill="#ffffb3" stroke="transparent" points="866.5,-10 866.5,-30 886.5,-30 886.5,-10 866.5,-10"/>
<text text-anchor="start" x="890.129" y="-15.4" font-family="sans-serif" font-size="14.00" fill="#000000"> &#160;Declarations</text>
<polygon fill="#8dd3c7" stroke="transparent" points="979.5,-10 979.5,-30 999.5,-30 999.5,-10 979.5,-10"/>
<text text-anchor="start" x="1003.2251" y="-15.4" font-family="sans-serif" font-size="14.00" fill="#000000"> &#160;Module</text>
<polygon fill="#80b1d3" stroke="transparent" points="1065.5,-10 1065.5,-30 1085.5,-30 1085.5,-10 1065.5,-10"/>
<text text-anchor="start" x="1089.2812" y="-15.4" font-family="sans-serif" font-size="14.00" fill="#000000"> &#160;Bootstrap</text>
<polygon fill="#fdb462" stroke="transparent" points="1162.5,-10 1162.5,-30 1182.5,-30 1182.5,-10 1162.5,-10"/>
<text text-anchor="start" x="1186.1732" y="-15.4" font-family="sans-serif" font-size="14.00" fill="#000000"> &#160;Providers</text>
<polygon fill="#fb8072" stroke="transparent" points="1258.5,-10 1258.5,-30 1278.5,-30 1278.5,-10 1258.5,-10"/>
<text text-anchor="start" x="1282.2258" y="-15.4" font-family="sans-serif" font-size="14.00" fill="#000000"> &#160;Exports</text>
<g id="clust1" class="cluster">
<title>cluster_AppModule</title>
<polygon fill="none" stroke="#000000" stroke-dasharray="1,5" points="8,-70 8,-268 2193,-268 2193,-70 8,-70"/>
</g>
<g id="clust2" class="cluster">
<title>cluster_AppModule_declarations</title>
<polygon fill="none" stroke="#000000" points="767,-78 767,-130 2185,-130 2185,-78 767,-78"/>
</g>
<g id="clust13" class="cluster">
<title>cluster_AppModule_imports</title>
<polygon fill="none" stroke="#000000" points="498,-78 498,-130 759,-130 759,-78 498,-78"/>
</g>
<g id="clust14" class="cluster">
<title>cluster_AppModule_exports</title>
<polygon fill="none" stroke="#000000" points="1062,-208 1062,-260 1152,-260 1152,-208 1062,-208"/>
</g>
<g id="clust15" class="cluster">
<title>cluster_AppModule_bootstrap</title>
<polygon fill="none" stroke="#000000" points="1160,-208 1160,-260 1284,-260 1284,-208 1160,-208"/>
</g>
<g id="clust16" class="cluster">
<title>cluster_AppModule_providers</title>
<polygon fill="none" stroke="#000000" points="16,-78 16,-130 490,-130 490,-78 16,-78"/>
</g>
<!-- AppComponent -->
<g id="node1" class="node">
<title>AppComponent</title>
<polygon fill="#ffffb3" stroke="#000000" points="2176.9399,-122 2071.0601,-122 2071.0601,-86 2176.9399,-86 2176.9399,-122"/>
<text text-anchor="middle" x="2124" y="-99.8" font-family="Times,serif" font-size="14.00" fill="#000000">AppComponent</text>
</g>
<!-- AppModule -->
<g id="node11" class="node">
<title>AppModule</title>
<polygon fill="#8dd3c7" stroke="#000000" points="1205.6571,-187 1202.6571,-191 1181.6571,-191 1178.6571,-187 1122.3429,-187 1122.3429,-151 1205.6571,-151 1205.6571,-187"/>
<text text-anchor="middle" x="1164" y="-164.8" font-family="Times,serif" font-size="14.00" fill="#000000">AppModule</text>
</g>
<!-- AppComponent&#45;&gt;AppModule -->
<g id="edge1" class="edge">
<title>AppComponent&#45;&gt;AppModule</title>
<path fill="none" stroke="#000000" d="M2124,-122.3228C2124,-145.6602 2124,-183 2124,-183 2124,-183 1215.8673,-183 1215.8673,-183"/>
<polygon fill="#000000" stroke="#000000" points="1215.8673,-179.5001 1205.8673,-183 1215.8673,-186.5001 1215.8673,-179.5001"/>
</g>
<!-- BookInfoComponent -->
<g id="node2" class="node">
<title>BookInfoComponent</title>
<polygon fill="#ffffb3" stroke="#000000" points="2053.4902,-122 1918.5098,-122 1918.5098,-86 2053.4902,-86 2053.4902,-122"/>
<text text-anchor="middle" x="1986" y="-99.8" font-family="Times,serif" font-size="14.00" fill="#000000">BookInfoComponent</text>
</g>
<!-- BookInfoComponent&#45;&gt;AppModule -->
<g id="edge2" class="edge">
<title>BookInfoComponent&#45;&gt;AppModule</title>
<path fill="none" stroke="#000000" d="M1986,-122.2921C1986,-144.2057 1986,-178 1986,-178 1986,-178 1215.8932,-178 1215.8932,-178"/>
<polygon fill="#000000" stroke="#000000" points="1215.8932,-174.5001 1205.8932,-178 1215.8932,-181.5001 1215.8932,-174.5001"/>
</g>
<!-- FilterPipe -->
<g id="node3" class="node">
<title>FilterPipe</title>
<polygon fill="#ffffb3" stroke="#000000" points="1900.7177,-122 1829.2823,-122 1829.2823,-86 1900.7177,-86 1900.7177,-122"/>
<text text-anchor="middle" x="1865" y="-99.8" font-family="Times,serif" font-size="14.00" fill="#000000">FilterPipe</text>
</g>
<!-- FilterPipe&#45;&gt;AppModule -->
<g id="edge3" class="edge">
<title>FilterPipe&#45;&gt;AppModule</title>
<path fill="none" stroke="#000000" d="M1865,-122.0267C1865,-142.7672 1865,-174 1865,-174 1865,-174 1215.7514,-174 1215.7514,-174"/>
<polygon fill="#000000" stroke="#000000" points="1215.7515,-170.5001 1205.7514,-174 1215.7514,-177.5001 1215.7515,-170.5001"/>
</g>
<!-- FollowersComponent -->
<g id="node4" class="node">
<title>FollowersComponent</title>
<polygon fill="#ffffb3" stroke="#000000" points="1811.823,-122 1674.177,-122 1674.177,-86 1811.823,-86 1811.823,-122"/>
<text text-anchor="middle" x="1743" y="-99.8" font-family="Times,serif" font-size="14.00" fill="#000000">FollowersComponent</text>
</g>
<!-- FollowersComponent&#45;&gt;AppModule -->
<g id="edge4" class="edge">
<title>FollowersComponent&#45;&gt;AppModule</title>
<path fill="none" stroke="#000000" d="M1743,-122.1061C1743,-141.3391 1743,-169 1743,-169 1743,-169 1216.1066,-169 1216.1066,-169"/>
<polygon fill="#000000" stroke="#000000" points="1216.1067,-165.5001 1206.1066,-169 1216.1066,-172.5001 1216.1067,-165.5001"/>
</g>
<!-- FollowingComponent -->
<g id="node5" class="node">
<title>FollowingComponent</title>
<polygon fill="#ffffb3" stroke="#000000" points="1656.3934,-122 1517.6066,-122 1517.6066,-86 1656.3934,-86 1656.3934,-122"/>
<text text-anchor="middle" x="1587" y="-99.8" font-family="Times,serif" font-size="14.00" fill="#000000">FollowingComponent</text>
</g>
<!-- FollowingComponent&#45;&gt;AppModule -->
<g id="edge5" class="edge">
<title>FollowingComponent&#45;&gt;AppModule</title>
<path fill="none" stroke="#000000" d="M1587,-122.302C1587,-140.2699 1587,-165 1587,-165 1587,-165 1215.7165,-165 1215.7165,-165"/>
<polygon fill="#000000" stroke="#000000" points="1215.7166,-161.5001 1205.7165,-165 1215.7165,-168.5001 1215.7166,-161.5001"/>
</g>
<!-- HomeComponent -->
<g id="node6" class="node">
<title>HomeComponent</title>
<polygon fill="#ffffb3" stroke="#000000" points="1499.5451,-122 1384.4549,-122 1384.4549,-86 1499.5451,-86 1499.5451,-122"/>
<text text-anchor="middle" x="1442" y="-99.8" font-family="Times,serif" font-size="14.00" fill="#000000">HomeComponent</text>
</g>
<!-- HomeComponent&#45;&gt;AppModule -->
<g id="edge6" class="edge">
<title>HomeComponent&#45;&gt;AppModule</title>
<path fill="none" stroke="#000000" d="M1442,-122.027C1442,-138.3976 1442,-160 1442,-160 1442,-160 1215.9204,-160 1215.9204,-160"/>
<polygon fill="#000000" stroke="#000000" points="1215.9204,-156.5001 1205.9204,-160 1215.9204,-163.5001 1215.9204,-156.5001"/>
</g>
<!-- LogInComponent -->
<g id="node7" class="node">
<title>LogInComponent</title>
<polygon fill="#ffffb3" stroke="#000000" points="1365.5465,-122 1250.4535,-122 1250.4535,-86 1365.5465,-86 1365.5465,-122"/>
<text text-anchor="middle" x="1308" y="-99.8" font-family="Times,serif" font-size="14.00" fill="#000000">LogInComponent</text>
</g>
<!-- LogInComponent&#45;&gt;AppModule -->
<g id="edge7" class="edge">
<title>LogInComponent&#45;&gt;AppModule</title>
<path fill="none" stroke="#000000" d="M1263.3484,-122.1871C1263.3484,-137.1824 1263.3484,-156 1263.3484,-156 1263.3484,-156 1215.8447,-156 1215.8447,-156"/>
<polygon fill="#000000" stroke="#000000" points="1215.8447,-152.5001 1205.8447,-156 1215.8447,-159.5001 1215.8447,-152.5001"/>
</g>
<!-- MyBooksComponent -->
<g id="node8" class="node">
<title>MyBooksComponent</title>
<polygon fill="#ffffb3" stroke="#000000" points="1232.0589,-122 1095.9411,-122 1095.9411,-86 1232.0589,-86 1232.0589,-122"/>
<text text-anchor="middle" x="1164" y="-99.8" font-family="Times,serif" font-size="14.00" fill="#000000">MyBooksComponent</text>
</g>
<!-- MyBooksComponent&#45;&gt;AppModule -->
<g id="edge8" class="edge">
<title>MyBooksComponent&#45;&gt;AppModule</title>
<path fill="none" stroke="#000000" d="M1164,-122.1061C1164,-122.1061 1164,-140.991 1164,-140.991"/>
<polygon fill="#000000" stroke="#000000" points="1160.5001,-140.9909 1164,-150.991 1167.5001,-140.991 1160.5001,-140.9909"/>
</g>
<!-- PageNotFoundComponent -->
<g id="node9" class="node">
<title>PageNotFoundComponent</title>
<polygon fill="#ffffb3" stroke="#000000" points="1077.8243,-122 912.1757,-122 912.1757,-86 1077.8243,-86 1077.8243,-122"/>
<text text-anchor="middle" x="995" y="-99.8" font-family="Times,serif" font-size="14.00" fill="#000000">PageNotFoundComponent</text>
</g>
<!-- PageNotFoundComponent&#45;&gt;AppModule -->
<g id="edge9" class="edge">
<title>PageNotFoundComponent&#45;&gt;AppModule</title>
<path fill="none" stroke="#000000" d="M1073.6517,-122.1871C1073.6517,-137.1824 1073.6517,-156 1073.6517,-156 1073.6517,-156 1112.2639,-156 1112.2639,-156"/>
<polygon fill="#000000" stroke="#000000" points="1112.2639,-159.5001 1122.2639,-156 1112.2638,-152.5001 1112.2639,-159.5001"/>
</g>
<!-- ProfileComponent -->
<g id="node10" class="node">
<title>ProfileComponent</title>
<polygon fill="#ffffb3" stroke="#000000" points="894.9328,-122 775.0672,-122 775.0672,-86 894.9328,-86 894.9328,-122"/>
<text text-anchor="middle" x="835" y="-99.8" font-family="Times,serif" font-size="14.00" fill="#000000">ProfileComponent</text>
</g>
<!-- ProfileComponent&#45;&gt;AppModule -->
<g id="edge10" class="edge">
<title>ProfileComponent&#45;&gt;AppModule</title>
<path fill="none" stroke="#000000" d="M835,-122.027C835,-138.3976 835,-160 835,-160 835,-160 1112.3319,-160 1112.3319,-160"/>
<polygon fill="#000000" stroke="#000000" points="1112.332,-163.5001 1122.3319,-160 1112.3319,-156.5001 1112.332,-163.5001"/>
</g>
<!-- FilterPipe  -->
<g id="node14" class="node">
<title>FilterPipe </title>
<polygon fill="#fb8072" stroke="#000000" points="1144.2179,-252 1069.7821,-252 1069.7821,-216 1144.2179,-216 1144.2179,-252"/>
<text text-anchor="middle" x="1107" y="-229.8" font-family="Times,serif" font-size="14.00" fill="#000000">FilterPipe </text>
</g>
<!-- AppModule&#45;&gt;FilterPipe  -->
<g id="edge13" class="edge">
<title>AppModule&#45;&gt;FilterPipe </title>
<path fill="none" stroke="#000000" stroke-dasharray="5,2" d="M1133.2653,-187.1061C1133.2653,-187.1061 1133.2653,-205.991 1133.2653,-205.991"/>
<polygon fill="#000000" stroke="#000000" points="1129.7653,-205.9909 1133.2653,-215.991 1136.7653,-205.991 1129.7653,-205.9909"/>
</g>
<!-- AppComponent  -->
<g id="node15" class="node">
<title>AppComponent </title>
<polygon fill="#80b1d3" stroke="#000000" points="1276.439,-252 1167.561,-252 1167.561,-216 1276.439,-216 1276.439,-252"/>
<text text-anchor="middle" x="1222" y="-229.8" font-family="Times,serif" font-size="14.00" fill="#000000">AppComponent </text>
</g>
<!-- AppModule&#45;&gt;AppComponent  -->
<g id="edge14" class="edge">
<title>AppModule&#45;&gt;AppComponent </title>
<path fill="none" stroke="#000000" stroke-dasharray="1,5" d="M1186.6793,-187.1061C1186.6793,-187.1061 1186.6793,-205.991 1186.6793,-205.991"/>
<polygon fill="#000000" stroke="#000000" points="1183.1794,-205.9909 1186.6793,-215.991 1190.1794,-205.991 1183.1794,-205.9909"/>
</g>
<!-- AppRoutingModule -->
<g id="node12" class="node">
<title>AppRoutingModule</title>
<polygon fill="#8dd3c7" stroke="#000000" points="751.2744,-122 748.2744,-126 727.2744,-126 724.2744,-122 622.7256,-122 622.7256,-86 751.2744,-86 751.2744,-122"/>
<text text-anchor="middle" x="687" y="-99.8" font-family="Times,serif" font-size="14.00" fill="#000000">AppRoutingModule</text>
</g>
<!-- AppRoutingModule&#45;&gt;AppModule -->
<g id="edge11" class="edge">
<title>AppRoutingModule&#45;&gt;AppModule</title>
<path fill="none" stroke="#000000" d="M687,-122.302C687,-140.2699 687,-165 687,-165 687,-165 1112.0875,-165 1112.0875,-165"/>
<polygon fill="#000000" stroke="#000000" points="1112.0875,-168.5001 1122.0875,-165 1112.0875,-161.5001 1112.0875,-168.5001"/>
</g>
<!-- SharedModule -->
<g id="node13" class="node">
<title>SharedModule</title>
<polygon fill="#8dd3c7" stroke="#000000" points="604.4231,-122 601.4231,-126 580.4231,-126 577.4231,-122 505.5769,-122 505.5769,-86 604.4231,-86 604.4231,-122"/>
<text text-anchor="middle" x="555" y="-99.8" font-family="Times,serif" font-size="14.00" fill="#000000">SharedModule</text>
</g>
<!-- SharedModule&#45;&gt;AppModule -->
<g id="edge12" class="edge">
<title>SharedModule&#45;&gt;AppModule</title>
<path fill="none" stroke="#000000" d="M555,-122.1061C555,-141.3391 555,-169 555,-169 555,-169 1112.141,-169 1112.141,-169"/>
<polygon fill="#000000" stroke="#000000" points="1112.141,-172.5001 1122.141,-169 1112.1409,-165.5001 1112.141,-172.5001"/>
</g>
<!-- AuthInterceptor -->
<g id="node16" class="node">
<title>AuthInterceptor</title>
<ellipse fill="#fdb462" stroke="#000000" cx="409" cy="-104" rx="72.9121" ry="18"/>
<text text-anchor="middle" x="409" y="-99.8" font-family="Times,serif" font-size="14.00" fill="#000000">AuthInterceptor</text>
</g>
<!-- AuthInterceptor&#45;&gt;AppModule -->
<g id="edge15" class="edge">
<title>AuthInterceptor&#45;&gt;AppModule</title>
<path fill="none" stroke="#000000" d="M409,-122.0267C409,-142.7672 409,-174 409,-174 409,-174 1112.3325,-174 1112.3325,-174"/>
<polygon fill="#000000" stroke="#000000" points="1112.3325,-177.5001 1122.3325,-174 1112.3325,-170.5001 1112.3325,-177.5001"/>
</g>
<!-- HttpService -->
<g id="node17" class="node">
<title>HttpService</title>
<ellipse fill="#fdb462" stroke="#000000" cx="261" cy="-104" rx="57.3185" ry="18"/>
<text text-anchor="middle" x="261" y="-99.8" font-family="Times,serif" font-size="14.00" fill="#000000">HttpService</text>
</g>
<!-- HttpService&#45;&gt;AppModule -->
<g id="edge16" class="edge">
<title>HttpService&#45;&gt;AppModule</title>
<path fill="none" stroke="#000000" d="M261,-122.2921C261,-144.2057 261,-178 261,-178 261,-178 1112.2575,-178 1112.2575,-178"/>
<polygon fill="#000000" stroke="#000000" points="1112.2575,-181.5001 1122.2575,-178 1112.2574,-174.5001 1112.2575,-181.5001"/>
</g>
<!-- LogInHttpService -->
<g id="node18" class="node">
<title>LogInHttpService</title>
<ellipse fill="#fdb462" stroke="#000000" cx="105" cy="-104" rx="80.5181" ry="18"/>
<text text-anchor="middle" x="105" y="-99.8" font-family="Times,serif" font-size="14.00" fill="#000000">LogInHttpService</text>
</g>
<!-- LogInHttpService&#45;&gt;AppModule -->
<g id="edge17" class="edge">
<title>LogInHttpService&#45;&gt;AppModule</title>
<path fill="none" stroke="#000000" d="M105,-122.3228C105,-145.6602 105,-183 105,-183 105,-183 1112.1598,-183 1112.1598,-183"/>
<polygon fill="#000000" stroke="#000000" points="1112.1598,-186.5001 1122.1598,-183 1112.1597,-179.5001 1112.1598,-186.5001"/>
</g>
</g>
</svg>
