<?xml version="1.0" encoding="UTF-8" standalone="no"?>
<!DOCTYPE svg PUBLIC "-//W3C//DTD SVG 1.1//EN"
 "http://www.w3.org/Graphics/SVG/1.1/DTD/svg11.dtd">
<!-- Generated by graphviz version 2.40.1 (20161225.0304)
 -->
<!-- Title: dependencies Pages: 1 -->
<svg width="3188pt" height="284pt"
 viewBox="0.00 0.00 3188.00 284.00" xmlns="http://www.w3.org/2000/svg" xmlns:xlink="http://www.w3.org/1999/xlink">
<g id="graph0" class="graph" transform="scale(1 1) rotate(0) translate(4 280)">
<title>dependencies</title>
<polygon fill="#ffffff" stroke="transparent" points="-4,4 -4,-280 3184,-280 3184,4 -4,4"/>
<text text-anchor="start" x="1569.0091" y="-42.4" font-family="sans-serif" font-weight="bold" font-size="14.00" fill="#000000">Legend</text>
<polygon fill="#ffffb3" stroke="transparent" points="1356,-10 1356,-30 1376,-30 1376,-10 1356,-10"/>
<text text-anchor="start" x="1379.629" y="-15.4" font-family="sans-serif" font-size="14.00" fill="#000000"> &#160;Declarations</text>
<polygon fill="#8dd3c7" stroke="transparent" points="1469,-10 1469,-30 1489,-30 1489,-10 1469,-10"/>
<text text-anchor="start" x="1492.7251" y="-15.4" font-family="sans-serif" font-size="14.00" fill="#000000"> &#160;Module</text>
<polygon fill="#80b1d3" stroke="transparent" points="1555,-10 1555,-30 1575,-30 1575,-10 1555,-10"/>
<text text-anchor="start" x="1578.7812" y="-15.4" font-family="sans-serif" font-size="14.00" fill="#000000"> &#160;Bootstrap</text>
<polygon fill="#fdb462" stroke="transparent" points="1652,-10 1652,-30 1672,-30 1672,-10 1652,-10"/>
<text text-anchor="start" x="1675.6732" y="-15.4" font-family="sans-serif" font-size="14.00" fill="#000000"> &#160;Providers</text>
<polygon fill="#fb8072" stroke="transparent" points="1748,-10 1748,-30 1768,-30 1768,-10 1748,-10"/>
<text text-anchor="start" x="1771.7258" y="-15.4" font-family="sans-serif" font-size="14.00" fill="#000000"> &#160;Exports</text>
<g id="clust1" class="cluster">
<title>cluster_AppModule</title>
<polygon fill="none" stroke="#000000" stroke-dasharray="1,5" points="8,-70 8,-268 3172,-268 3172,-70 8,-70"/>
</g>
<g id="clust2" class="cluster">
<title>cluster_AppModule_declarations</title>
<polygon fill="none" stroke="#000000" points="919,-78 919,-130 3164,-130 3164,-78 919,-78"/>
</g>
<g id="clust18" class="cluster">
<title>cluster_AppModule_imports</title>
<polygon fill="none" stroke="#000000" points="650,-78 650,-130 911,-130 911,-78 650,-78"/>
</g>
<g id="clust20" class="cluster">
<title>cluster_AppModule_bootstrap</title>
<polygon fill="none" stroke="#000000" points="1660,-208 1660,-260 1784,-260 1784,-208 1660,-208"/>
</g>
<g id="clust21" class="cluster">
<title>cluster_AppModule_providers</title>
<polygon fill="none" stroke="#000000" points="16,-78 16,-130 642,-130 642,-78 16,-78"/>
</g>
<!-- AboutusComponent -->
<g id="node1" class="node">
<title>AboutusComponent</title>
<polygon fill="#ffffb3" stroke="#000000" points="3156.2744,-122 3027.7256,-122 3027.7256,-86 3156.2744,-86 3156.2744,-122"/>
<text text-anchor="middle" x="3092" y="-99.8" font-family="Times,serif" font-size="14.00" fill="#000000">AboutusComponent</text>
</g>
<!-- AppModule -->
<g id="node16" class="node">
<title>AppModule</title>
<polygon fill="#8dd3c7" stroke="#000000" points="1763.6571,-187 1760.6571,-191 1739.6571,-191 1736.6571,-187 1680.3429,-187 1680.3429,-151 1763.6571,-151 1763.6571,-187"/>
<text text-anchor="middle" x="1722" y="-164.8" font-family="Times,serif" font-size="14.00" fill="#000000">AppModule</text>
</g>
<!-- AboutusComponent&#45;&gt;AppModule -->
<g id="edge1" class="edge">
<title>AboutusComponent&#45;&gt;AppModule</title>
<path fill="none" stroke="#000000" d="M3092,-122.1532C3092,-145.7566 3092,-184 3092,-184 3092,-184 1773.7494,-184 1773.7494,-184"/>
<polygon fill="#000000" stroke="#000000" points="1773.7495,-180.5001 1763.7494,-184 1773.7494,-187.5001 1773.7495,-180.5001"/>
</g>
<!-- AppComponent -->
<g id="node2" class="node">
<title>AppComponent</title>
<polygon fill="#ffffb3" stroke="#000000" points="3009.9399,-122 2904.0601,-122 2904.0601,-86 3009.9399,-86 3009.9399,-122"/>
<text text-anchor="middle" x="2957" y="-99.8" font-family="Times,serif" font-size="14.00" fill="#000000">AppComponent</text>
</g>
<!-- AppComponent&#45;&gt;AppModule -->
<g id="edge2" class="edge">
<title>AppComponent&#45;&gt;AppModule</title>
<path fill="none" stroke="#000000" d="M2957,-122.2479C2957,-145.0179 2957,-181 2957,-181 2957,-181 1773.7983,-181 1773.7983,-181"/>
<polygon fill="#000000" stroke="#000000" points="1773.7984,-177.5001 1763.7983,-181 1773.7983,-184.5001 1773.7984,-177.5001"/>
</g>
<!-- BookInfoComponent -->
<g id="node3" class="node">
<title>BookInfoComponent</title>
<polygon fill="#ffffb3" stroke="#000000" points="2886.4902,-122 2751.5098,-122 2751.5098,-86 2886.4902,-86 2886.4902,-122"/>
<text text-anchor="middle" x="2819" y="-99.8" font-family="Times,serif" font-size="14.00" fill="#000000">BookInfoComponent</text>
</g>
<!-- BookInfoComponent&#45;&gt;AppModule -->
<g id="edge3" class="edge">
<title>BookInfoComponent&#45;&gt;AppModule</title>
<path fill="none" stroke="#000000" d="M2819,-122.2921C2819,-144.2057 2819,-178 2819,-178 2819,-178 1773.6641,-178 1773.6641,-178"/>
<polygon fill="#000000" stroke="#000000" points="1773.6642,-174.5001 1763.6641,-178 1773.6641,-181.5001 1773.6642,-174.5001"/>
</g>
<!-- FilterPipe -->
<g id="node4" class="node">
<title>FilterPipe</title>
<polygon fill="#ffffb3" stroke="#000000" points="2733.7177,-122 2662.2823,-122 2662.2823,-86 2733.7177,-86 2733.7177,-122"/>
<text text-anchor="middle" x="2698" y="-99.8" font-family="Times,serif" font-size="14.00" fill="#000000">FilterPipe</text>
</g>
<!-- FilterPipe&#45;&gt;AppModule -->
<g id="edge4" class="edge">
<title>FilterPipe&#45;&gt;AppModule</title>
<path fill="none" stroke="#000000" d="M2698,-122.0267C2698,-142.7672 2698,-174 2698,-174 2698,-174 1773.9375,-174 1773.9375,-174"/>
<polygon fill="#000000" stroke="#000000" points="1773.9375,-170.5001 1763.9375,-174 1773.9375,-177.5001 1773.9375,-170.5001"/>
</g>
<!-- FollowersComponent -->
<g id="node5" class="node">
<title>FollowersComponent</title>
<polygon fill="#ffffb3" stroke="#000000" points="2644.823,-122 2507.177,-122 2507.177,-86 2644.823,-86 2644.823,-122"/>
<text text-anchor="middle" x="2576" y="-99.8" font-family="Times,serif" font-size="14.00" fill="#000000">FollowersComponent</text>
</g>
<!-- FollowersComponent&#45;&gt;AppModule -->
<g id="edge5" class="edge">
<title>FollowersComponent&#45;&gt;AppModule</title>
<path fill="none" stroke="#000000" d="M2576,-122.308C2576,-142.1455 2576,-171 2576,-171 2576,-171 1773.7683,-171 1773.7683,-171"/>
<polygon fill="#000000" stroke="#000000" points="1773.7683,-167.5001 1763.7683,-171 1773.7683,-174.5001 1773.7683,-167.5001"/>
</g>
<!-- FollowingComponent -->
<g id="node6" class="node">
<title>FollowingComponent</title>
<polygon fill="#ffffb3" stroke="#000000" points="2489.3934,-122 2350.6066,-122 2350.6066,-86 2489.3934,-86 2489.3934,-122"/>
<text text-anchor="middle" x="2420" y="-99.8" font-family="Times,serif" font-size="14.00" fill="#000000">FollowingComponent</text>
</g>
<!-- FollowingComponent&#45;&gt;AppModule -->
<g id="edge6" class="edge">
<title>FollowingComponent&#45;&gt;AppModule</title>
<path fill="none" stroke="#000000" d="M2420,-122.1686C2420,-141.0898 2420,-168 2420,-168 2420,-168 1773.8316,-168 1773.8316,-168"/>
<polygon fill="#000000" stroke="#000000" points="1773.8316,-164.5001 1763.8316,-168 1773.8316,-171.5001 1773.8316,-164.5001"/>
</g>
<!-- ForgetPasswordComponent -->
<g id="node7" class="node">
<title>ForgetPasswordComponent</title>
<polygon fill="#ffffb3" stroke="#000000" points="2332.535,-122 2161.465,-122 2161.465,-86 2332.535,-86 2332.535,-122"/>
<text text-anchor="middle" x="2247" y="-99.8" font-family="Times,serif" font-size="14.00" fill="#000000">ForgetPasswordComponent</text>
</g>
<!-- ForgetPasswordComponent&#45;&gt;AppModule -->
<g id="edge7" class="edge">
<title>ForgetPasswordComponent&#45;&gt;AppModule</title>
<path fill="none" stroke="#000000" d="M2218.4109,-122.0352C2218.4109,-138.7344 2218.4109,-161 2218.4109,-161 2218.4109,-161 1773.8959,-161 1773.8959,-161"/>
<polygon fill="#000000" stroke="#000000" points="1773.8959,-157.5001 1763.8959,-161 1773.8959,-164.5001 1773.8959,-157.5001"/>
</g>
<!-- ForgetPasswordComponent&#45;&gt;AppModule -->
<g id="edge8" class="edge">
<title>ForgetPasswordComponent&#45;&gt;AppModule</title>
<path fill="none" stroke="#000000" d="M2275.5891,-122.302C2275.5891,-140.2699 2275.5891,-165 2275.5891,-165 2275.5891,-165 1774.0635,-165 1774.0635,-165"/>
<polygon fill="#000000" stroke="#000000" points="1774.0636,-161.5001 1764.0635,-165 1774.0635,-168.5001 1774.0636,-161.5001"/>
</g>
<!-- HomeComponent -->
<g id="node8" class="node">
<title>HomeComponent</title>
<polygon fill="#ffffb3" stroke="#000000" points="2142.5451,-122 2027.4549,-122 2027.4549,-86 2142.5451,-86 2142.5451,-122"/>
<text text-anchor="middle" x="2085" y="-99.8" font-family="Times,serif" font-size="14.00" fill="#000000">HomeComponent</text>
</g>
<!-- HomeComponent&#45;&gt;AppModule -->
<g id="edge9" class="edge">
<title>HomeComponent&#45;&gt;AppModule</title>
<path fill="none" stroke="#000000" d="M2085,-122.2819C2085,-137.9478 2085,-158 2085,-158 2085,-158 1773.9953,-158 1773.9953,-158"/>
<polygon fill="#000000" stroke="#000000" points="1773.9954,-154.5001 1763.9953,-158 1773.9953,-161.5001 1773.9954,-154.5001"/>
</g>
<!-- LogInComponent -->
<g id="node9" class="node">
<title>LogInComponent</title>
<polygon fill="#ffffb3" stroke="#000000" points="2008.5465,-122 1893.4535,-122 1893.4535,-86 2008.5465,-86 2008.5465,-122"/>
<text text-anchor="middle" x="1951" y="-99.8" font-family="Times,serif" font-size="14.00" fill="#000000">LogInComponent</text>
</g>
<!-- LogInComponent&#45;&gt;AppModule -->
<g id="edge10" class="edge">
<title>LogInComponent&#45;&gt;AppModule</title>
<path fill="none" stroke="#000000" d="M1951,-122.1243C1951,-136.7832 1951,-155 1951,-155 1951,-155 1773.7359,-155 1773.7359,-155"/>
<polygon fill="#000000" stroke="#000000" points="1773.7359,-151.5001 1763.7359,-155 1773.7358,-158.5001 1773.7359,-151.5001"/>
</g>
<!-- MyBooksComponent -->
<g id="node10" class="node">
<title>MyBooksComponent</title>
<polygon fill="#ffffb3" stroke="#000000" points="1875.0589,-122 1738.9411,-122 1738.9411,-86 1875.0589,-86 1875.0589,-122"/>
<text text-anchor="middle" x="1807" y="-99.8" font-family="Times,serif" font-size="14.00" fill="#000000">MyBooksComponent</text>
</g>
<!-- MyBooksComponent&#45;&gt;AppModule -->
<g id="edge11" class="edge">
<title>MyBooksComponent&#45;&gt;AppModule</title>
<path fill="none" stroke="#000000" d="M1751.2746,-122.1061C1751.2746,-122.1061 1751.2746,-140.991 1751.2746,-140.991"/>
<polygon fill="#000000" stroke="#000000" points="1747.7746,-140.9909 1751.2746,-150.991 1754.7746,-140.991 1747.7746,-140.9909"/>
</g>
<!-- PageNotFoundComponent -->
<g id="node11" class="node">
<title>PageNotFoundComponent</title>
<polygon fill="#ffffb3" stroke="#000000" points="1720.8243,-122 1555.1757,-122 1555.1757,-86 1720.8243,-86 1720.8243,-122"/>
<text text-anchor="middle" x="1638" y="-99.8" font-family="Times,serif" font-size="14.00" fill="#000000">PageNotFoundComponent</text>
</g>
<!-- PageNotFoundComponent&#45;&gt;AppModule -->
<g id="edge12" class="edge">
<title>PageNotFoundComponent&#45;&gt;AppModule</title>
<path fill="none" stroke="#000000" d="M1700.4169,-122.1061C1700.4169,-122.1061 1700.4169,-140.991 1700.4169,-140.991"/>
<polygon fill="#000000" stroke="#000000" points="1696.917,-140.9909 1700.4169,-150.991 1703.917,-140.991 1696.917,-140.9909"/>
</g>
<!-- ProfileComponent -->
<g id="node12" class="node">
<title>ProfileComponent</title>
<polygon fill="#ffffb3" stroke="#000000" points="1537.9328,-122 1418.0672,-122 1418.0672,-86 1537.9328,-86 1537.9328,-122"/>
<text text-anchor="middle" x="1478" y="-99.8" font-family="Times,serif" font-size="14.00" fill="#000000">ProfileComponent</text>
</g>
<!-- ProfileComponent&#45;&gt;AppModule -->
<g id="edge13" class="edge">
<title>ProfileComponent&#45;&gt;AppModule</title>
<path fill="none" stroke="#000000" d="M1478,-122.1243C1478,-136.7832 1478,-155 1478,-155 1478,-155 1670.3321,-155 1670.3321,-155"/>
<polygon fill="#000000" stroke="#000000" points="1670.3322,-158.5001 1680.3321,-155 1670.3321,-151.5001 1670.3322,-158.5001"/>
</g>
<!-- ReviewComponent -->
<g id="node13" class="node">
<title>ReviewComponent</title>
<polygon fill="#ffffb3" stroke="#000000" points="1400.0954,-122 1275.9046,-122 1275.9046,-86 1400.0954,-86 1400.0954,-122"/>
<text text-anchor="middle" x="1338" y="-99.8" font-family="Times,serif" font-size="14.00" fill="#000000">ReviewComponent</text>
</g>
<!-- ReviewComponent&#45;&gt;AppModule -->
<g id="edge14" class="edge">
<title>ReviewComponent&#45;&gt;AppModule</title>
<path fill="none" stroke="#000000" d="M1338,-122.2819C1338,-137.9478 1338,-158 1338,-158 1338,-158 1670.1743,-158 1670.1743,-158"/>
<polygon fill="#000000" stroke="#000000" points="1670.1743,-161.5001 1680.1743,-158 1670.1742,-154.5001 1670.1743,-161.5001"/>
</g>
<!-- SearchBooksComponent -->
<g id="node14" class="node">
<title>SearchBooksComponent</title>
<polygon fill="#ffffb3" stroke="#000000" points="1257.7007,-122 1102.2993,-122 1102.2993,-86 1257.7007,-86 1257.7007,-122"/>
<text text-anchor="middle" x="1180" y="-99.8" font-family="Times,serif" font-size="14.00" fill="#000000">SearchBooksComponent</text>
</g>
<!-- SearchBooksComponent&#45;&gt;AppModule -->
<g id="edge15" class="edge">
<title>SearchBooksComponent&#45;&gt;AppModule</title>
<path fill="none" stroke="#000000" d="M1180,-122.0352C1180,-138.7344 1180,-161 1180,-161 1180,-161 1669.9212,-161 1669.9212,-161"/>
<polygon fill="#000000" stroke="#000000" points="1669.9212,-164.5001 1679.9212,-161 1669.9211,-157.5001 1669.9212,-164.5001"/>
</g>
<!-- SearchPeopleComponent -->
<g id="node15" class="node">
<title>SearchPeopleComponent</title>
<polygon fill="#ffffb3" stroke="#000000" points="1084.5225,-122 927.4775,-122 927.4775,-86 1084.5225,-86 1084.5225,-122"/>
<text text-anchor="middle" x="1006" y="-99.8" font-family="Times,serif" font-size="14.00" fill="#000000">SearchPeopleComponent</text>
</g>
<!-- SearchPeopleComponent&#45;&gt;AppModule -->
<g id="edge16" class="edge">
<title>SearchPeopleComponent&#45;&gt;AppModule</title>
<path fill="none" stroke="#000000" d="M1006,-122.302C1006,-140.2699 1006,-165 1006,-165 1006,-165 1670.1474,-165 1670.1474,-165"/>
<polygon fill="#000000" stroke="#000000" points="1670.1474,-168.5001 1680.1474,-165 1670.1473,-161.5001 1670.1474,-168.5001"/>
</g>
<!-- AppComponent  -->
<g id="node19" class="node">
<title>AppComponent </title>
<polygon fill="#80b1d3" stroke="#000000" points="1776.439,-252 1667.561,-252 1667.561,-216 1776.439,-216 1776.439,-252"/>
<text text-anchor="middle" x="1722" y="-229.8" font-family="Times,serif" font-size="14.00" fill="#000000">AppComponent </text>
</g>
<!-- AppModule&#45;&gt;AppComponent  -->
<g id="edge19" class="edge">
<title>AppModule&#45;&gt;AppComponent </title>
<path fill="none" stroke="#000000" stroke-dasharray="1,5" d="M1722,-187.1061C1722,-187.1061 1722,-205.991 1722,-205.991"/>
<polygon fill="#000000" stroke="#000000" points="1718.5001,-205.9909 1722,-215.991 1725.5001,-205.991 1718.5001,-205.9909"/>
</g>
<!-- AppRoutingModule -->
<g id="node17" class="node">
<title>AppRoutingModule</title>
<polygon fill="#8dd3c7" stroke="#000000" points="903.2744,-122 900.2744,-126 879.2744,-126 876.2744,-122 774.7256,-122 774.7256,-86 903.2744,-86 903.2744,-122"/>
<text text-anchor="middle" x="839" y="-99.8" font-family="Times,serif" font-size="14.00" fill="#000000">AppRoutingModule</text>
</g>
<!-- AppRoutingModule&#45;&gt;AppModule -->
<g id="edge17" class="edge">
<title>AppRoutingModule&#45;&gt;AppModule</title>
<path fill="none" stroke="#000000" d="M839,-122.1686C839,-141.0898 839,-168 839,-168 839,-168 1670.3007,-168 1670.3007,-168"/>
<polygon fill="#000000" stroke="#000000" points="1670.3008,-171.5001 1680.3007,-168 1670.3007,-164.5001 1670.3008,-171.5001"/>
</g>
<!-- SharedModule -->
<g id="node18" class="node">
<title>SharedModule</title>
<polygon fill="#8dd3c7" stroke="#000000" points="756.4231,-122 753.4231,-126 732.4231,-126 729.4231,-122 657.5769,-122 657.5769,-86 756.4231,-86 756.4231,-122"/>
<text text-anchor="middle" x="707" y="-99.8" font-family="Times,serif" font-size="14.00" fill="#000000">SharedModule</text>
</g>
<!-- SharedModule&#45;&gt;AppModule -->
<g id="edge18" class="edge">
<title>SharedModule&#45;&gt;AppModule</title>
<path fill="none" stroke="#000000" d="M707,-122.308C707,-142.1455 707,-171 707,-171 707,-171 1670.3185,-171 1670.3185,-171"/>
<polygon fill="#000000" stroke="#000000" points="1670.3185,-174.5001 1680.3185,-171 1670.3185,-167.5001 1670.3185,-174.5001"/>
</g>
<!-- AuthInterceptor -->
<g id="node20" class="node">
<title>AuthInterceptor</title>
<ellipse fill="#fdb462" stroke="#000000" cx="561" cy="-104" rx="72.9121" ry="18"/>
<text text-anchor="middle" x="561" y="-99.8" font-family="Times,serif" font-size="14.00" fill="#000000">AuthInterceptor</text>
</g>
<!-- AuthInterceptor&#45;&gt;AppModule -->
<g id="edge20" class="edge">
<title>AuthInterceptor&#45;&gt;AppModule</title>
<path fill="none" stroke="#000000" d="M561,-122.0267C561,-142.7672 561,-174 561,-174 561,-174 1670.3371,-174 1670.3371,-174"/>
<polygon fill="#000000" stroke="#000000" points="1670.3371,-177.5001 1680.3371,-174 1670.3371,-170.5001 1670.3371,-177.5001"/>
</g>
<!-- HttpService -->
<g id="node21" class="node">
<title>HttpService</title>
<ellipse fill="#fdb462" stroke="#000000" cx="413" cy="-104" rx="57.3185" ry="18"/>
<text text-anchor="middle" x="413" y="-99.8" font-family="Times,serif" font-size="14.00" fill="#000000">HttpService</text>
</g>
<!-- HttpService&#45;&gt;AppModule -->
<g id="edge21" class="edge">
<title>HttpService&#45;&gt;AppModule</title>
<path fill="none" stroke="#000000" d="M413,-122.2921C413,-144.2057 413,-178 413,-178 413,-178 1670.2968,-178 1670.2968,-178"/>
<polygon fill="#000000" stroke="#000000" points="1670.2968,-181.5001 1680.2968,-178 1670.2967,-174.5001 1670.2968,-181.5001"/>
</g>
<!-- LogInHttpService -->
<g id="node22" class="node">
<title>LogInHttpService</title>
<ellipse fill="#fdb462" stroke="#000000" cx="257" cy="-104" rx="80.5181" ry="18"/>
<text text-anchor="middle" x="257" y="-99.8" font-family="Times,serif" font-size="14.00" fill="#000000">LogInHttpService</text>
</g>
<!-- LogInHttpService&#45;&gt;AppModule -->
<g id="edge22" class="edge">
<title>LogInHttpService&#45;&gt;AppModule</title>
<path fill="none" stroke="#000000" d="M257,-122.2479C257,-145.0179 257,-181 257,-181 257,-181 1670.1261,-181 1670.1261,-181"/>
<polygon fill="#000000" stroke="#000000" points="1670.1262,-184.5001 1680.1261,-181 1670.1261,-177.5001 1670.1262,-184.5001"/>
</g>
<!-- SharedService -->
<g id="node23" class="node">
<title>SharedService</title>
<ellipse fill="#fdb462" stroke="#000000" cx="91" cy="-104" rx="66.6113" ry="18"/>
<text text-anchor="middle" x="91" y="-99.8" font-family="Times,serif" font-size="14.00" fill="#000000">SharedService</text>
</g>
<!-- SharedService&#45;&gt;AppModule -->
<g id="edge23" class="edge">
<title>SharedService&#45;&gt;AppModule</title>
<path fill="none" stroke="#000000" d="M91,-122.1532C91,-145.7566 91,-184 91,-184 91,-184 1670.0439,-184 1670.0439,-184"/>
<polygon fill="#000000" stroke="#000000" points="1670.0439,-187.5001 1680.0439,-184 1670.0439,-180.5001 1670.0439,-187.5001"/>
</g>
</g>
</svg>
