<?xml version="1.0" encoding="UTF-8" standalone="no"?>
<!DOCTYPE svg PUBLIC "-//W3C//DTD SVG 1.1//EN"
 "http://www.w3.org/Graphics/SVG/1.1/DTD/svg11.dtd">
<!-- Generated by graphviz version 2.40.1 (20161225.0304)
 -->
<!-- Title: dependencies Pages: 1 -->
<svg width="3739pt" height="355pt"
 viewBox="0.00 0.00 3739.00 355.00" xmlns="http://www.w3.org/2000/svg" xmlns:xlink="http://www.w3.org/1999/xlink">
<g id="graph0" class="graph" transform="scale(1 1) rotate(0) translate(4 351)">
<title>dependencies</title>
<polygon fill="#ffffff" stroke="transparent" points="-4,4 -4,-351 3735,-351 3735,4 -4,4"/>
<text text-anchor="start" x="1844.5091" y="-42.4" font-family="sans-serif" font-weight="bold" font-size="14.00" fill="#000000">Legend</text>
<polygon fill="#ffffb3" stroke="transparent" points="1631.5,-10 1631.5,-30 1651.5,-30 1651.5,-10 1631.5,-10"/>
<text text-anchor="start" x="1655.129" y="-15.4" font-family="sans-serif" font-size="14.00" fill="#000000"> &#160;Declarations</text>
<polygon fill="#8dd3c7" stroke="transparent" points="1744.5,-10 1744.5,-30 1764.5,-30 1764.5,-10 1744.5,-10"/>
<text text-anchor="start" x="1768.2251" y="-15.4" font-family="sans-serif" font-size="14.00" fill="#000000"> &#160;Module</text>
<polygon fill="#80b1d3" stroke="transparent" points="1830.5,-10 1830.5,-30 1850.5,-30 1850.5,-10 1830.5,-10"/>
<text text-anchor="start" x="1854.2812" y="-15.4" font-family="sans-serif" font-size="14.00" fill="#000000"> &#160;Bootstrap</text>
<polygon fill="#fdb462" stroke="transparent" points="1927.5,-10 1927.5,-30 1947.5,-30 1947.5,-10 1927.5,-10"/>
<text text-anchor="start" x="1951.1732" y="-15.4" font-family="sans-serif" font-size="14.00" fill="#000000"> &#160;Providers</text>
<polygon fill="#fb8072" stroke="transparent" points="2023.5,-10 2023.5,-30 2043.5,-30 2043.5,-10 2023.5,-10"/>
<text text-anchor="start" x="2047.2258" y="-15.4" font-family="sans-serif" font-size="14.00" fill="#000000"> &#160;Exports</text>
<g id="clust1" class="cluster">
<title>cluster_AppModule</title>
<polygon fill="none" stroke="#000000" stroke-dasharray="1,5" points="8,-70 8,-339 3261,-339 3261,-70 8,-70"/>
</g>
<g id="clust2" class="cluster">
<title>cluster_AppModule_declarations</title>
<polygon fill="none" stroke="#000000" points="664,-143 664,-195 3101,-195 3101,-143 664,-143"/>
</g>
<g id="clust19" class="cluster">
<title>cluster_AppModule_imports</title>
<polygon fill="none" stroke="#000000" points="3109,-78 3109,-195 3253,-195 3253,-78 3109,-78"/>
</g>
<g id="clust21" class="cluster">
<title>cluster_AppModule_bootstrap</title>
<polygon fill="none" stroke="#000000" points="1634,-279 1634,-331 1758,-331 1758,-279 1634,-279"/>
</g>
<g id="clust22" class="cluster">
<title>cluster_AppModule_providers</title>
<polygon fill="none" stroke="#000000" points="16,-143 16,-195 642,-195 642,-143 16,-143"/>
</g>
<g id="clust35" class="cluster">
<title>cluster_SharedModule</title>
<polygon fill="none" stroke="#000000" stroke-dasharray="1,5" points="3269,-203 3269,-271 3723,-271 3723,-203 3269,-203"/>
</g>
<g id="clust36" class="cluster">
<title>cluster_SharedModule_declarations</title>
<polygon fill="none" stroke="#000000" points="3577,-211 3577,-263 3715,-263 3715,-211 3577,-211"/>
</g>
<g id="clust39" class="cluster">
<title>cluster_SharedModule_exports</title>
<polygon fill="none" stroke="#000000" points="3277,-211 3277,-263 3569,-263 3569,-211 3277,-211"/>
</g>
<!-- AboutusComponent -->
<g id="node1" class="node">
<title>AboutusComponent</title>
<polygon fill="#ffffb3" stroke="#000000" points="3093.2744,-187 2964.7256,-187 2964.7256,-151 3093.2744,-151 3093.2744,-187"/>
<text text-anchor="middle" x="3029" y="-164.8" font-family="Times,serif" font-size="14.00" fill="#000000">AboutusComponent</text>
</g>
<!-- AppModule -->
<g id="node17" class="node">
<title>AppModule</title>
<polygon fill="#8dd3c7" stroke="#000000" points="1737.6571,-255 1734.6571,-259 1713.6571,-259 1710.6571,-255 1654.3429,-255 1654.3429,-219 1737.6571,-219 1737.6571,-255"/>
<text text-anchor="middle" x="1696" y="-232.8" font-family="Times,serif" font-size="14.00" fill="#000000">AppModule</text>
</g>
<!-- AboutusComponent&#45;&gt;AppModule -->
<g id="edge1" class="edge">
<title>AboutusComponent&#45;&gt;AppModule</title>
<path fill="none" stroke="#000000" d="M3029,-187.3228C3029,-210.6602 3029,-248 3029,-248 3029,-248 1747.725,-248 1747.725,-248"/>
<polygon fill="#000000" stroke="#000000" points="1747.725,-244.5001 1737.725,-248 1747.7249,-251.5001 1747.725,-244.5001"/>
</g>
<!-- AccountSettingsComponent -->
<g id="node2" class="node">
<title>AccountSettingsComponent</title>
<polygon fill="#ffffb3" stroke="#000000" points="2946.8724,-187 2773.1276,-187 2773.1276,-151 2946.8724,-151 2946.8724,-187"/>
<text text-anchor="middle" x="2860" y="-164.8" font-family="Times,serif" font-size="14.00" fill="#000000">AccountSettingsComponent</text>
</g>
<!-- AccountSettingsComponent&#45;&gt;AppModule -->
<g id="edge2" class="edge">
<title>AccountSettingsComponent&#45;&gt;AppModule</title>
<path fill="none" stroke="#000000" d="M2860,-187.2479C2860,-210.0179 2860,-246 2860,-246 2860,-246 1747.7706,-246 1747.7706,-246"/>
<polygon fill="#000000" stroke="#000000" points="1747.7706,-242.5001 1737.7706,-246 1747.7705,-249.5001 1747.7706,-242.5001"/>
</g>
<!-- AppComponent -->
<g id="node3" class="node">
<title>AppComponent</title>
<polygon fill="#ffffb3" stroke="#000000" points="2754.9399,-187 2649.0601,-187 2649.0601,-151 2754.9399,-151 2754.9399,-187"/>
<text text-anchor="middle" x="2702" y="-164.8" font-family="Times,serif" font-size="14.00" fill="#000000">AppComponent</text>
</g>
<!-- AppComponent&#45;&gt;AppModule -->
<g id="edge3" class="edge">
<title>AppComponent&#45;&gt;AppModule</title>
<path fill="none" stroke="#000000" d="M2702,-187.2921C2702,-209.2057 2702,-243 2702,-243 2702,-243 1747.9458,-243 1747.9458,-243"/>
<polygon fill="#000000" stroke="#000000" points="1747.9458,-239.5001 1737.9458,-243 1747.9457,-246.5001 1747.9458,-239.5001"/>
</g>
<!-- BookInfoComponent -->
<g id="node4" class="node">
<title>BookInfoComponent</title>
<polygon fill="#ffffb3" stroke="#000000" points="2631.4902,-187 2496.5098,-187 2496.5098,-151 2631.4902,-151 2631.4902,-187"/>
<text text-anchor="middle" x="2564" y="-164.8" font-family="Times,serif" font-size="14.00" fill="#000000">BookInfoComponent</text>
</g>
<!-- BookInfoComponent&#45;&gt;AppModule -->
<g id="edge4" class="edge">
<title>BookInfoComponent&#45;&gt;AppModule</title>
<path fill="none" stroke="#000000" d="M2564,-187.1686C2564,-208.498 2564,-241 2564,-241 2564,-241 1747.8654,-241 1747.8654,-241"/>
<polygon fill="#000000" stroke="#000000" points="1747.8655,-237.5001 1737.8654,-241 1747.8654,-244.5001 1747.8655,-237.5001"/>
</g>
<!-- FilterPipe -->
<g id="node5" class="node">
<title>FilterPipe</title>
<polygon fill="#ffffb3" stroke="#000000" points="2478.7177,-187 2407.2823,-187 2407.2823,-151 2478.7177,-151 2478.7177,-187"/>
<text text-anchor="middle" x="2443" y="-164.8" font-family="Times,serif" font-size="14.00" fill="#000000">FilterPipe</text>
</g>
<!-- FilterPipe&#45;&gt;AppModule -->
<g id="edge5" class="edge">
<title>FilterPipe&#45;&gt;AppModule</title>
<path fill="none" stroke="#000000" d="M2443,-187.0267C2443,-207.7672 2443,-239 2443,-239 2443,-239 1747.7626,-239 1747.7626,-239"/>
<polygon fill="#000000" stroke="#000000" points="1747.7626,-235.5001 1737.7626,-239 1747.7626,-242.5001 1747.7626,-235.5001"/>
</g>
<!-- FollowersComponent -->
<g id="node6" class="node">
<title>FollowersComponent</title>
<polygon fill="#ffffb3" stroke="#000000" points="2389.823,-187 2252.177,-187 2252.177,-151 2389.823,-151 2389.823,-187"/>
<text text-anchor="middle" x="2321" y="-164.8" font-family="Times,serif" font-size="14.00" fill="#000000">FollowersComponent</text>
</g>
<!-- FollowersComponent&#45;&gt;AppModule -->
<g id="edge6" class="edge">
<title>FollowersComponent&#45;&gt;AppModule</title>
<path fill="none" stroke="#000000" d="M2321,-187.308C2321,-207.1455 2321,-236 2321,-236 2321,-236 1747.9785,-236 1747.9785,-236"/>
<polygon fill="#000000" stroke="#000000" points="1747.9785,-232.5001 1737.9785,-236 1747.9785,-239.5001 1747.9785,-232.5001"/>
</g>
<!-- FollowingComponent -->
<g id="node7" class="node">
<title>FollowingComponent</title>
<polygon fill="#ffffb3" stroke="#000000" points="2234.3934,-187 2095.6066,-187 2095.6066,-151 2234.3934,-151 2234.3934,-187"/>
<text text-anchor="middle" x="2165" y="-164.8" font-family="Times,serif" font-size="14.00" fill="#000000">FollowingComponent</text>
</g>
<!-- FollowingComponent&#45;&gt;AppModule -->
<g id="edge7" class="edge">
<title>FollowingComponent&#45;&gt;AppModule</title>
<path fill="none" stroke="#000000" d="M2165,-187.1061C2165,-206.3391 2165,-234 2165,-234 2165,-234 1748.0334,-234 1748.0334,-234"/>
<polygon fill="#000000" stroke="#000000" points="1748.0334,-230.5001 1738.0334,-234 1748.0333,-237.5001 1748.0334,-230.5001"/>
</g>
<!-- ForgetPasswordComponent -->
<g id="node8" class="node">
<title>ForgetPasswordComponent</title>
<polygon fill="#ffffb3" stroke="#000000" points="2077.535,-187 1906.465,-187 1906.465,-151 2077.535,-151 2077.535,-187"/>
<text text-anchor="middle" x="1992" y="-164.8" font-family="Times,serif" font-size="14.00" fill="#000000">ForgetPasswordComponent</text>
</g>
<!-- ForgetPasswordComponent&#45;&gt;AppModule -->
<g id="edge8" class="edge">
<title>ForgetPasswordComponent&#45;&gt;AppModule</title>
<path fill="none" stroke="#000000" d="M1963.4109,-187.002C1963.4109,-204.6754 1963.4109,-229 1963.4109,-229 1963.4109,-229 1747.783,-229 1747.783,-229"/>
<polygon fill="#000000" stroke="#000000" points="1747.783,-225.5001 1737.783,-229 1747.7829,-232.5001 1747.783,-225.5001"/>
</g>
<!-- ForgetPasswordComponent&#45;&gt;AppModule -->
<g id="edge9" class="edge">
<title>ForgetPasswordComponent&#45;&gt;AppModule</title>
<path fill="none" stroke="#000000" d="M2020.5891,-187.2667C2020.5891,-205.5552 2020.5891,-231 2020.5891,-231 2020.5891,-231 1747.7698,-231 1747.7698,-231"/>
<polygon fill="#000000" stroke="#000000" points="1747.7699,-227.5001 1737.7698,-231 1747.7698,-234.5001 1747.7699,-227.5001"/>
</g>
<!-- HomeComponent -->
<g id="node9" class="node">
<title>HomeComponent</title>
<polygon fill="#ffffb3" stroke="#000000" points="1887.5451,-187 1772.4549,-187 1772.4549,-151 1887.5451,-151 1887.5451,-187"/>
<text text-anchor="middle" x="1830" y="-164.8" font-family="Times,serif" font-size="14.00" fill="#000000">HomeComponent</text>
</g>
<!-- HomeComponent&#45;&gt;AppModule -->
<g id="edge10" class="edge">
<title>HomeComponent&#45;&gt;AppModule</title>
<path fill="none" stroke="#000000" d="M1830,-187.0336C1830,-204.0597 1830,-227 1830,-227 1830,-227 1747.6639,-227 1747.6639,-227"/>
<polygon fill="#000000" stroke="#000000" points="1747.6639,-223.5001 1737.6639,-227 1747.6639,-230.5001 1747.6639,-223.5001"/>
</g>
<!-- LogInComponent -->
<g id="node10" class="node">
<title>LogInComponent</title>
<polygon fill="#ffffb3" stroke="#000000" points="1753.5465,-187 1638.4535,-187 1638.4535,-151 1753.5465,-151 1753.5465,-187"/>
<text text-anchor="middle" x="1696" y="-164.8" font-family="Times,serif" font-size="14.00" fill="#000000">LogInComponent</text>
</g>
<!-- LogInComponent&#45;&gt;AppModule -->
<g id="edge11" class="edge">
<title>LogInComponent&#45;&gt;AppModule</title>
<path fill="none" stroke="#000000" d="M1696,-187.2228C1696,-187.2228 1696,-208.7269 1696,-208.7269"/>
<polygon fill="#000000" stroke="#000000" points="1692.5001,-208.7269 1696,-218.7269 1699.5001,-208.727 1692.5001,-208.7269"/>
</g>
<!-- MyBooksComponent -->
<g id="node11" class="node">
<title>MyBooksComponent</title>
<polygon fill="#ffffb3" stroke="#000000" points="1620.0589,-187 1483.9411,-187 1483.9411,-151 1620.0589,-151 1620.0589,-187"/>
<text text-anchor="middle" x="1552" y="-164.8" font-family="Times,serif" font-size="14.00" fill="#000000">MyBooksComponent</text>
</g>
<!-- MyBooksComponent&#45;&gt;AppModule -->
<g id="edge12" class="edge">
<title>MyBooksComponent&#45;&gt;AppModule</title>
<path fill="none" stroke="#000000" d="M1552,-187.2819C1552,-202.9478 1552,-223 1552,-223 1552,-223 1643.9621,-223 1643.9621,-223"/>
<polygon fill="#000000" stroke="#000000" points="1643.9622,-226.5001 1653.9621,-223 1643.9621,-219.5001 1643.9622,-226.5001"/>
</g>
<!-- PageNotFoundComponent -->
<g id="node12" class="node">
<title>PageNotFoundComponent</title>
<polygon fill="#ffffb3" stroke="#000000" points="1465.8243,-187 1300.1757,-187 1300.1757,-151 1465.8243,-151 1465.8243,-187"/>
<text text-anchor="middle" x="1383" y="-164.8" font-family="Times,serif" font-size="14.00" fill="#000000">PageNotFoundComponent</text>
</g>
<!-- PageNotFoundComponent&#45;&gt;AppModule -->
<g id="edge13" class="edge">
<title>PageNotFoundComponent&#45;&gt;AppModule</title>
<path fill="none" stroke="#000000" d="M1383,-187.0352C1383,-203.7344 1383,-226 1383,-226 1383,-226 1644.1122,-226 1644.1122,-226"/>
<polygon fill="#000000" stroke="#000000" points="1644.1122,-229.5001 1654.1122,-226 1644.1122,-222.5001 1644.1122,-229.5001"/>
</g>
<!-- ProfileComponent -->
<g id="node13" class="node">
<title>ProfileComponent</title>
<polygon fill="#ffffb3" stroke="#000000" points="1282.9328,-187 1163.0672,-187 1163.0672,-151 1282.9328,-151 1282.9328,-187"/>
<text text-anchor="middle" x="1223" y="-164.8" font-family="Times,serif" font-size="14.00" fill="#000000">ProfileComponent</text>
</g>
<!-- ProfileComponent&#45;&gt;AppModule -->
<g id="edge14" class="edge">
<title>ProfileComponent&#45;&gt;AppModule</title>
<path fill="none" stroke="#000000" d="M1223,-187.002C1223,-204.6754 1223,-229 1223,-229 1223,-229 1644.0244,-229 1644.0244,-229"/>
<polygon fill="#000000" stroke="#000000" points="1644.0244,-232.5001 1654.0244,-229 1644.0244,-225.5001 1644.0244,-232.5001"/>
</g>
<!-- ReviewComponent -->
<g id="node14" class="node">
<title>ReviewComponent</title>
<polygon fill="#ffffb3" stroke="#000000" points="1145.0954,-187 1020.9046,-187 1020.9046,-151 1145.0954,-151 1145.0954,-187"/>
<text text-anchor="middle" x="1083" y="-164.8" font-family="Times,serif" font-size="14.00" fill="#000000">ReviewComponent</text>
</g>
<!-- ReviewComponent&#45;&gt;AppModule -->
<g id="edge15" class="edge">
<title>ReviewComponent&#45;&gt;AppModule</title>
<path fill="none" stroke="#000000" d="M1083,-187.1686C1083,-206.0898 1083,-233 1083,-233 1083,-233 1643.866,-233 1643.866,-233"/>
<polygon fill="#000000" stroke="#000000" points="1643.8661,-236.5001 1653.866,-233 1643.866,-229.5001 1643.8661,-236.5001"/>
</g>
<!-- SearchBooksComponent -->
<g id="node15" class="node">
<title>SearchBooksComponent</title>
<polygon fill="#ffffb3" stroke="#000000" points="1002.7007,-187 847.2993,-187 847.2993,-151 1002.7007,-151 1002.7007,-187"/>
<text text-anchor="middle" x="925" y="-164.8" font-family="Times,serif" font-size="14.00" fill="#000000">SearchBooksComponent</text>
</g>
<!-- SearchBooksComponent&#45;&gt;AppModule -->
<g id="edge16" class="edge">
<title>SearchBooksComponent&#45;&gt;AppModule</title>
<path fill="none" stroke="#000000" d="M925,-187.308C925,-207.1455 925,-236 925,-236 925,-236 1644.2743,-236 1644.2743,-236"/>
<polygon fill="#000000" stroke="#000000" points="1644.2744,-239.5001 1654.2743,-236 1644.2743,-232.5001 1644.2744,-239.5001"/>
</g>
<!-- SearchPeopleComponent -->
<g id="node16" class="node">
<title>SearchPeopleComponent</title>
<polygon fill="#ffffb3" stroke="#000000" points="829.5225,-187 672.4775,-187 672.4775,-151 829.5225,-151 829.5225,-187"/>
<text text-anchor="middle" x="751" y="-164.8" font-family="Times,serif" font-size="14.00" fill="#000000">SearchPeopleComponent</text>
</g>
<!-- SearchPeopleComponent&#45;&gt;AppModule -->
<g id="edge17" class="edge">
<title>SearchPeopleComponent&#45;&gt;AppModule</title>
<path fill="none" stroke="#000000" d="M751,-187.0267C751,-207.7672 751,-239 751,-239 751,-239 1644.1752,-239 1644.1752,-239"/>
<polygon fill="#000000" stroke="#000000" points="1644.1752,-242.5001 1654.1752,-239 1644.1752,-235.5001 1644.1752,-242.5001"/>
</g>
<!-- AppComponent  -->
<g id="node20" class="node">
<title>AppComponent </title>
<polygon fill="#80b1d3" stroke="#000000" points="1750.439,-323 1641.561,-323 1641.561,-287 1750.439,-287 1750.439,-323"/>
<text text-anchor="middle" x="1696" y="-300.8" font-family="Times,serif" font-size="14.00" fill="#000000">AppComponent </text>
</g>
<!-- AppModule&#45;&gt;AppComponent  -->
<g id="edge20" class="edge">
<title>AppModule&#45;&gt;AppComponent </title>
<path fill="none" stroke="#000000" stroke-dasharray="1,5" d="M1696,-255.2228C1696,-255.2228 1696,-276.7269 1696,-276.7269"/>
<polygon fill="#000000" stroke="#000000" points="1692.5001,-276.7269 1696,-286.7269 1699.5001,-276.727 1692.5001,-276.7269"/>
</g>
<!-- AppRoutingModule -->
<g id="node18" class="node">
<title>AppRoutingModule</title>
<polygon fill="#8dd3c7" stroke="#000000" points="3245.2744,-122 3242.2744,-126 3221.2744,-126 3218.2744,-122 3116.7256,-122 3116.7256,-86 3245.2744,-86 3245.2744,-122"/>
<text text-anchor="middle" x="3181" y="-99.8" font-family="Times,serif" font-size="14.00" fill="#000000">AppRoutingModule</text>
</g>
<!-- AppRoutingModule&#45;&gt;AppModule -->
<g id="edge18" class="edge">
<title>AppRoutingModule&#45;&gt;AppModule</title>
<path fill="none" stroke="#000000" d="M3131.7009,-122.0251C3131.7009,-161.2783 3131.7009,-251 3131.7009,-251 3131.7009,-251 1747.804,-251 1747.804,-251"/>
<polygon fill="#000000" stroke="#000000" points="1747.8041,-247.5001 1737.804,-251 1747.804,-254.5001 1747.8041,-247.5001"/>
</g>
<!-- SharedModule -->
<g id="node19" class="node">
<title>SharedModule</title>
<polygon fill="#8dd3c7" stroke="#000000" points="3245.4231,-187 3242.4231,-191 3221.4231,-191 3218.4231,-187 3146.5769,-187 3146.5769,-151 3245.4231,-151 3245.4231,-187"/>
<text text-anchor="middle" x="3196" y="-164.8" font-family="Times,serif" font-size="14.00" fill="#000000">SharedModule</text>
</g>
<!-- AppRoutingModule&#45;&gt;SharedModule -->
<g id="edge26" class="edge">
<title>AppRoutingModule&#45;&gt;SharedModule</title>
<path fill="none" stroke="#000000" d="M3196,-122.1061C3196,-122.1061 3196,-140.991 3196,-140.991"/>
<polygon fill="#000000" stroke="#000000" points="3192.5001,-140.9909 3196,-150.991 3199.5001,-140.991 3192.5001,-140.9909"/>
</g>
<!-- SharedModule&#45;&gt;AppModule -->
<g id="edge19" class="edge">
<title>SharedModule&#45;&gt;AppModule</title>
<path fill="none" stroke="#000000" d="M3171.3944,-187.2267C3171.3944,-211.9318 3171.3944,-253 3171.3944,-253 3171.3944,-253 1747.7791,-253 1747.7791,-253"/>
<polygon fill="#000000" stroke="#000000" points="1747.7791,-249.5001 1737.7791,-253 1747.779,-256.5001 1747.7791,-249.5001"/>
</g>
<!-- AppRoutingModule  -->
<g id="node26" class="node">
<title>AppRoutingModule </title>
<polygon fill="#fb8072" stroke="#000000" points="3561.2745,-255 3428.7255,-255 3428.7255,-219 3561.2745,-219 3561.2745,-255"/>
<text text-anchor="middle" x="3495" y="-232.8" font-family="Times,serif" font-size="14.00" fill="#000000">AppRoutingModule </text>
</g>
<!-- SharedModule&#45;&gt;AppRoutingModule  -->
<g id="edge27" class="edge">
<title>SharedModule&#45;&gt;AppRoutingModule </title>
<path fill="none" stroke="#000000" stroke-dasharray="5,2" d="M3245.3738,-175C3330.2982,-175 3495,-175 3495,-175 3495,-175 3495,-208.7333 3495,-208.7333"/>
<polygon fill="#000000" stroke="#000000" points="3491.5001,-208.7333 3495,-218.7333 3498.5001,-208.7333 3491.5001,-208.7333"/>
</g>
<!-- NavbarComponent  -->
<g id="node27" class="node">
<title>NavbarComponent </title>
<polygon fill="#fb8072" stroke="#000000" points="3411.0288,-255 3284.9712,-255 3284.9712,-219 3411.0288,-219 3411.0288,-255"/>
<text text-anchor="middle" x="3348" y="-232.8" font-family="Times,serif" font-size="14.00" fill="#000000">NavbarComponent </text>
</g>
<!-- SharedModule&#45;&gt;NavbarComponent  -->
<g id="edge28" class="edge">
<title>SharedModule&#45;&gt;NavbarComponent </title>
<path fill="none" stroke="#000000" stroke-dasharray="5,2" d="M3220.6056,-187.2396C3220.6056,-202.5706 3220.6056,-222 3220.6056,-222 3220.6056,-222 3274.676,-222 3274.676,-222"/>
<polygon fill="#000000" stroke="#000000" points="3274.676,-225.5001 3284.676,-222 3274.676,-218.5001 3274.676,-225.5001"/>
</g>
<!-- SharedModule&#45;&gt;NavbarComponent  -->
<g id="edge29" class="edge">
<title>SharedModule&#45;&gt;NavbarComponent </title>
<path fill="none" stroke="#000000" stroke-dasharray="5,2" d="M3196,-187.0091C3196,-203.0494 3196,-224 3196,-224 3196,-224 3274.8588,-224 3274.8588,-224"/>
<polygon fill="#000000" stroke="#000000" points="3274.8589,-227.5001 3284.8588,-224 3274.8588,-220.5001 3274.8589,-227.5001"/>
</g>
<!-- AuthInterceptor -->
<g id="node21" class="node">
<title>AuthInterceptor</title>
<ellipse fill="#fdb462" stroke="#000000" cx="561" cy="-169" rx="72.9121" ry="18"/>
<text text-anchor="middle" x="561" y="-164.8" font-family="Times,serif" font-size="14.00" fill="#000000">AuthInterceptor</text>
</g>
<!-- AuthInterceptor&#45;&gt;AppModule -->
<g id="edge21" class="edge">
<title>AuthInterceptor&#45;&gt;AppModule</title>
<path fill="none" stroke="#000000" d="M561,-187.0449C561,-208.6623 561,-242 561,-242 561,-242 1644.2587,-242 1644.2587,-242"/>
<polygon fill="#000000" stroke="#000000" points="1644.2587,-245.5001 1654.2587,-242 1644.2586,-238.5001 1644.2587,-245.5001"/>
</g>
<!-- HttpService -->
<g id="node22" class="node">
<title>HttpService</title>
<ellipse fill="#fdb462" stroke="#000000" cx="413" cy="-169" rx="57.3185" ry="18"/>
<text text-anchor="middle" x="413" y="-164.8" font-family="Times,serif" font-size="14.00" fill="#000000">HttpService</text>
</g>
<!-- HttpService&#45;&gt;AppModule -->
<g id="edge22" class="edge">
<title>HttpService&#45;&gt;AppModule</title>
<path fill="none" stroke="#000000" d="M413,-187.2479C413,-210.0179 413,-246 413,-246 413,-246 1644.0417,-246 1644.0417,-246"/>
<polygon fill="#000000" stroke="#000000" points="1644.0418,-249.5001 1654.0417,-246 1644.0417,-242.5001 1644.0418,-249.5001"/>
</g>
<!-- LogInHttpService -->
<g id="node23" class="node">
<title>LogInHttpService</title>
<ellipse fill="#fdb462" stroke="#000000" cx="257" cy="-169" rx="80.5181" ry="18"/>
<text text-anchor="middle" x="257" y="-164.8" font-family="Times,serif" font-size="14.00" fill="#000000">LogInHttpService</text>
</g>
<!-- LogInHttpService&#45;&gt;AppModule -->
<g id="edge23" class="edge">
<title>LogInHttpService&#45;&gt;AppModule</title>
<path fill="none" stroke="#000000" d="M257,-187.1532C257,-210.7566 257,-249 257,-249 257,-249 1644.0999,-249 1644.0999,-249"/>
<polygon fill="#000000" stroke="#000000" points="1644.1,-252.5001 1654.0999,-249 1644.0999,-245.5001 1644.1,-252.5001"/>
</g>
<!-- SharedService -->
<g id="node24" class="node">
<title>SharedService</title>
<ellipse fill="#fdb462" stroke="#000000" cx="91" cy="-169" rx="66.6113" ry="18"/>
<text text-anchor="middle" x="91" y="-164.8" font-family="Times,serif" font-size="14.00" fill="#000000">SharedService</text>
</g>
<!-- SharedService&#45;&gt;AppModule -->
<g id="edge24" class="edge">
<title>SharedService&#45;&gt;AppModule</title>
<path fill="none" stroke="#000000" d="M91,-187.0098C91,-211.4207 91,-252 91,-252 91,-252 1644.3049,-252 1644.3049,-252"/>
<polygon fill="#000000" stroke="#000000" points="1644.3049,-255.5001 1654.3049,-252 1644.3048,-248.5001 1644.3049,-255.5001"/>
</g>
<!-- NavbarComponent -->
<g id="node25" class="node">
<title>NavbarComponent</title>
<polygon fill="#ffffb3" stroke="#000000" points="3707.0297,-255 3584.9703,-255 3584.9703,-219 3707.0297,-219 3707.0297,-255"/>
<text text-anchor="middle" x="3646" y="-232.8" font-family="Times,serif" font-size="14.00" fill="#000000">NavbarComponent</text>
</g>
<!-- NavbarComponent&#45;&gt;SharedModule -->
<g id="edge25" class="edge">
<title>NavbarComponent&#45;&gt;SharedModule</title>
<path fill="none" stroke="#000000" d="M3646,-218.7079C3646,-196.7943 3646,-163 3646,-163 3646,-163 3255.4451,-163 3255.4451,-163"/>
<polygon fill="#000000" stroke="#000000" points="3255.4452,-159.5001 3245.4451,-163 3255.4451,-166.5001 3255.4452,-159.5001"/>
</g>
</g>
</svg>
